<svg width="21" height="22" viewBox="0 0 21 22" fill="none" xmlns="http://www.w3.org/2000/svg">
<path d="M10.0062 10.5353C11.8471 10.5353 13.3395 8.94931 13.3395 6.99294C13.3395 5.03657 11.8471 3.45062 10.0062 3.45062C8.16524 3.45062 6.67285 5.03657 6.67285 6.99294C6.67285 8.94931 8.16524 10.5353 10.0062 10.5353Z" fill="white"/>
<path d="M16.6732 18.5055V14.9632C16.6732 14.4318 16.4232 13.9005 16.0065 13.5462C15.0898 12.7492 13.9232 12.2179 12.7565 11.8636C11.9232 11.598 11.0065 11.4208 10.0065 11.4208C9.08984 11.4208 8.17318 11.598 7.25651 11.8636C6.08984 12.2179 4.92318 12.8378 4.00651 13.5462C3.58984 13.9005 3.33984 14.4318 3.33984 14.9632V18.5055H16.6732Z" fill="white"/>
</svg>
