<svg width="50" height="50" viewBox="0 0 50 50" fill="none" xmlns="http://www.w3.org/2000/svg">
<g clip-path="url(#clip0)">
<path d="M43.8596 5.84988C43.2893 3.16785 37.2236 3.25613 37.0916 3.25613C36.9588 3.25613 37.0916 1.76004 37.0479 1.2327C37.0049 0.705353 34.3674 0.48426 33.9275 0.617072C33.4877 0.749885 33.7088 2.94754 33.6635 3.12332C33.6197 3.2991 30.9385 2.81551 30.9385 2.81551C30.9385 2.81551 30.9385 0.44051 30.8502 0.177229C30.7627 -0.086834 27.5979 0.0889473 27.3346 0.177229C27.0689 0.26551 27.3775 2.24363 27.3775 2.5077C27.3775 2.77176 24.9166 2.59598 24.4768 2.5077C24.0361 2.41942 24.4322 0.528791 24.1252 0.177229C23.8166 -0.174334 21.3111 0.0889473 20.9158 0.177229C20.5205 0.26551 20.6971 2.46395 20.6971 2.81551C20.6971 3.16707 19.0252 2.90379 18.7619 2.90379C18.4979 2.90379 18.4541 0.837385 18.4541 0.310041C18.4541 -0.218084 15.29 0.133479 15.0268 0.177229C14.7627 0.220979 14.8939 2.63973 14.8939 2.63973C14.8939 2.63973 12.8729 2.55067 12.5658 2.50692C12.2572 2.46317 12.5658 1.0116 12.3455 0.703791C12.1268 0.395979 9.44551 0.570979 8.91816 0.61551C8.39082 0.658478 8.83066 3.20926 8.83066 3.20926C8.83066 3.20926 7.86426 3.20926 6.80957 3.25301C5.75488 3.29676 4.66426 4.02254 4.56738 4.2202C3.51113 6.37645 4.03926 39.7944 4.03926 41.4218C4.03926 43.0468 5.04941 44.1913 5.26895 44.4554C5.48848 44.7194 5.66426 45.5546 5.88457 46.9616C6.10488 48.3686 9.53301 49.6444 10.983 49.6444C12.4338 49.6444 37.1799 50.2163 40.2564 49.9085C43.333 49.6007 45.2674 47.7538 45.3111 46.5671C45.3549 45.3796 44.4322 8.5327 43.8604 5.85067L43.8596 5.84988ZM34.8393 1.93582C35.0541 1.72176 35.7955 1.83738 35.9268 2.03582C36.0596 2.23348 35.7939 6.78582 35.7939 6.78582C35.7939 6.78582 34.6736 7.11395 34.608 6.78582C34.5424 6.45457 34.7072 2.06863 34.8393 1.9366V1.93582ZM28.576 1.5077C28.6432 1.39051 29.6307 1.5077 29.6307 1.5077C29.6307 1.5077 29.6963 5.7952 29.5314 5.82801C29.3674 5.86082 28.7072 5.86082 28.6408 5.72879C28.576 5.59598 28.4439 1.73895 28.576 1.5077ZM21.9822 1.24363C22.0104 1.04832 23.1697 1.24363 23.1697 1.24363C23.1697 1.24363 23.201 5.3327 23.0697 5.3327C22.9369 5.3327 21.8494 5.26707 21.8494 5.26707C21.8494 5.26707 21.9486 1.47488 21.9822 1.24363ZM15.9166 1.5077C15.9166 1.5077 17.1689 1.37488 17.2682 1.54051C17.3674 1.70457 17.5979 5.29988 17.3674 5.46473C17.1369 5.62879 16.115 5.53035 16.115 5.53035C16.115 5.53035 15.7854 1.63973 15.9166 1.50692V1.5077ZM10.0822 1.96863C10.1291 1.77723 11.1369 1.73895 11.2033 1.93738C11.2689 2.13426 11.401 5.66395 11.2689 5.72879C11.1361 5.79442 10.3471 5.8616 10.3127 5.7616C10.2799 5.66317 10.0494 2.10145 10.0822 1.96942V1.96863ZM38.7619 45.1382C38.5314 45.2374 37.3775 45.271 37.1799 45.2038C36.9822 45.1389 36.1252 43.3913 35.9924 43.3913C35.8611 43.3913 35.3674 43.7194 35.433 43.8522C35.4986 43.985 36.5869 45.2038 36.3893 45.303C36.1916 45.4022 33.0268 45.3686 32.8947 45.2374C32.7619 45.1046 34.3455 44.2811 35.1033 43.5554C35.8611 42.8288 36.2908 42.3679 36.4221 42.235C36.7455 41.9124 38.9924 45.0397 38.7619 45.1389V45.1382ZM34.1471 40.9819C34.2799 40.0913 34.3775 39.0038 34.5424 38.8725C34.6205 38.81 35.8611 38.8725 36.4213 38.8061C36.9807 38.7405 37.5072 38.7069 37.5072 38.7069C37.5072 38.7069 37.0463 39.6304 35.5619 41.2796C34.0791 42.928 33.8822 43.0936 33.7166 43.0608C33.5525 43.0272 34.0135 41.8733 34.1463 40.9827L34.1471 40.9819ZM39.8166 44.7749C39.5861 44.7421 37.1135 41.5093 37.1135 41.5093C37.1135 41.5093 37.4432 40.8843 37.6408 40.8179C37.7346 40.7866 40.0143 43.06 40.1135 43.3905C40.2127 43.7202 40.0479 44.8085 39.8166 44.7749ZM40.3447 42.1702C40.1479 42.1374 38.1369 40.1585 38.1369 40.1585C38.1369 40.1585 38.7635 39.3007 38.9611 39.2679C39.3674 39.1999 40.4768 40.6194 40.4768 40.8507C40.4768 41.0819 40.5424 42.2022 40.3439 42.1694L40.3447 42.1702ZM40.4111 39.103C40.3119 39.0702 39.4549 38.4108 39.4549 38.2124C39.4549 38.0139 40.1479 37.0249 40.3783 36.8272C40.3783 36.8272 40.4775 36.9257 40.5424 37.321C40.6072 37.7163 40.5111 39.135 40.4119 39.1022L40.4111 39.103ZM40.5439 28.8468C40.3127 28.7475 36.2908 23.0757 36.1588 23.0757C36.026 23.0757 35.7635 23.9991 36.026 24.1639C36.2916 24.328 40.3119 29.5725 40.3119 29.803C40.3119 30.0343 40.1791 31.3858 40.1791 31.3858C40.1791 31.3858 36.29 26.4718 36.0588 26.4389C35.8283 26.4061 35.5979 26.8999 35.7947 27.2304C35.9924 27.56 39.8822 32.2429 39.915 32.4741C39.9479 32.7046 39.7822 34.4194 39.5854 34.3866C39.3877 34.3538 36.3549 30.2304 36.1244 30.1991C35.8932 30.1655 35.4643 30.9897 35.7611 31.3194C36.058 31.6475 39.1893 34.9796 39.1893 35.2429C39.1893 35.5069 38.7283 36.4304 38.5955 36.2663C38.4643 36.1007 36.6502 33.4952 36.3549 33.528C36.058 33.5608 35.6627 33.8905 35.9252 34.1874C36.1908 34.4843 38.201 36.8593 38.1018 36.9921C38.0025 37.1233 36.651 37.5858 35.2346 37.6171C33.8166 37.6507 33.4205 37.6171 33.2229 38.0468C33.0252 38.4764 33.3557 40.4218 32.5635 42.3999C31.7713 44.3788 30.7494 45.2358 29.7275 45.3022C28.7057 45.3679 10.9697 45.335 9.05801 44.6757C7.14629 44.0163 6.22207 42.235 6.15723 40.2225C6.09473 38.2124 6.2916 5.7952 6.3916 5.23426C6.44394 4.93504 9.06113 4.90457 9.06113 5.13504C9.06113 5.36551 8.99551 6.98192 9.45645 7.11395C9.91738 7.24676 12.4564 7.34442 12.4564 7.08114C12.4564 6.81707 12.3572 4.14598 12.6541 3.91551C12.951 3.68504 14.9291 3.7827 14.9291 3.94832C14.9291 4.11395 14.7963 6.12489 14.9291 6.38895C15.0619 6.65301 18.6869 6.84988 18.6541 6.55301C18.6213 6.25613 18.7533 4.2452 18.7533 4.2452C18.7533 4.2452 20.6986 4.01473 20.7314 4.31082C20.7643 4.6077 20.4346 6.42176 20.7971 6.5202C21.1588 6.61942 24.3893 6.94988 24.4221 6.55301C24.4557 6.15692 24.2252 4.11238 24.4885 4.04676C24.7525 3.98113 27.3893 4.11238 27.3893 4.21082C27.3893 4.31082 27.2252 6.35535 27.4885 6.55301C27.7525 6.75067 30.6213 7.14676 30.7518 6.75067C30.8846 6.35535 30.6189 4.34442 30.8174 4.34442C31.015 4.34442 33.4549 4.24442 33.4549 4.44285C33.4549 4.64051 33.3221 7.93817 33.4877 7.97176C33.6518 8.00457 37.015 8.07098 37.1471 7.93895C37.2799 7.8077 37.2463 4.80613 37.3447 4.80613C37.4447 4.80613 39.0596 4.74129 39.2572 5.69676C39.4549 6.65379 39.9166 11.1718 39.8838 12.6889C39.851 14.2061 39.7846 14.5686 39.7846 14.5686C39.7846 14.5686 38.0033 12.4577 37.8393 12.5241C37.6752 12.5889 37.3783 13.3147 37.4439 13.446C37.5096 13.5788 39.7174 16.1843 39.8502 16.3819C39.983 16.5796 40.2455 19.3171 40.1471 19.2843C40.0479 19.2514 36.7518 15.128 36.7518 15.128C36.7518 15.128 36.0932 16.2171 36.2908 16.3155C36.4885 16.4155 40.1479 20.7686 40.1479 20.9663C40.1479 21.1639 40.2471 24.1983 40.2471 24.1983C40.2471 24.1983 36.3252 19.3507 36.1924 19.3835C36.0596 19.4163 35.7971 20.2413 35.9283 20.4069C36.0611 20.571 40.4775 25.9132 40.4775 26.0124C40.4775 26.11 40.7744 28.9468 40.5432 28.8483L40.5439 28.8468ZM8.00488 9.22488C7.87363 9.42254 7.84082 14.4358 7.84082 14.4358C7.84082 14.4358 9.02832 14.5014 9.19238 14.4358C9.35645 14.3702 9.25801 9.19207 9.25801 9.19207C9.25801 9.19207 8.09629 9.08739 8.00488 9.22488ZM14.8627 22.4163C15.1268 22.7788 18.0268 25.5819 18.2908 25.6483C18.5564 25.7139 20.8299 22.746 20.9939 22.746C21.158 22.746 20.9627 38.0147 21.1924 38.1796C21.4221 38.3444 27.2252 38.3436 27.39 38.1796C27.5541 38.0155 27.5877 13.3468 27.5877 13.3468C27.5877 13.3468 22.8408 12.3577 22.4447 12.3577C22.0486 12.3577 14.6955 22.1874 14.8619 22.4163H14.8627ZM23.2033 13.8085C23.7971 13.8085 26.3346 14.2694 26.4658 14.5663C26.5986 14.8632 26.433 36.6952 26.2682 36.7616C26.1041 36.8272 22.4439 36.7944 22.4439 36.696C22.4439 36.5975 22.4768 20.3069 22.3783 20.2077C22.2791 20.1085 21.2244 19.9436 21.126 20.0749C21.0275 20.2077 18.5557 23.835 18.226 23.7366C17.8963 23.6374 16.6768 22.3186 16.5775 22.0546C16.54 21.9554 22.6088 13.8085 23.2025 13.8085H23.2033Z" fill="#136598"/>
</g>
<defs>
<clipPath id="clip0">
<rect width="50" height="50" fill="white"/>
</clipPath>
</defs>
</svg>
