<svg width="68" height="67" viewBox="0 0 68 67" fill="none" xmlns="http://www.w3.org/2000/svg">
<g clip-path="url(#clip0)">
<path fill-rule="evenodd" clip-rule="evenodd" d="M50.3912 46.2588C47.1006 48.1301 43.7969 49.9883 40.4801 51.8334C38.802 52.7625 37.1239 53.6785 35.4459 54.6207C34.751 55.0133 34.0169 55.6414 33.2041 55.7854C32.365 55.9293 31.5916 55.5105 30.8312 55.2227C28.8516 54.4506 26.8327 53.7047 24.8531 52.9457C23.6601 52.4877 24.132 51.0744 24.7482 50.3939C25.6134 49.4387 27.1473 50.2893 28.0519 50.708C29.4284 51.3492 30.8836 51.7287 32.3257 52.1867C35.5376 53.2205 38.8938 48.0123 35.8785 45.9578C34.7642 45.2119 33.1647 44.8324 31.9062 44.3352C29.1531 43.249 26.3869 42.176 23.6601 41.0244C21.8509 40.2654 20.0286 39.2709 18.0621 39.0223C16.2398 38.7998 14.1291 39.1139 12.3724 39.6242C11.4023 39.899 10.301 40.3832 9.52755 41.0375C9.00315 41.4824 8.55742 42.1629 8.34766 42.8172V57.4734C8.34766 57.4734 8.43943 58.3109 9.27846 58.1147C11.7562 57.5389 14.706 57.709 17.1706 58.2455C19.4911 58.7559 21.6018 60.0121 23.7912 60.8889C26.2165 61.8572 28.7074 62.6293 31.1589 63.493C35.2099 64.9193 38.0941 61.4777 41.306 59.6719C45.2259 57.4734 49.1326 55.2488 53.0394 53.0504C53.6949 52.684 54.3373 52.3176 54.9928 51.9512C56.0022 51.3754 56.9724 49.2686 56.8675 48.1824C56.566 44.8063 52.5937 45.0025 50.3912 46.2588Z" fill="white"/>
<path fill-rule="evenodd" clip-rule="evenodd" d="M5.76515 42.7779H2.47456C1.6093 42.7779 0.901367 43.4846 0.901367 44.3483V56.5574C0.901367 57.4211 1.6093 58.1277 2.47456 58.1277H5.76515C6.6304 58.1277 7.33834 57.4211 7.33834 56.5574V44.3483C7.33834 43.4846 6.6304 42.7779 5.76515 42.7779ZM4.96544 46.3766C4.30995 46.3766 3.78555 45.8531 3.78555 45.1988C3.78555 44.5445 4.30995 44.0211 4.96544 44.0211C5.62094 44.0211 6.14534 44.5445 6.14534 45.1988C6.14534 45.84 5.60783 46.3766 4.96544 46.3766Z" fill="white"/>
<path d="M66.4512 34.3113H11.4551V36.549H66.4512V34.3113Z" fill="white"/>
<path fill-rule="evenodd" clip-rule="evenodd" d="M16.2005 33.1074C16.2398 32.7541 16.3054 32.2045 16.4103 31.6287C16.4365 31.5109 16.4496 31.3932 16.4758 31.2623C16.502 31.1314 16.5282 31.0006 16.5676 30.8697C16.6331 30.5949 16.6987 30.2939 16.7642 29.9799C16.8036 29.8229 16.8429 29.6527 16.8822 29.4957C16.9347 29.3256 16.974 29.1555 17.0264 28.9854C17.1313 28.632 17.2362 28.2656 17.3411 27.8861C17.6033 27.1271 17.8655 26.3027 18.2194 25.4652C18.3112 25.2559 18.3899 25.0334 18.4816 24.824C18.5865 24.6146 18.6783 24.3922 18.7832 24.1828C18.888 23.9604 18.9929 23.751 19.0847 23.5285C19.1896 23.3061 19.3076 23.0967 19.4255 22.8742C19.5435 22.6518 19.6615 22.4293 19.7795 22.2068C19.8975 21.9844 20.0417 21.775 20.1597 21.5525C20.2908 21.3301 20.4219 21.1207 20.553 20.8982C20.6972 20.6758 20.8414 20.4664 20.9856 20.257C21.1298 20.0477 21.274 19.8252 21.4182 19.6158C21.5756 19.4064 21.7329 19.1971 21.8902 18.9877C22.1917 18.5689 22.5326 18.1633 22.8603 17.7707C23.0177 17.5613 23.2012 17.3781 23.3716 17.1818C23.5421 16.9855 23.7256 16.8023 23.896 16.6061C24.0796 16.4229 24.2631 16.2396 24.4335 16.0564C24.6171 15.8732 24.7875 15.69 24.9841 15.5199C25.1677 15.3498 25.3512 15.1797 25.5348 14.9965C25.7183 14.8264 25.915 14.6693 26.0985 14.4992C26.4656 14.1721 26.8589 13.8711 27.2259 13.5701C27.4095 13.4131 27.6061 13.2822 27.7897 13.1383C27.9863 12.9943 28.1699 12.8504 28.3534 12.7326C28.7336 12.4709 29.1007 12.2092 29.4677 11.9867C30.2019 11.5156 30.9229 11.11 31.5916 10.7436C32.2602 10.3902 32.8894 10.0893 33.4532 9.84063C34.0169 9.59199 34.5151 9.39571 34.9215 9.23867C35.7474 8.92461 36.2325 8.80684 36.2325 8.80684C36.2325 8.80684 35.7605 8.97696 34.9739 9.36953C34.1873 9.74903 33.0861 10.351 31.8406 11.1885C31.2245 11.6072 30.5559 12.0783 29.8873 12.6018C29.5464 12.8635 29.2187 13.1514 28.8647 13.4393C28.6943 13.5832 28.5238 13.7402 28.3534 13.8973C28.183 14.0543 28.0125 14.1982 27.8421 14.3684C27.5144 14.6955 27.1604 15.0227 26.8326 15.376C26.6753 15.5461 26.4918 15.7162 26.3345 15.8994C26.1772 16.0826 26.0198 16.2658 25.8494 16.449C25.679 16.6322 25.5348 16.8154 25.3774 17.0117C25.2201 17.208 25.0628 17.3912 24.9186 17.5875C24.7744 17.7838 24.6302 17.9801 24.4729 18.1764C24.3287 18.3727 24.1713 18.5689 24.0402 18.7783C23.7649 19.1971 23.4765 19.5896 23.2405 20.0215C23.1094 20.2309 22.9914 20.4402 22.8603 20.6496C22.7424 20.859 22.6244 21.0814 22.5064 21.2908C22.3884 21.5002 22.2704 21.7096 22.1655 21.932C22.0606 22.1545 21.9558 22.3639 21.864 22.5732C21.7591 22.7826 21.6542 22.992 21.5625 23.2145C21.4707 23.4238 21.3789 23.6463 21.3003 23.8557C21.2085 24.065 21.1167 24.2744 21.0381 24.4838C20.9594 24.6932 20.8939 24.9025 20.8152 25.1119C20.7365 25.3213 20.671 25.5307 20.5923 25.727C20.5268 25.9363 20.4743 26.1326 20.4088 26.342C20.1466 27.1402 19.9893 27.9254 19.8188 28.632C19.7533 28.9984 19.6877 29.3387 19.6353 29.6658C19.6091 29.8359 19.5697 29.993 19.5435 30.15C19.5173 30.307 19.5042 30.4641 19.478 30.608C19.4386 30.909 19.3993 31.1838 19.3731 31.4324C19.36 31.5633 19.3469 31.6811 19.3207 31.7988C19.3075 31.9166 19.3076 32.0344 19.2944 32.1391C19.2551 32.5971 19.2289 32.9373 19.2158 33.1729H64.3139C64.3139 33.0682 64.3139 32.9635 64.3139 32.8588C64.3139 18.7783 53.4196 7.30196 39.7984 6.81778V5.28672C41.1356 5.15586 42.1057 4.73711 42.1057 4.25293C42.1057 3.66407 40.6636 3.17989 38.8938 3.17989C37.1239 3.17989 35.6818 3.66407 35.6818 4.25293C35.6818 4.73711 36.652 5.15586 37.9892 5.28672V6.75235C24.368 7.23653 13.4736 18.7129 13.4736 32.7934C13.4736 32.898 13.4736 33.0027 13.4736 33.1074H16.2005ZM49.1982 11.7381C49.3948 11.8035 49.6308 11.9082 49.893 12.026C50.1552 12.1438 50.4567 12.2877 50.7714 12.4578C51.086 12.6279 51.4269 12.8242 51.7677 13.0467C51.9382 13.1514 52.1217 13.2822 52.2921 13.4C52.3839 13.4654 52.4626 13.5309 52.5543 13.5963C52.6461 13.6617 52.7379 13.7272 52.8165 13.7926C52.987 13.9365 53.1705 14.0805 53.354 14.2244C53.4458 14.3029 53.5376 14.3814 53.6162 14.46C53.708 14.5385 53.7867 14.617 53.8784 14.7086C53.9702 14.7871 54.0489 14.8787 54.1406 14.9572C54.2193 15.0488 54.3111 15.1273 54.3897 15.2189C54.4684 15.3105 54.547 15.4022 54.6388 15.4938C54.7175 15.5854 54.8092 15.677 54.8748 15.7686C55.0321 15.9648 55.1894 16.148 55.3336 16.3443C55.4123 16.449 55.4778 16.5406 55.5565 16.6453C55.622 16.75 55.6876 16.8416 55.7663 16.9463C55.8318 17.051 55.8974 17.1426 55.9629 17.2473C56.0285 17.352 56.0809 17.4566 56.1464 17.5613C56.212 17.666 56.2775 17.7707 56.33 17.8754C56.3824 17.9801 56.4349 18.0848 56.5004 18.1895C56.5529 18.2941 56.6184 18.3988 56.6577 18.5035C56.7102 18.6082 56.7495 18.7129 56.8019 18.8176C56.8544 18.9223 56.8937 19.027 56.9462 19.1186C56.9855 19.2232 57.0248 19.3279 57.0641 19.4195C57.2346 19.8121 57.3526 20.2047 57.4837 20.558C57.5361 20.7412 57.5885 20.9113 57.6279 21.0814C57.6541 21.16 57.6803 21.2385 57.6934 21.317C57.7065 21.3955 57.7327 21.474 57.7459 21.5525C57.7852 21.6965 57.8114 21.8404 57.8376 21.9713C57.8507 22.0367 57.8638 22.1021 57.877 22.1545C57.8901 22.2199 57.9032 22.2723 57.9032 22.3246C57.9818 22.7564 58.0212 23.1883 58.0212 23.1883L56.566 23.1621C56.566 23.1621 56.5529 22.9396 56.5135 22.534C56.5135 22.4816 56.5004 22.4293 56.5004 22.377C56.4873 22.3246 56.4873 22.2592 56.4742 22.2068C56.4611 22.0891 56.448 21.9582 56.4218 21.8143C56.4086 21.7488 56.4086 21.6703 56.3955 21.6049C56.3824 21.5264 56.3693 21.4609 56.3562 21.3824C56.33 21.2254 56.3038 21.0684 56.2644 20.8982C56.1858 20.5711 56.1071 20.1916 55.9891 19.8252C55.9629 19.7336 55.9367 19.6289 55.8974 19.5373C55.858 19.4457 55.8318 19.341 55.7925 19.2494C55.7532 19.1578 55.7269 19.0531 55.6876 18.9484C55.6483 18.8438 55.6089 18.7521 55.5696 18.6475C55.5303 18.5428 55.4909 18.4512 55.4385 18.3465C55.3992 18.2418 55.3467 18.1502 55.2943 18.0455C55.2419 17.9408 55.2025 17.8492 55.1501 17.7445C55.0976 17.6398 55.0452 17.5482 54.9928 17.4436C54.9403 17.3389 54.8879 17.2473 54.8223 17.1426C54.7568 17.051 54.7044 16.9463 54.6388 16.8416C54.5208 16.6453 54.3897 16.449 54.2586 16.2527C54.1931 16.1611 54.1275 16.0695 54.062 15.9648C53.9964 15.8732 53.9178 15.7816 53.8522 15.69C53.7735 15.5984 53.708 15.5068 53.6293 15.4152C53.5507 15.3236 53.4851 15.232 53.4065 15.1535C53.3278 15.0619 53.2491 14.9834 53.1836 14.8918C53.1049 14.8002 53.0263 14.7217 52.9476 14.6432C52.7903 14.473 52.633 14.3291 52.4757 14.1721C52.397 14.0936 52.3183 14.0281 52.2397 13.9496C52.161 13.8842 52.0824 13.8057 52.0037 13.7402C51.8464 13.6094 51.6891 13.4654 51.5318 13.3477C51.2171 13.099 50.9025 12.8766 50.6141 12.6803C50.0241 12.2877 49.5128 12.0129 49.1457 11.8297C48.7787 11.6465 48.5558 11.568 48.5558 11.568C48.5558 11.568 48.818 11.5941 49.1982 11.7381Z" fill="white"/>
</g>
<defs>
<clipPath id="clip0">
<rect width="67.1228" height="67" fill="white" transform="translate(0.115234)"/>
</clipPath>
</defs>
</svg>
