<svg width="30" height="30" viewBox="0 0 30 30" fill="none" xmlns="http://www.w3.org/2000/svg">
<path d="M15.0002 4.28259C9.09016 4.28259 4.28271 9.09068 4.28271 15.0004C4.28271 20.9101 9.09016 25.7175 15.0002 25.7175C20.9099 25.7175 25.7176 20.9101 25.7176 15.0004C25.7176 9.09068 20.9099 4.28259 15.0002 4.28259ZM15.0002 24.0269C10.0226 24.0269 5.9732 19.9776 5.9732 15.0003C5.9732 10.0224 10.0226 5.97308 15.0002 5.97308C19.9778 5.97308 24.0271 10.0224 24.0271 15.0003C24.0271 19.9776 19.9778 24.0269 15.0002 24.0269Z" fill="white"/>
<path d="M13.3048 12.8998C13.3048 12.2218 14.2965 12.106 15.1568 12.106C15.9675 12.106 17.0754 12.486 18.0017 12.9662L18.1832 11.0974C17.72 10.8325 16.6453 10.5182 15.5537 10.4526L15.8182 8.55054H14.0486L14.3135 10.4526C12.0315 10.6672 11.2871 11.9902 11.2871 13.0983C11.2871 15.893 16.496 15.2983 16.496 17.0175C16.496 17.663 15.8846 17.894 14.8094 17.894C13.3544 17.894 12.2625 17.3819 11.7006 16.8523L11.4192 18.9528C11.9489 19.2671 13.0232 19.5481 14.3135 19.6145L14.0486 21.4502H15.8182L15.5537 19.5976C18.2327 19.366 18.7122 17.9435 18.7122 17.0013C18.7123 13.6774 13.3048 14.5038 13.3048 12.8998Z" fill="white"/>
</svg>
