<svg width="128" height="128" viewBox="0 0 128 128" fill="none" xmlns="http://www.w3.org/2000/svg">
<g clip-path="url(#clip0)">
<path opacity="0.2" d="M128.057 128V60.118L97.9992 30.058L30.1172 97.942L60.1752 128H128.057Z" fill="url(#paint0_linear)"/>
<path d="M64 112C90.5097 112 112 90.5097 112 64C112 37.4903 90.5097 16 64 16C37.4903 16 16 37.4903 16 64C16 90.5097 37.4903 112 64 112Z" fill="#136598"/>
<path opacity="0.5" d="M144.714 137.166C144.644 137.094 144.574 137.024 144.502 136.954C144.43 136.88 144.36 136.81 144.286 136.738C144.228 136.678 144.164 136.614 144.104 136.556C144.024 136.474 143.942 136.392 143.86 136.31C143.794 136.244 143.728 136.178 143.656 136.106C143.584 136.034 143.514 135.966 143.446 135.896C143.376 135.824 143.302 135.754 143.234 135.684C143.164 135.612 143.092 135.542 143.022 135.472C142.952 135.404 142.882 135.332 142.812 135.262C142.736 135.186 142.66 135.11 142.582 135.036C142.522 134.974 142.456 134.91 142.398 134.85C142.326 134.776 142.254 134.704 142.182 134.634C142.11 134.56 142.036 134.488 141.966 134.416C141.896 134.344 141.824 134.274 141.754 134.206C141.684 134.132 141.612 134.062 141.542 133.994C141.472 133.922 141.402 133.852 141.332 133.782C141.258 133.708 141.184 133.634 141.108 133.56C141.048 133.5 140.984 133.436 140.924 133.376C140.846 133.298 140.768 133.216 140.688 133.138C140.622 133.072 140.552 133.004 140.48 132.932C140.412 132.86 140.34 132.79 140.27 132.72C140.2 132.65 140.13 132.58 140.06 132.51C139.986 132.438 139.918 132.366 139.846 132.296C139.774 132.226 139.702 132.152 139.628 132.082C139.566 132.018 139.502 131.952 139.434 131.886C139.36 131.812 139.288 131.734 139.21 131.662C139.14 131.592 139.07 131.522 139.002 131.452C138.932 131.38 138.86 131.31 138.79 131.24C138.72 131.17 138.65 131.1 138.58 131.03C138.51 130.96 138.438 130.89 138.368 130.82C138.3 130.748 138.226 130.678 138.156 130.608C138.088 130.538 138.018 130.47 137.948 130.4C137.88 130.326 137.806 130.258 137.736 130.188C137.666 130.116 137.596 130.044 137.524 129.976C137.454 129.906 137.386 129.836 137.316 129.766C137.246 129.694 137.174 129.624 137.104 129.556C137.034 129.482 136.962 129.412 136.892 129.344C136.822 129.272 136.752 129.2 136.68 129.13C136.61 129.058 136.538 128.988 136.468 128.918C136.406 128.856 136.342 128.792 136.274 128.726C136.194 128.644 136.114 128.562 136.032 128.484C135.968 128.418 135.902 128.352 135.83 128.282C135.762 128.21 135.69 128.14 135.62 128.07C135.55 128 135.48 127.93 135.41 127.86C135.34 127.788 135.268 127.718 135.198 127.65C135.13 127.58 135.06 127.512 134.99 127.442C134.924 127.372 134.856 127.302 134.782 127.234C134.706 127.156 134.626 127.078 134.548 127C134.482 126.936 134.416 126.87 134.348 126.8C134.278 126.73 134.206 126.66 134.138 126.59C134.068 126.518 133.994 126.448 133.924 126.378C133.92 126.372 133.916 126.366 133.908 126.362C133.904 125.042 134.308 123.322 136 122C139.074 119.6 142 115.93 142 112C142 108.404 140.75 104.436 138.396 101.878C138.328 101.8 138.25 101.736 138.18 101.66C138.114 101.584 138.036 101.522 137.97 101.45C137.906 101.376 137.83 101.316 137.762 101.242C137.698 101.166 137.62 101.104 137.55 101.03C137.486 100.952 137.408 100.894 137.34 100.818C137.274 100.742 137.196 100.682 137.13 100.606C137.064 100.532 136.986 100.47 136.918 100.396C136.852 100.32 136.774 100.26 136.706 100.184C136.644 100.12 136.582 100.064 136.526 100.006H142L146.774 98.006C146.774 98.006 146.504 98.006 146.056 98.006L146.564 97.796C146.564 97.796 146.294 97.796 145.844 97.796L146.352 97.584C146.352 97.584 146.082 97.584 145.632 97.584L146.14 97.372C146.14 97.372 145.874 97.372 145.426 97.372L145.93 97.164C145.93 97.164 145.66 97.164 145.212 97.164L145.72 96.952C145.72 96.952 145.45 96.952 145.002 96.952L145.51 96.742C145.51 96.742 145.24 96.742 144.792 96.742L145.3 96.53C145.3 96.53 145.028 96.53 144.58 96.53L145.088 96.318C145.088 96.318 144.816 96.318 144.368 96.318L144.876 96.108C144.876 96.108 144.606 96.108 144.158 96.108L144.666 95.898C144.666 95.898 144.396 95.898 143.948 95.898L144.456 95.686C144.456 95.686 144.188 95.686 143.742 95.686L144.246 95.478C144.246 95.478 143.976 95.478 143.526 95.478L144.034 95.266C144.034 95.266 143.764 95.266 143.314 95.266L143.822 95.054C143.822 95.054 143.552 95.054 143.104 95.054L143.612 94.844C143.612 94.844 143.342 94.844 142.894 94.844L143.402 94.634C143.402 94.634 143.132 94.634 142.682 94.634L143.19 94.422C143.19 94.422 142.922 94.422 142.474 94.422L142.982 94.21C142.982 94.21 142.712 94.21 142.264 94.21L142.768 94.002C142.768 94.002 142.498 94.002 142.05 94.002L142.558 93.79C142.558 93.79 142.288 93.79 141.84 93.79L142.348 93.58C142.348 93.58 142.078 93.58 141.628 93.58L142.138 93.368C142.138 93.368 141.866 93.368 141.416 93.368L141.926 93.156C141.926 93.156 141.654 93.156 141.206 93.156L141.714 92.946C141.714 92.946 141.444 92.946 140.996 92.946L141.504 92.736C141.504 92.736 141.234 92.736 140.79 92.736L141.294 92.526C141.294 92.526 141.024 92.526 140.576 92.526L141.084 92.316C141.084 92.316 140.814 92.316 140.364 92.316L140.872 92.104C140.872 92.104 140.602 92.104 140.152 92.104L140.66 91.892C140.66 91.892 140.39 91.892 139.942 91.892L140.45 91.682C140.45 91.682 140.18 91.682 139.732 91.682L140.24 91.47C140.24 91.47 139.97 91.47 139.524 91.47L140.028 91.262C140.028 91.262 139.756 91.262 139.306 91.262L139.82 91.048C139.82 91.048 139.55 91.048 139.102 91.048L139.606 90.838C139.606 90.838 139.336 90.838 138.888 90.838L139.396 90.628C139.396 90.628 139.126 90.628 138.678 90.628L139.186 90.418C139.186 90.418 138.916 90.418 138.466 90.418L138.974 90.206C138.974 90.206 138.704 90.206 138.254 90.206L138.762 89.994C138.762 89.994 138.492 89.994 138.046 89.994L138.554 89.784C138.554 89.784 138.282 89.784 137.834 89.784L138.342 89.574C138.342 89.574 138.072 89.574 137.622 89.574L138.13 89.362C138.13 89.362 137.864 89.362 137.418 89.362L137.922 89.154C137.922 89.154 137.65 89.154 137.202 89.154L137.71 88.942C137.71 88.942 137.438 88.942 136.99 88.942L137.498 88.73C137.498 88.73 137.228 88.73 136.78 88.73L137.288 88.52C137.288 88.52 137.018 88.52 136.568 88.52L137.078 88.308C137.078 88.308 136.808 88.308 136.36 88.308L136.864 88.1C136.864 88.1 136.594 88.1 136.144 88.1L136.656 87.886C136.656 87.886 136.388 87.886 135.94 87.886L136.444 87.676C136.444 87.676 136.174 87.676 135.726 87.676L136.234 87.466C136.234 87.466 135.964 87.466 135.516 87.466L136.024 87.256C136.024 87.256 135.754 87.256 135.304 87.256L135.812 87.044C135.812 87.044 135.542 87.044 135.092 87.044L135.6 86.832C135.6 86.832 135.332 86.832 134.888 86.832L135.392 86.624C135.392 86.624 135.116 86.624 134.666 86.624L135.18 86.412C135.18 86.412 134.912 86.412 134.466 86.412L134.97 86.202C134.97 86.202 134.7 86.202 134.25 86.202L134.76 85.99C134.76 85.99 134.488 85.99 134.038 85.99L134.548 85.778C134.548 85.778 134.276 85.778 133.828 85.778L134.336 85.568C134.336 85.568 134.066 85.568 133.618 85.568L134.126 85.358C134.126 85.358 133.856 85.358 133.406 85.358L133.914 85.146C133.914 85.146 133.646 85.146 133.198 85.146L133.702 84.938C133.702 84.938 133.432 84.938 132.986 84.938L133.494 84.726C133.494 84.726 133.224 84.726 132.774 84.726L133.282 84.514C133.282 84.514 133.012 84.514 132.564 84.514L133.072 84.304C133.072 84.304 132.802 84.304 132.354 84.304L132.862 84.094C132.862 84.094 132.59 84.094 132.142 84.094L132.65 83.882C132.65 83.882 132.378 83.882 131.93 83.882L132.438 83.67C132.438 83.67 132.17 83.67 131.724 83.67L132.228 83.462C132.228 83.462 131.954 83.462 131.506 83.462L132.018 83.248C132.018 83.248 131.75 83.248 131.3 83.248L131.804 83.04C131.804 83.04 131.534 83.04 131.088 83.04L131.596 82.828C131.596 82.828 131.326 82.828 130.876 82.828L131.384 82.616C131.384 82.616 131.114 82.616 130.666 82.616L131.174 82.406C131.174 82.406 130.904 82.406 130.456 82.406L130.964 82.196C130.964 82.196 130.694 82.196 130.244 82.196L130.752 81.984C130.752 81.984 130.486 81.984 130.04 81.984L130.544 81.776C130.544 81.776 130.27 81.776 129.82 81.776L130.332 81.562C130.332 81.562 130.064 81.562 129.616 81.562L130.12 81.352C130.12 81.352 129.85 81.352 129.402 81.352L129.91 81.142C129.91 81.142 129.64 81.142 129.19 81.142L129.698 80.932C129.698 80.932 129.428 80.932 128.978 80.932L129.486 80.72C129.486 80.72 129.216 80.72 128.768 80.72L129.276 80.508C129.276 80.508 129.01 80.508 128.562 80.508L129.066 80.298C129.066 80.298 128.796 80.298 128.342 80.298L128.856 80.086C128.856 80.086 128.588 80.086 128.142 80.086L128.646 79.878C128.646 79.878 128.376 79.878 127.926 79.878L128.434 79.666C128.434 79.666 128.164 79.666 127.714 79.666L128.222 79.454C128.222 79.454 127.952 79.454 127.504 79.454L128.012 79.244C128.012 79.244 127.742 79.244 127.294 79.244L127.802 79.034C127.802 79.034 127.532 79.034 127.088 79.034L127.592 78.824C127.592 78.824 127.322 78.824 126.87 78.824L127.378 78.614C127.378 78.614 127.108 78.614 126.66 78.614L127.17 78.402C127.17 78.402 126.898 78.402 126.448 78.402L126.958 78.19C126.958 78.19 126.688 78.19 126.24 78.19L126.748 77.98C126.748 77.98 126.478 77.98 126.028 77.98L126.536 77.768C126.536 77.768 126.266 77.768 125.816 77.768L126.324 77.556C126.324 77.556 126.058 77.556 125.61 77.556L126.114 77.348C126.114 77.348 125.844 77.348 125.396 77.348L125.904 77.136C125.904 77.136 125.634 77.136 125.186 77.136L125.694 76.926C125.694 76.926 125.424 76.926 124.976 76.926L125.484 76.716C125.484 76.716 125.212 76.716 124.764 76.716L125.272 76.504C125.272 76.504 125 76.504 124.552 76.504L125.06 76.292C125.06 76.292 124.79 76.292 124.342 76.292L124.85 76.082C124.85 76.082 124.58 76.082 124.132 76.082L124.64 75.872C124.64 75.872 124.37 75.872 123.922 75.872L124.43 75.66C124.43 75.66 124.16 75.66 123.714 75.66L124.218 75.45C124.218 75.45 123.946 75.45 123.494 75.45L124.006 75.238C124.006 75.238 123.736 75.238 123.292 75.238L123.796 75.028C123.796 75.028 123.526 75.028 123.078 75.028L123.586 74.818C123.586 74.818 123.316 74.818 122.866 74.818L123.374 74.606C123.374 74.606 123.104 74.606 122.658 74.606L123.166 74.394C123.166 74.394 122.896 74.394 122.444 74.394L122.952 74.184C122.952 74.184 122.682 74.184 122.238 74.184L122.742 73.974C122.742 73.974 122.47 73.974 122.02 73.974L122.532 73.762C122.532 73.762 122.262 73.762 121.818 73.762L122.322 73.554C122.322 73.554 122.05 73.554 121.6 73.554L122.11 73.342C122.11 73.342 121.838 73.342 121.39 73.342L121.898 73.13C121.898 73.13 121.628 73.13 121.18 73.13L121.688 72.92C121.688 72.92 121.418 72.92 120.968 72.92L121.476 72.708C121.476 72.708 121.21 72.708 120.764 72.708L121.268 72.5C121.268 72.5 120.998 72.5 120.548 72.5L121.056 72.288C121.056 72.288 120.786 72.288 120.336 72.288L120.844 72.076C120.844 72.076 120.574 72.076 120.126 72.076L120.634 71.866C120.634 71.866 120.364 71.866 119.916 71.866L120.424 71.656C120.424 71.656 120.154 71.656 119.708 71.656L120.212 71.446C120.212 71.446 119.94 71.446 119.486 71.446L120 71.232C120 71.232 119.734 71.232 119.288 71.232L119.792 71.024C119.792 71.024 119.52 71.024 119.07 71.024L119.58 70.812C119.58 70.812 119.308 70.812 118.862 70.812L119.37 70.602C119.37 70.602 119.1 70.602 118.65 70.602L119.158 70.392C119.158 70.392 118.888 70.392 118.438 70.392L118.946 70.18C118.946 70.18 118.676 70.18 118.23 70.18L118.738 69.968C118.738 69.968 118.468 69.968 118.018 69.968L118.526 69.758C118.526 69.758 118.256 69.758 117.808 69.758L118.316 69.546C118.316 69.546 118.048 69.546 117.598 69.546L118.102 69.338C118.102 69.338 117.832 69.338 117.386 69.338L117.894 69.126C117.894 69.126 117.624 69.126 117.174 69.126L117.682 68.914C117.682 68.914 117.412 68.914 116.964 68.914L117.472 68.704C117.472 68.704 117.202 68.704 116.754 68.704L117.262 68.494C117.262 68.494 116.99 68.494 116.54 68.494L117.05 68.282C117.05 68.282 116.778 68.282 116.332 68.282L116.842 68.07C116.842 68.07 116.57 68.07 116.12 68.07L116.63 67.86C116.63 67.86 116.362 67.86 115.914 67.86L116.418 67.65C116.418 67.65 116.148 67.65 115.7 67.65L116.208 67.44C116.208 67.44 115.938 67.44 115.488 67.44L115.996 67.228C115.996 67.228 115.726 67.228 115.276 67.228L115.784 67.016C115.784 67.016 115.514 67.016 115.066 67.016L115.574 66.806C115.574 66.806 115.304 66.806 114.856 66.806L115.364 66.596C115.364 66.596 115.092 66.596 114.644 66.596L115.152 66.384C115.152 66.384 114.88 66.384 114.436 66.384L114.944 66.172C114.944 66.172 114.674 66.172 114.228 66.172L114.732 65.964C114.732 65.964 114.46 65.964 114.012 65.964L114.52 65.752C114.52 65.752 114.25 65.752 113.802 65.752L114.31 65.542C114.31 65.542 114.04 65.542 113.59 65.542L114.098 65.332C114.098 65.332 113.828 65.332 113.382 65.332L113.89 65.12C113.89 65.12 113.62 65.12 113.174 65.12L113.678 64.91C113.678 64.91 113.406 64.91 112.954 64.91L113.466 64.696C113.466 64.696 113.196 64.696 112.748 64.696L113.254 64.484C113.254 64.484 112.984 64.484 112.538 64.484L113.046 64.272C113.046 64.272 112.776 64.272 112.328 64.272L112.834 64.06C112.834 64.06 112.562 64.06 112.114 64.06L112.622 63.846C112.622 63.846 112.352 63.846 111.904 63.846L112.412 63.634C112.412 63.634 112.142 63.634 111.694 63.634L112.202 63.422C112.202 63.422 111.932 63.422 111.488 63.422L111.992 63.212C111.992 63.212 111.718 63.212 111.268 63.212L111.778 62.998C111.778 62.998 111.508 62.998 111.06 62.998L111.57 62.786C111.57 62.786 111.298 62.786 110.852 62.786L111.358 62.574C111.358 62.574 111.088 62.574 110.64 62.574L111.148 62.362C111.148 62.362 110.878 62.362 110.43 62.362L110.78 62C110.78 62 110.508 62 110.06 62L110.568 61.786C110.568 61.786 110.302 61.786 109.856 61.786L110.36 61.576C110.36 61.576 110.09 61.576 109.64 61.576L110.148 61.364C110.148 61.364 109.878 61.364 109.43 61.364L109.938 61.152C109.938 61.152 109.664 61.152 109.216 61.152L109.724 60.938C109.724 60.938 109.456 60.938 109.01 60.938L109.516 60.726C109.516 60.726 109.244 60.726 108.796 60.726L109.304 60.514C109.304 60.514 109.034 60.514 108.588 60.514L109.094 60.302C109.094 60.302 108.82 60.302 108.372 60.302L108.884 60.088C108.884 60.088 108.614 60.088 108.166 60.088L108.674 59.876C108.674 59.876 108.404 59.876 107.956 59.876L108.462 59.664C108.462 59.664 108.192 59.664 107.742 59.664L108.25 59.452C108.25 59.452 107.98 59.452 107.532 59.452L108.04 59.24C108.04 59.24 107.77 59.24 107.322 59.24L107.83 59.028C107.83 59.028 107.56 59.028 107.114 59.028L107.618 58.818C107.618 58.818 107.346 58.818 106.894 58.818L107.406 58.604C107.406 58.604 107.136 58.604 106.69 58.604L107.196 58.392C107.196 58.392 106.926 58.392 106.478 58.392L106.986 58.18C106.986 58.18 106.716 58.18 106.27 58.18L106.776 57.968C106.776 57.968 106.506 57.968 106.056 57.968L106.566 57.756C106.566 57.756 106.294 57.756 105.844 57.756L106.354 57.544C106.354 57.544 106.082 57.544 105.634 57.544L106.142 57.332C106.142 57.332 105.874 57.332 105.428 57.332L105.932 57.122C105.932 57.122 105.658 57.122 105.206 57.122L105.72 56.908C105.72 56.908 105.45 56.908 105.004 56.908L105.512 56.696C105.512 56.696 105.242 56.696 104.796 56.696L105.3 56.486C105.3 56.486 105.03 56.486 104.58 56.486L105.088 56.274C105.088 56.274 104.818 56.274 104.37 56.274L104.878 56.062C104.878 56.062 104.608 56.062 104.16 56.062L104.668 55.85C104.668 55.85 104.396 55.85 103.95 55.85L104.456 55.638C104.456 55.638 104.184 55.638 103.736 55.638L104.244 55.426C104.244 55.426 103.976 55.426 103.53 55.426L104.036 55.214C104.036 55.214 103.76 55.214 103.31 55.214L103.824 55C103.824 55 103.554 55 103.11 55L103.614 54.79C103.614 54.79 103.344 54.79 102.894 54.79L103.402 54.578C103.402 54.578 103.132 54.578 102.682 54.578L103.19 54.366C103.19 54.366 102.92 54.366 102.472 54.366L102.98 54.154C102.98 54.154 102.71 54.154 102.262 54.154L102.77 53.942C102.77 53.942 102.5 53.942 102.054 53.942L102.56 53.73C102.56 53.73 102.288 53.73 101.838 53.73L102.35 53.516C102.35 53.516 102.08 53.516 101.632 53.516L102.138 53.304C102.138 53.304 101.866 53.304 101.418 53.304L101.926 53.092C101.926 53.092 101.656 53.092 101.21 53.092L101.716 52.88C101.716 52.88 101.446 52.88 100.996 52.88L101.506 52.666C101.506 52.666 101.236 52.666 100.784 52.666L101.294 52.454C101.294 52.454 101.022 52.454 100.574 52.454L101.082 52.242C101.082 52.242 100.814 52.242 100.368 52.242L100.872 52.032C100.872 52.032 100.602 52.032 100.152 52.032L100.662 51.818C100.662 51.818 100.392 51.818 99.9443 51.818L100.452 51.606C100.452 51.606 100.182 51.606 99.7323 51.606L100.24 51.394C100.24 51.394 99.9723 51.394 99.5243 51.394L100.032 51.182C100.032 51.182 99.7583 51.182 99.3103 51.182L99.8183 50.97C99.8183 50.97 99.5463 50.97 99.0963 50.97L99.6083 50.756C99.6083 50.756 99.3383 50.756 98.8923 50.756L99.3963 50.546C99.3963 50.546 99.1243 50.546 98.6803 50.546L99.1883 50.334C99.1883 50.334 98.9163 50.334 98.4683 50.334L98.9763 50.122C98.9763 50.122 98.7043 50.122 98.2563 50.122L98.7643 49.91C98.7643 49.91 98.4943 49.91 98.0463 49.91L98.5543 49.698C98.5543 49.698 98.2843 49.698 97.8343 49.698L98.3423 49.486C98.3423 49.486 98.0743 49.486 97.6263 49.486L98.1343 49.274C98.1343 49.274 97.8643 49.274 97.4123 49.274L97.9203 49.062C97.9203 49.062 97.6503 49.062 97.2023 49.062L97.7103 48.85C97.7103 48.85 97.4403 48.85 96.9943 48.85L97.5003 48.638C97.5003 48.638 97.2303 48.638 96.7823 48.638L97.2903 48.426C97.2903 48.426 97.0203 48.426 96.5703 48.426L97.0783 48.214C97.0783 48.214 96.8083 48.214 96.3583 48.214L96.8663 48.002C96.8663 48.002 96.5963 48.002 96.1483 48.002L96.6563 47.79C96.6563 47.79 96.3863 47.79 95.9423 47.79L96.4463 47.578C96.4463 47.578 96.1763 47.578 95.7303 47.578L96.2363 47.366C96.2363 47.366 95.9623 47.366 95.5143 47.366L96.0263 47.152C96.0263 47.152 95.7563 47.152 95.3083 47.152L95.8123 46.94C95.8123 46.94 95.5423 46.94 95.0943 46.94L95.6023 46.728C95.6023 46.728 95.3323 46.728 94.8843 46.728L95.3923 46.516C95.3923 46.516 95.1223 46.516 94.6723 46.516L95.1803 46.304C95.1803 46.304 94.9103 46.304 94.4603 46.304L94.9683 46.092C94.9683 46.092 94.7023 46.092 94.2543 46.092L94.7603 45.88C94.7603 45.88 94.4903 45.88 94.0443 45.88L94.5483 45.668C94.5483 45.668 94.2783 45.668 93.8303 45.668L94.3383 45.456C94.3383 45.456 94.0683 45.456 93.6203 45.456L94.1283 45.244C94.1283 45.244 93.8583 45.244 93.4103 45.244L93.9163 45.032C93.9163 45.032 93.6443 45.032 93.1943 45.032L93.7043 44.818C93.7043 44.818 93.4343 44.818 92.9863 44.818L93.4943 44.606C93.4943 44.606 93.2243 44.606 92.7723 44.606L93.2823 44.392C93.2823 44.392 93.0143 44.392 92.5703 44.392L93.0743 44.182C93.0743 44.182 92.8003 44.182 92.3523 44.182L92.8623 43.968C92.8623 43.968 92.5923 43.968 92.1463 43.968L92.6503 43.756C92.6503 43.756 92.3803 43.756 91.9323 43.756L92.4403 43.544C92.4403 43.544 92.1703 43.544 91.7223 43.544L92.2303 43.332C92.2303 43.332 91.9563 43.332 91.5083 43.332L92.0183 43.118C92.0183 43.118 91.7483 43.118 91.3023 43.118L91.8063 42.906C91.8063 42.906 91.5363 42.906 91.0883 42.906L91.5963 42.694C91.5963 42.694 91.3263 42.694 90.8823 42.694L91.3863 42.482C91.3863 42.482 91.1163 42.482 90.6683 42.482L91.1763 42.27C91.1763 42.27 90.9063 42.27 90.4563 42.27L90.9663 42.058C90.9663 42.058 90.6943 42.058 90.2483 42.058L90.7543 41.846C90.7543 41.846 90.4823 41.846 90.0363 41.846L90.5443 41.634C90.5443 41.634 90.2723 41.634 89.8243 41.634L90.3323 41.422C90.3323 41.422 90.0623 41.422 89.6143 41.422L90.1223 41.21C90.1223 41.21 89.8503 41.21 89.4003 41.21L89.9083 40.998C89.9083 40.998 89.6423 40.998 89.1943 40.998L89.7003 40.786C89.7003 40.786 89.4303 40.786 88.9803 40.786L89.4883 40.574C89.4883 40.574 89.2183 40.574 88.7703 40.574L89.2783 40.362C89.2783 40.362 89.0083 40.362 88.5603 40.362L89.0683 40.15C89.0683 40.15 88.7963 40.15 88.3503 40.15L88.8563 39.938C88.8563 39.938 88.5843 39.938 88.1363 39.938L88.6483 39.724C88.6483 39.724 88.3743 39.724 87.9263 39.724L88.4343 39.512C88.4343 39.512 88.1643 39.512 87.7163 39.512L88.2243 39.3C88.2243 39.3 87.9563 39.3 87.5063 39.3L88.0143 39.088C88.0143 39.088 87.7443 39.088 87.2943 39.088L87.8023 38.876C87.8023 38.876 87.5323 38.876 87.0823 38.876L87.5903 38.664C87.5903 38.664 87.3243 38.664 86.8763 38.664L87.3823 38.452C87.3823 38.452 87.1123 38.452 86.6623 38.452L87.1703 38.24C87.1703 38.24 86.9003 38.24 86.4523 38.24L86.9603 38.028C86.9603 38.028 86.6903 38.028 86.2423 38.028L86.7503 37.816C86.7503 37.816 86.4783 37.816 86.0303 37.816L86.5383 37.604C86.5383 37.604 86.2663 37.604 85.8223 37.604L86.3263 37.392C86.3263 37.392 86.0563 37.392 85.6103 37.392L86.1163 37.18C86.1163 37.18 85.8463 37.18 85.3943 37.18L85.9063 36.966C85.9063 36.966 85.6363 36.966 85.1883 36.966L85.6943 36.756C85.6943 36.756 85.4223 36.756 84.9743 36.756L85.4843 36.542C85.4843 36.542 85.2143 36.542 84.7683 36.542L85.2723 36.33C85.2723 36.33 85.0023 36.33 84.5523 36.33L85.0623 36.116C85.0623 36.116 84.7923 36.116 84.3443 36.116L84.8523 35.904C84.8523 35.904 84.5823 35.904 84.1323 35.904L84.6403 35.692C84.6403 35.692 84.3703 35.692 83.9243 35.692L84.4283 35.48C84.4283 35.48 84.1563 35.48 83.7083 35.48L84.2183 35.266C84.2183 35.266 83.9523 35.266 83.5043 35.266L84.0083 35.056C84.0083 35.056 83.7363 35.056 83.2883 35.056L83.7983 34.842C83.7983 34.842 83.5283 34.842 83.0803 34.842L83.5883 34.63C83.5883 34.63 83.3163 34.63 82.8663 34.63L83.3763 34.418C83.3763 34.418 83.1043 34.418 82.6563 34.418L82.7743 34C82.7743 34 68.6483 34 64.0023 34C55.6723 34 48.0023 40.69 48.0023 48C48.0023 51.76 49.4503 55.058 51.9643 57.408C52.0363 57.476 52.1023 57.55 52.1743 57.616C52.2463 57.686 52.3123 57.76 52.3863 57.828C52.4583 57.898 52.5243 57.972 52.5983 58.04C52.6723 58.112 52.7403 58.186 52.8163 58.256C52.8863 58.326 52.9523 58.398 53.0263 58.466C53.0983 58.536 53.1663 58.61 53.2403 58.68C53.3123 58.75 53.3783 58.822 53.4503 58.89C53.5203 58.958 53.5843 59.03 53.6583 59.098C53.7343 59.172 53.8043 59.248 53.8803 59.32C53.9503 59.388 54.0143 59.46 54.0863 59.528C54.1603 59.6 54.2283 59.674 54.3023 59.744C54.3723 59.814 54.4383 59.886 54.5103 59.952C54.5843 60.024 54.6543 60.1 54.7303 60.17C54.8003 60.238 54.8663 60.31 54.9363 60.378C55.0083 60.448 55.0763 60.522 55.1503 60.592C55.2223 60.662 55.2903 60.736 55.3643 60.806C55.4343 60.874 55.5003 60.946 55.5723 61.014C55.6463 61.086 55.7143 61.162 55.7883 61.232C55.8603 61.302 55.9283 61.376 56.0003 61.444C56.0723 61.514 56.1403 61.588 56.2143 61.658C56.2863 61.728 56.3543 61.802 56.4263 61.87C56.4963 61.94 56.5623 62.012 56.6363 62.08C56.7083 62.15 56.7743 62.224 56.8483 62.292C56.9203 62.362 56.9883 62.436 57.0623 62.506C57.1363 62.578 57.2043 62.652 57.2803 62.722C57.3503 62.79 57.4163 62.862 57.4883 62.93C57.5603 63 57.6263 63.074 57.7003 63.142C57.7723 63.212 57.8383 63.286 57.9123 63.354C57.9843 63.426 58.0523 63.5 58.1263 63.568C58.1983 63.638 58.2643 63.712 58.3363 63.778C58.4103 63.85 58.4783 63.924 58.5523 63.994C58.6223 64.062 58.6863 64.134 58.7583 64.202C58.8303 64.272 58.8983 64.348 58.9743 64.416C59.0463 64.488 59.1143 64.562 59.1903 64.63C59.2603 64.7 59.3263 64.772 59.4003 64.84C59.4703 64.908 59.5363 64.98 59.6083 65.048C59.6823 65.122 59.7523 65.196 59.8283 65.266C59.8963 65.334 59.9623 65.406 60.0323 65.474C60.1063 65.548 60.1763 65.622 60.2523 65.692C60.3243 65.762 60.3903 65.834 60.4623 65.902C60.5343 65.972 60.6003 66.042 60.6723 66.112C60.7443 66.18 60.8103 66.252 60.8843 66.322C60.9563 66.392 61.0243 66.466 61.0983 66.532C61.1683 66.6 61.2343 66.674 61.3063 66.74C61.3783 66.81 61.4463 66.882 61.5203 66.952C61.5923 67.022 61.6623 67.098 61.7363 67.166C61.8083 67.236 61.8763 67.31 61.9483 67.376C62.0203 67.446 62.0863 67.52 62.1583 67.586C62.2303 67.656 62.2963 67.728 62.3703 67.796C62.4423 67.866 62.5083 67.94 62.5823 68.008C62.6543 68.078 62.7203 68.15 62.7943 68.216C62.8663 68.29 62.9343 68.364 63.0083 68.43C63.0803 68.5 63.1463 68.572 63.2203 68.642C63.2923 68.71 63.3563 68.78 63.4283 68.85C63.5043 68.92 63.5743 68.996 63.6503 69.068C63.7183 69.136 63.7823 69.204 63.8543 69.272C63.9283 69.346 63.9983 69.422 64.0743 69.492C64.1423 69.558 64.2063 69.63 64.2783 69.698C64.3523 69.772 64.4223 69.846 64.5003 69.918C64.5143 69.932 64.5283 69.948 64.5423 69.962C63.6523 69.962 62.6923 69.962 61.9883 69.962C51.6703 69.962 43.9883 75.148 43.9883 81.962C43.9883 84.118 45.0063 86.126 46.7183 87.864C46.7883 87.938 46.8663 88.012 46.9403 88.084C47.0063 88.152 47.0783 88.218 47.1463 88.29C47.2163 88.364 47.2923 88.434 47.3643 88.508C47.4323 88.578 47.5043 88.646 47.5743 88.716C47.6443 88.788 47.7183 88.858 47.7903 88.928C47.8563 88.998 47.9283 89.064 47.9963 89.136C48.0643 89.21 48.1403 89.28 48.2103 89.35C48.2783 89.424 48.3523 89.49 48.4223 89.562C48.4903 89.634 48.5643 89.7 48.6323 89.77C48.7003 89.844 48.7743 89.912 48.8443 89.982C48.9123 90.056 48.9883 90.126 49.0603 90.198C49.1303 90.272 49.2063 90.342 49.2783 90.412C49.3443 90.48 49.4143 90.546 49.4823 90.616C49.5523 90.69 49.6283 90.76 49.7023 90.834C49.7683 90.904 49.8403 90.97 49.9083 91.042C49.9763 91.114 50.0503 91.18 50.1203 91.254C50.1883 91.324 50.2623 91.392 50.3303 91.462C50.4023 91.538 50.4803 91.612 50.5543 91.686C50.6183 91.752 50.6883 91.816 50.7543 91.886C50.8243 91.96 50.9003 92.03 50.9743 92.104C51.0423 92.174 51.1163 92.242 51.1863 92.312C51.2543 92.384 51.3263 92.452 51.3963 92.524C51.4643 92.594 51.5403 92.664 51.6103 92.736C51.6783 92.806 51.7523 92.876 51.8223 92.944C51.8883 93.014 51.9623 93.084 52.0303 93.152C52.1003 93.226 52.1763 93.296 52.2483 93.37C52.3143 93.438 52.3883 93.508 52.4583 93.578C52.5263 93.648 52.6023 93.718 52.6723 93.79C52.7403 93.862 52.8143 93.928 52.8843 93.998C52.9523 94.07 53.0263 94.14 53.0963 94.21C53.1643 94.282 53.2383 94.348 53.3063 94.418C53.3763 94.492 53.4543 94.564 53.5263 94.638C53.5903 94.706 53.6623 94.768 53.7283 94.84C53.7983 94.914 53.8743 94.986 53.9463 95.058C54.0163 95.132 54.0923 95.202 54.1623 95.272C54.2263 95.342 54.2963 95.404 54.3623 95.474C54.4343 95.55 54.5123 95.622 54.5843 95.698C54.6503 95.768 54.7243 95.834 54.7923 95.906C54.8643 95.98 54.9403 96.052 55.0143 96.126C55.0783 96.194 55.1503 96.26 55.2163 96.328C55.2863 96.406 55.3623 96.474 55.4363 96.548C55.5023 96.618 55.5763 96.686 55.6443 96.756C55.7123 96.826 55.7883 96.896 55.8603 96.968C55.9263 97.038 55.9983 97.106 56.0683 97.176C56.1363 97.246 56.2103 97.316 56.2803 97.386C56.3483 97.458 56.4243 97.528 56.4943 97.6C56.5623 97.67 56.6363 97.74 56.7063 97.81C56.7763 97.882 56.8503 97.952 56.9223 98.024C56.9883 98.094 57.0603 98.16 57.1283 98.23C57.1983 98.306 57.2743 98.376 57.3463 98.45C57.4143 98.52 57.4863 98.586 57.5563 98.658C57.6223 98.728 57.6943 98.796 57.7643 98.866C57.8323 98.938 57.9083 99.008 57.9783 99.078C58.0483 99.152 58.1243 99.222 58.1943 99.294C58.2623 99.366 58.3383 99.436 58.4103 99.506C58.4763 99.576 58.5463 99.642 58.6143 99.712C58.6843 99.786 58.7603 99.858 58.8323 99.928C58.8983 99.998 58.9703 100.068 59.0403 100.136C59.1103 100.21 59.1883 100.282 59.2603 100.356C59.3263 100.426 59.3983 100.492 59.4663 100.564C59.5343 100.634 59.6083 100.702 59.6783 100.772C59.7483 100.844 59.8243 100.918 59.8963 100.988C59.9643 101.062 60.0383 101.128 60.1083 101.198C60.1743 101.27 60.2483 101.334 60.3163 101.406C60.3843 101.48 60.4583 101.548 60.5283 101.618C60.5963 101.692 60.6723 101.76 60.7443 101.834C60.8103 101.904 60.8823 101.97 60.9523 102.042C61.0203 102.114 61.0943 102.184 61.1663 102.252C61.2363 102.326 61.3123 102.396 61.3823 102.468C61.4483 102.538 61.5203 102.604 61.5883 102.676C61.6583 102.75 61.7343 102.82 61.8043 102.89C61.8743 102.964 61.9503 103.034 62.0203 103.106C62.0863 103.174 62.1563 103.24 62.2243 103.312C62.2943 103.382 62.3703 103.454 62.4423 103.526C62.5123 103.6 62.5863 103.67 62.6583 103.74C62.7243 103.81 62.7943 103.874 62.8643 103.948C62.9343 104.022 63.0123 104.096 63.0863 104.17C63.1523 104.236 63.2243 104.302 63.2923 104.374C63.3603 104.446 63.4343 104.516 63.5043 104.584C63.5723 104.658 63.6463 104.728 63.7163 104.798C63.7863 104.872 63.8623 104.942 63.9343 105.016C63.9983 105.082 64.0703 105.148 64.1363 105.22C64.2043 105.29 64.2803 105.36 64.3503 105.432C64.4203 105.504 64.4983 105.578 64.5703 105.652C64.6363 105.722 64.7103 105.788 64.7783 105.86C64.8483 105.934 64.9243 106.004 64.9963 106.078C65.0623 106.148 65.1363 106.214 65.2043 106.286C65.2703 106.358 65.3443 106.426 65.4143 106.496C65.4803 106.566 65.5503 106.632 65.6223 106.704C65.6963 106.782 65.7783 106.856 65.8523 106.934C65.9143 107 65.9823 107.06 66.0483 107.126C66.1183 107.204 66.1963 107.276 66.2703 107.352C66.3363 107.422 66.4103 107.488 66.4783 107.56C66.5423 107.63 66.6163 107.698 66.6863 107.768C66.7563 107.842 66.8343 107.914 66.9063 107.988C66.9723 108.058 67.0423 108.122 67.1143 108.196C67.1843 108.27 67.2603 108.34 67.3323 108.414C67.3963 108.48 67.4683 108.546 67.5363 108.618C67.6063 108.692 67.6823 108.762 67.7543 108.836C67.8223 108.906 67.8963 108.976 67.9683 109.048C68.0303 109.118 68.1043 109.184 68.1763 109.256C68.2463 109.33 68.3243 109.404 68.3983 109.478C68.4603 109.546 68.5343 109.612 68.6063 109.684C68.6723 109.754 68.7443 109.822 68.8143 109.892C68.8823 109.962 68.9563 110.034 69.0303 110.106C69.0963 110.18 69.1723 110.25 69.2443 110.32C69.3083 110.39 69.3763 110.454 69.4483 110.524C69.5223 110.602 69.5983 110.674 69.6723 110.75C69.7363 110.816 69.8023 110.882 69.8743 110.948C69.9443 111.026 70.0223 111.1 70.0983 111.176C70.1643 111.246 70.2363 111.312 70.3063 111.384C70.3683 111.452 70.4423 111.518 70.5123 111.592C70.5843 111.666 70.6623 111.74 70.7383 111.818C70.8023 111.884 70.8723 111.948 70.9403 112.018C71.0103 112.092 71.0863 112.162 71.1583 112.236C71.2263 112.31 71.2983 112.376 71.3683 112.446C71.4343 112.518 71.5083 112.582 71.5763 112.654C71.6423 112.724 71.7143 112.792 71.7843 112.862C71.8543 112.94 71.9323 113.014 72.0083 113.09C72.0723 113.156 72.1443 113.222 72.2143 113.294C72.2843 113.368 72.3583 113.438 72.4323 113.51C72.4963 113.578 72.5683 113.648 72.6403 113.718C72.7063 113.788 72.7803 113.856 72.8503 113.926C72.9183 114.002 72.9943 114.072 73.0683 114.146C73.1343 114.216 73.2043 114.282 73.2763 114.354C73.3443 114.428 73.4183 114.498 73.4903 114.568C73.5563 114.638 73.6263 114.704 73.6983 114.776C73.7683 114.85 73.8443 114.922 73.9163 114.994C73.9843 115.068 74.0603 115.138 74.1303 115.208C74.1963 115.278 74.2703 115.346 74.3383 115.416C74.4043 115.488 74.4783 115.554 74.5463 115.624C74.6123 115.694 74.6823 115.762 74.7543 115.832C74.8263 115.906 74.9043 115.98 74.9803 116.058C75.0463 116.128 75.1163 116.192 75.1883 116.264C75.2543 116.336 75.3283 116.402 75.3983 116.472C75.4643 116.546 75.5423 116.616 75.6123 116.686C75.6743 116.756 75.7463 116.822 75.8163 116.894C75.8883 116.968 75.9643 117.04 76.0383 117.116C76.1043 117.186 76.1763 117.254 76.2463 117.324C76.3143 117.398 76.3883 117.468 76.4583 117.536C76.5203 117.606 76.5943 117.672 76.6643 117.742C76.7363 117.82 76.8143 117.894 76.8903 117.972C76.9543 118.038 77.0243 118.104 77.0963 118.176C77.1623 118.248 77.2363 118.316 77.3043 118.386C77.3723 118.46 77.4503 118.53 77.5243 118.604C77.5863 118.672 77.6563 118.736 77.7263 118.808C77.7983 118.882 77.8763 118.956 77.9503 119.032C78.0123 119.098 78.0823 119.164 78.1523 119.234C78.2223 119.308 78.2983 119.378 78.3683 119.45C78.4383 119.524 78.5163 119.596 78.5883 119.67C78.6503 119.736 78.7203 119.798 78.7863 119.866C78.8603 119.944 78.9383 120.02 79.0163 120.096C79.0783 120.164 79.1503 120.228 79.2203 120.3C79.2863 120.372 79.3603 120.44 79.4343 120.512C79.5003 120.584 79.5743 120.654 79.6443 120.724C79.7103 120.794 79.7843 120.864 79.8543 120.934C79.9223 121.006 79.9963 121.074 80.0663 121.144C80.1343 121.218 80.2083 121.288 80.2783 121.358C80.3443 121.428 80.4163 121.494 80.4863 121.566C80.5543 121.64 80.6283 121.71 80.6983 121.778C80.7643 121.852 80.8383 121.92 80.9103 121.99C80.9783 122.064 81.0523 122.134 81.1223 122.204C81.1883 122.274 81.2623 122.344 81.3323 122.414C81.3963 122.484 81.4683 122.55 81.5403 122.622C81.6143 122.7 81.6963 122.778 81.7743 122.856C81.8323 122.92 81.9003 122.982 81.9663 123.048C82.0323 123.118 82.1103 123.19 82.1803 123.262C82.2483 123.336 82.3223 123.402 82.3943 123.476C82.4623 123.546 82.5343 123.616 82.6043 123.686C82.6743 123.758 82.7463 123.828 82.8163 123.896C82.8823 123.966 82.9543 124.036 83.0243 124.104C83.0943 124.18 83.1723 124.252 83.2463 124.328C83.3103 124.394 83.3823 124.46 83.4543 124.532C83.5203 124.604 83.5943 124.672 83.6623 124.744C83.7303 124.816 83.8063 124.886 83.8763 124.956C83.9443 125.026 84.0183 125.096 84.0883 125.166C84.1543 125.238 84.2283 125.306 84.2983 125.376C84.3643 125.45 84.4383 125.516 84.5083 125.586C84.5743 125.66 84.6483 125.73 84.7203 125.8C84.7883 125.87 84.8623 125.94 84.9323 126.01C84.9983 126.08 85.0683 126.148 85.1403 126.218C85.2103 126.292 85.2863 126.366 85.3583 126.438C85.4243 126.508 85.4983 126.576 85.5663 126.646C85.6343 126.716 85.7083 126.786 85.7783 126.856C85.8403 126.926 85.9143 126.992 85.9843 127.064C86.0563 127.142 86.1383 127.216 86.2143 127.294C86.2743 127.36 86.3443 127.424 86.4123 127.494C86.4823 127.566 86.5583 127.638 86.6303 127.708C86.6963 127.782 86.7703 127.846 86.8383 127.916C86.9063 127.99 86.9803 128.058 87.0523 128.128C87.1203 128.202 87.1923 128.27 87.2623 128.34C87.3283 128.41 87.3983 128.476 87.4703 128.546C87.5423 128.624 87.6203 128.698 87.6963 128.776C87.7583 128.842 87.8283 128.906 87.8983 128.976C87.9683 129.05 88.0463 129.124 88.1183 129.198C88.1843 129.268 88.2583 129.334 88.3283 129.406C88.3923 129.476 88.4663 129.542 88.5363 129.614C88.6023 129.688 88.6763 129.756 88.7503 129.828C88.8143 129.9 88.8863 129.964 88.9583 130.036C89.0243 130.11 89.0983 130.178 89.1683 130.248C89.2423 130.324 89.3163 130.396 89.3903 130.468C89.4543 130.538 89.5263 130.604 89.5983 130.676C89.6683 130.75 89.7423 130.82 89.8143 130.89C89.8803 130.96 89.9523 131.03 90.0223 131.098C90.0883 131.172 90.1623 131.24 90.2343 131.312C90.2983 131.38 90.3703 131.45 90.4403 131.52C90.5103 131.594 90.5883 131.666 90.6583 131.738C90.7283 131.812 90.8043 131.884 90.8763 131.954C90.9383 132.024 91.0123 132.088 91.0803 132.16C91.1503 132.234 91.2283 132.306 91.3003 132.38C91.3663 132.45 91.4383 132.514 91.5083 132.586C91.5743 132.66 91.6483 132.728 91.7203 132.798C91.7883 132.872 91.8623 132.942 91.9323 133.01C91.9943 133.08 92.0663 133.146 92.1383 133.218C92.2103 133.292 92.2863 133.366 92.3603 133.44C92.4243 133.508 92.4943 133.574 92.5663 133.646C92.6363 133.722 92.7143 133.792 92.7883 133.866C92.8543 133.936 92.9243 134.002 92.9963 134.074C93.0643 134.146 93.1383 134.214 93.2083 134.284C93.2763 134.358 93.3503 134.426 93.4203 134.496C93.4863 134.568 93.5603 134.638 93.6303 134.708C93.6983 134.782 93.7743 134.852 93.8443 134.922C93.9063 134.99 93.9783 135.056 94.0483 135.126C94.1183 135.2 94.1963 135.274 94.2703 135.348C94.3363 135.418 94.4063 135.486 94.4783 135.556C94.5463 135.628 94.6203 135.698 94.6903 135.768C94.7583 135.838 94.8323 135.908 94.9023 135.978C94.9683 136.048 95.0423 136.118 95.1123 136.188C95.1783 136.26 95.2523 136.33 95.3223 136.4C95.3863 136.47 95.4583 136.534 95.5303 136.608C95.6023 136.682 95.6783 136.754 95.7523 136.83C95.8183 136.9 95.8923 136.968 95.9623 137.038C96.0283 137.108 96.0983 137.176 96.1703 137.246C96.2403 137.32 96.3123 137.39 96.3843 137.458C96.4523 137.532 96.5263 137.602 96.5943 137.67C96.6643 137.744 96.7383 137.812 96.8083 137.884C96.8763 137.956 96.9503 138.022 97.0203 138.096C97.0843 138.162 97.1543 138.228 97.2223 138.3C97.2943 138.374 97.3723 138.448 97.4463 138.522C97.5103 138.592 97.5843 138.66 97.6543 138.73C97.7203 138.802 97.7943 138.872 97.8643 138.942C97.9303 139.012 98.0043 139.082 98.0743 139.152C98.1443 139.224 98.2163 139.294 98.2863 139.362C98.3543 139.436 98.4283 139.506 98.4983 139.574C98.5603 139.644 98.6323 139.712 98.7043 139.782C98.7783 139.86 98.8583 139.934 98.9343 140.012C98.9943 140.076 99.0643 140.138 99.1303 140.204C99.2003 140.278 99.2763 140.352 99.3483 140.422C99.4163 140.494 99.4903 140.564 99.5603 140.634C99.6263 140.706 99.7003 140.776 99.7703 140.846C99.8363 140.916 99.9103 140.986 99.9803 141.056C100.046 141.128 100.12 141.196 100.188 141.266C100.256 141.34 100.334 141.408 100.404 141.48C100.47 141.552 100.542 141.62 100.612 141.69C100.68 141.76 100.754 141.83 100.824 141.898C100.89 141.97 100.964 142.04 101.034 142.11C101.102 142.18 101.176 142.25 101.244 142.32C101.314 142.392 101.388 142.462 101.456 142.532C101.52 142.6 101.592 142.666 101.662 142.74C101.736 142.816 101.814 142.89 101.892 142.966C101.954 143.034 102.024 143.098 102.092 143.166C102.158 143.24 102.236 143.308 102.306 143.38C102.374 143.452 102.448 143.52 102.518 143.59C102.586 143.664 102.66 143.732 102.73 143.802C102.796 143.874 102.87 143.944 102.94 144.014C103.004 144.084 103.076 144.148 103.144 144.22C103.218 144.3 103.3 144.376 103.378 144.454C103.44 144.518 103.508 144.58 103.574 144.646C103.644 144.72 103.718 144.792 103.79 144.864C103.858 144.936 103.932 145.006 104.002 145.076C104.068 145.146 104.142 145.216 104.212 145.286C104.28 145.358 104.354 145.426 104.424 145.496C104.488 145.566 104.562 145.634 104.632 145.704C104.702 145.782 104.78 145.854 104.854 145.928C104.918 145.998 104.99 146.062 105.058 146.132C105.124 146.204 105.196 146.27 105.266 146.34C105.338 146.418 105.418 146.492 105.49 146.566C105.556 146.636 105.63 146.702 105.698 146.774C105.766 146.846 105.84 146.914 105.91 146.984C105.976 147.056 106.05 147.126 106.12 147.196C106.188 147.27 106.264 147.338 106.334 147.412C106.4 147.478 106.47 147.546 106.542 147.618C106.61 147.692 106.686 147.76 106.758 147.834C106.822 147.904 106.896 147.97 106.966 148.042C107.032 148.116 107.106 148.186 107.178 148.256C107.246 148.326 107.32 148.396 107.39 148.466C107.456 148.538 107.53 148.608 107.6 148.676C107.668 148.75 107.742 148.82 107.814 148.89C107.88 148.96 107.95 149.028 108.022 149.098C108.092 149.172 108.168 149.246 108.24 149.32C108.306 149.386 108.376 149.454 108.448 149.526C108.516 149.598 108.59 149.668 108.662 149.738C108.728 149.81 108.802 149.88 108.872 149.95C108.94 150.022 109.014 150.092 109.084 150.162C109.152 150.232 109.226 150.302 109.296 150.372C109.362 150.446 109.438 150.516 109.51 150.586C109.574 150.656 109.642 150.72 109.714 150.79C109.784 150.866 109.858 150.938 109.932 151.012C109.998 151.082 110.072 151.148 110.142 151.22C110.208 151.292 110.282 151.362 110.352 151.432C113.998 155.34 120.85 157.872 127.984 157.872C139.824 158 148 152 148 144C148 141.254 146.668 139.09 144.714 137.166Z" fill="url(#paint1_linear)"/>
<path d="M73.9981 68C73.9981 68 69.9981 65.7 69.9981 64C69.9981 64 69.0021 60.344 71.9981 58C75.0721 55.6 77.9981 51.93 77.9981 48C77.9981 43.328 75.9081 38 71.9981 36H77.9981L82.7721 34C82.7721 34 68.6461 34 64.0001 34C55.6701 34 48.0001 40.69 48.0001 48C48.0001 55.47 53.6981 61.122 62.1721 61.122C62.7621 61.122 63.3341 61.11 63.8941 61.072C63.3461 62.122 62.9481 63.31 62.9481 64.54C62.9481 66.614 64.5841 68.624 65.9961 70C64.9281 70 63.1201 70 61.9961 70C51.6781 70 43.9961 75.186 43.9961 82C43.9961 88.71 53.7401 94 64.0581 94C75.8221 94 83.9981 88 83.9981 80C83.9981 74.622 78.9081 71.472 73.9981 68ZM65.9981 60C61.2061 60 54.8261 54.286 53.9981 48C53.1721 41.712 57.2101 35.858 61.9981 36C66.7881 36.142 71.2061 41.816 72.0341 48.104C72.8581 54.39 69.9981 60 65.9981 60ZM63.9981 90C56.8661 90 49.9981 87.422 49.9981 82C49.9981 76.684 56.8661 71.924 63.9981 72C65.6621 72.018 67.9981 72 67.9981 72C69.9981 72 73.7601 73.762 75.9981 76C77.9981 78 77.9981 81.348 77.9981 82C77.9981 88 74.0301 90 63.9981 90Z" fill="white"/>
</g>
<defs>
<linearGradient id="paint0_linear" x1="128.06" y1="127.997" x2="64.0596" y2="63.997" gradientUnits="userSpaceOnUse">
<stop offset="0.3163" stop-color="white" stop-opacity="0"/>
<stop offset="0.3508" stop-color="#E9E9E9" stop-opacity="0.0504"/>
<stop offset="0.4543" stop-color="#ACACAC" stop-opacity="0.2018"/>
<stop offset="0.5572" stop-color="#787878" stop-opacity="0.3523"/>
<stop offset="0.6569" stop-color="#4D4D4D" stop-opacity="0.4981"/>
<stop offset="0.7528" stop-color="#2B2B2B" stop-opacity="0.6385"/>
<stop offset="0.8441" stop-color="#131313" stop-opacity="0.7719"/>
<stop offset="0.9286" stop-color="#050505" stop-opacity="0.8956"/>
<stop offset="1"/>
</linearGradient>
<linearGradient id="paint1_linear" x1="150.295" y1="146.457" x2="47.4613" y2="43.623" gradientUnits="userSpaceOnUse">
<stop offset="0.5663" stop-opacity="0"/>
<stop offset="0.5836" stop-opacity="0.0398"/>
<stop offset="1"/>
</linearGradient>
<clipPath id="clip0">
<rect width="128" height="128" fill="white"/>
</clipPath>
</defs>
</svg>
