<svg width="21" height="24" viewBox="0 0 21 24" fill="none" xmlns="http://www.w3.org/2000/svg">
<g clip-path="url(#clip0)">
<g opacity="0.9">
<g opacity="0.9">
<path opacity="0.9" fill-rule="evenodd" clip-rule="evenodd" d="M10.5068 1.37384C7.00684 1.37384 3.90684 3.39296 2.30684 6.47478L0.00683594 4.03058V10.9381H6.50684L3.70684 7.96256C5.00684 5.30582 7.50684 3.49923 10.5068 3.49923C14.6068 3.49923 18.0068 7.1124 18.0068 11.4695C18.0068 15.8265 14.6068 19.4397 10.5068 19.4397C7.20684 19.4397 4.50684 17.208 3.40684 14.1262H1.30684C2.40684 18.377 6.10684 21.5651 10.5068 21.5651C15.8068 21.5651 20.0068 16.9955 20.0068 11.4695C20.0068 5.94343 15.7068 1.37384 10.5068 1.37384ZM9.00684 6.68732V12.1071L13.7068 15.0826L14.5068 13.7011L10.5068 11.1506V6.68732H9.00684Z" fill="white"/>
</g>
</g>
</g>
<defs>
<clipPath id="clip0">
<rect width="20" height="22.3166" fill="white" transform="translate(0.00683594 0.843262)"/>
</clipPath>
</defs>
</svg>
