<svg width="103" height="51" viewBox="0 0 103 51" fill="none" xmlns="http://www.w3.org/2000/svg">
<g clip-path="url(#clip0)">
<path d="M7.05375 0.0118561H0.119141V6.30155H7.05375V0.0118561Z" fill="white"/>
<path d="M17.1827 0.0129395H10.248V6.30264H17.1827V0.0129395Z" fill="#578FCB"/>
<path d="M17.2051 9.46365H10.2705V15.7533H17.2051V9.46365Z" fill="white"/>
<path d="M27.294 9.50462H20.3594V15.7943H27.294V9.50462Z" fill="#578FCB"/>
<path d="M17.202 19.3726V25.6623C17.202 27.1242 17.4426 28.0945 17.9237 28.5731C18.4048 29.0518 19.3714 29.293 20.8234 29.2966H25.4694V35.5863H19.1738C15.8173 35.5863 13.447 34.7381 12.0631 33.0419C10.8459 31.5326 10.2373 29.0705 10.2373 25.6558L10.2727 19.3726H17.2074H17.202Z" fill="white"/>
<path d="M7.63914 23.0338C7.17196 21.5654 7.10752 20.3191 7.01086 18.1597C6.96468 17.1247 6.96361 16.2708 6.97005 15.6984V9.40866H0.0354409L0 15.6984C0 19.1152 0.608582 21.5773 1.82575 23.0845C3.1521 24.7092 5.72425 25.5954 8.85916 25.6644C8.34389 24.8425 7.93398 23.9587 7.63914 23.0338Z" fill="white"/>
<path d="M56.1449 3.10927C58.3365 5.1814 59.4323 7.79114 59.4323 10.9385C59.4323 13.8623 58.3204 16.4563 56.0965 18.7203C53.8727 20.9843 51.385 22.1167 48.6335 22.1174H35.3851V18.4519C35.3907 17.1503 35.9083 15.9037 36.8251 14.9834C37.7419 14.0631 38.9837 13.5435 40.2802 13.5378H47.6251C48.3604 13.5378 48.936 13.2967 49.352 12.8144C49.7734 12.3188 49.9958 11.6835 49.976 11.0323C49.976 10.2934 49.768 9.6994 49.352 9.25019C48.936 8.80097 48.3604 8.57601 47.6251 8.57529H35.3818V0H48.5809C51.4305 0 53.9518 1.03642 56.1449 3.10927Z" fill="white"/>
<path d="M59.1925 27.0789H35.3848V35.6563H59.1925V27.0789Z" fill="white"/>
<path d="M74.385 26.9668H65.0254V35.5442H74.385V26.9668Z" fill="#578FCB"/>
<path d="M99.4239 2.95078C97.0397 1.01019 93.9431 0.0398865 90.1341 0.0398865C86.2936 0.0398865 83.2278 0.974249 80.9366 2.84297C78.4307 4.86335 77.1777 7.70777 77.1777 11.3762V24.1906C77.1777 27.798 78.4164 30.6115 80.8937 32.6312C83.2471 34.5272 86.3287 35.4756 90.1384 35.4763C93.9159 35.4763 96.9663 34.5279 99.2897 32.6312C101.767 30.6108 103.006 27.7973 103.006 24.1906V11.3665C103.002 7.69878 101.808 4.89354 99.4239 2.95078ZM93.849 23.4446C93.849 24.5011 93.4931 25.387 92.7814 26.1021C92.0698 26.8173 91.1869 27.1766 90.133 27.1802C89.6351 27.1893 89.1403 27.0986 88.6776 26.9135C88.215 26.7283 87.7937 26.4525 87.4384 26.1021C87.0769 25.7628 86.7907 25.3507 86.5986 24.8928C86.4065 24.4348 86.3128 23.9413 86.3237 23.4446V11.9735C86.3216 11.5014 86.4129 11.0336 86.5923 10.5973C86.7717 10.1609 87.0356 9.76456 87.3686 9.4313C88.066 8.70178 88.9875 8.33666 90.133 8.33595C91.2786 8.33523 92.1843 8.70035 92.8502 9.4313C93.5037 10.1317 93.8613 11.0592 93.8479 12.0188V23.4467L93.849 23.4446Z" fill="white"/>
</g>
<defs>
<clipPath id="clip0">
<rect width="103" height="51" fill="white"/>
</clipPath>
</defs>
</svg>
