<svg width="28" height="28" viewBox="0 0 28 28" fill="none" xmlns="http://www.w3.org/2000/svg">
<path d="M13.9997 5.63472C13.9997 3.62432 12.3684 1.99472 10.3597 1.99472C8.34765 1.99472 6.71973 3.62432 6.71973 5.63472C6.71973 6.19864 6.84853 6.72952 7.07925 7.20272" stroke="white" stroke-width="2" stroke-miterlimit="10" stroke-linejoin="round"/>
<path d="M25.4099 13.4563H24.4988C24.0239 13.4563 23.7988 13.2451 23.7641 13.0295C23.516 11.4677 22.5013 9.43825 19.9511 8.54785C19.9264 7.13497 20.2417 6.11577 20.8555 4.45761C19.4291 4.81545 17.8533 5.59217 16.9203 7.64961C15.8692 7.39257 14.7459 7.25369 13.5727 7.25369C10.5011 7.25369 8.18435 8.18553 6.32963 9.62921C4.65467 10.9335 3.60243 13.1175 3.72731 16.0967C3.82139 18.3439 5.38659 20.0587 6.58723 21.0191C6.76027 21.1557 7.10523 21.3747 6.92491 21.933C6.74403 22.4902 6.41923 23.268 6.41923 23.268C6.22995 23.7642 6.48139 24.3214 6.97699 24.5101L8.77907 25.1911C9.27523 25.3803 9.83243 25.13 10.0211 24.6333C10.0211 24.6333 10.2608 24.0089 10.4557 23.4881C10.8259 22.5092 11.0521 23.3033 13.5727 23.3033C16.1918 23.3033 16.4561 22.7926 16.7299 23.5945C16.9052 24.1181 17.1236 24.6333 17.1236 24.6333C17.3107 25.13 17.8684 25.3803 18.3663 25.1911L20.1661 24.5101C20.6634 24.3214 20.9154 23.7642 20.7255 23.268L20.4366 22.5036C20.4366 22.5036 20.1426 21.9996 20.7726 21.6574C22.0281 20.9742 22.9745 19.9377 23.5883 18.6575C23.7187 18.3831 23.9114 18.0102 24.4988 18.0102H25.4099C25.9117 18.0102 26.3199 17.6019 26.3199 17.1007V14.3685C26.3199 13.8662 25.9117 13.4563 25.4099 13.4563Z" stroke="white" stroke-width="2" stroke-miterlimit="10" stroke-linecap="round" stroke-linejoin="round"/>
<path d="M20.4289 15.0763C19.8359 15.0763 19.356 14.5964 19.356 14.0045C19.356 13.4137 19.8359 12.9337 20.4289 12.9337C21.0203 12.9337 21.4985 13.4137 21.4985 14.0045C21.4991 14.5958 21.0203 15.0763 20.4289 15.0763Z" fill="white"/>
<path d="M3.82274 12.9338C3.82274 12.9338 1.68018 12.4432 1.68018 10.5106C1.68018 9.71825 2.08002 8.98913 2.77946 8.68729" stroke="white" stroke-width="2" stroke-miterlimit="10" stroke-linecap="round" stroke-linejoin="round"/>
</svg>
