<svg width="14" height="14" viewBox="0 0 14 14" fill="none" xmlns="http://www.w3.org/2000/svg">
<path d="M9.46141 7.29194L13.1553 3.59857C13.6965 3.05688 13.6965 2.17038 13.1553 1.62869L12.6626 1.1365C12.1209 0.594254 11.2344 0.594254 10.6933 1.1365L6.99934 4.82988L3.30541 1.13594C2.76428 0.594253 1.87778 0.594253 1.33609 1.13594L0.843344 1.62813C0.302219 2.16982 0.302219 3.05632 0.843344 3.598L4.53672 7.29138L0.843344 10.9853C0.302219 11.527 0.302219 12.4129 0.843344 12.9546L1.33609 13.4474C1.87778 13.9891 2.76428 13.9891 3.30541 13.4474L6.99934 9.754L10.6933 13.4474C11.2344 13.9891 12.1209 13.9891 12.6626 13.4474L13.1553 12.9546C13.6965 12.4129 13.6965 11.527 13.1553 10.9853L9.46141 7.29194Z" fill="black"/>
</svg>
