<svg width="20" height="20" viewBox="0 0 20 20" fill="none" xmlns="http://www.w3.org/2000/svg">
<path d="M15.8337 3.33334H4.16699C3.50395 3.33334 2.86807 3.59674 2.39923 4.06558C1.93038 4.53442 1.66699 5.1703 1.66699 5.83334V14.1667C1.66699 14.8297 1.93038 15.4656 2.39923 15.9344C2.86807 16.4033 3.50395 16.6667 4.16699 16.6667H15.8337C16.4967 16.6667 17.1326 16.4033 17.6014 15.9344C18.0703 15.4656 18.3337 14.8297 18.3337 14.1667V5.83334C18.3337 5.1703 18.0703 4.53442 17.6014 4.06558C17.1326 3.59674 16.4967 3.33334 15.8337 3.33334ZM16.667 11.9167H14.167C13.6587 11.9167 13.1711 11.7147 12.8117 11.3553C12.4523 10.9959 12.2503 10.5083 12.2503 10C12.2503 9.49168 12.4523 9.00417 12.8117 8.64472C13.1711 8.28528 13.6587 8.08334 14.167 8.08334H16.667V11.9167ZM16.667 6.66668H14.167C13.2829 6.66668 12.4351 7.01787 11.81 7.64299C11.1848 8.26811 10.8337 9.11595 10.8337 10C10.8337 10.8841 11.1848 11.7319 11.81 12.357C12.4351 12.9822 13.2829 13.3333 14.167 13.3333H16.667V14.1667C16.667 14.3877 16.5792 14.5997 16.4229 14.7559C16.2666 14.9122 16.0547 15 15.8337 15H4.16699C3.94598 15 3.73402 14.9122 3.57774 14.7559C3.42146 14.5997 3.33366 14.3877 3.33366 14.1667V5.83334C3.33366 5.61233 3.42146 5.40037 3.57774 5.24409C3.73402 5.08781 3.94598 5.00001 4.16699 5.00001H15.8337C16.0547 5.00001 16.2666 5.08781 16.4229 5.24409C16.5792 5.40037 16.667 5.61233 16.667 5.83334V6.66668ZM13.3337 10C13.3337 10.1648 13.3825 10.3259 13.4741 10.463C13.5657 10.6 13.6958 10.7068 13.8481 10.7699C14.0004 10.833 14.1679 10.8495 14.3296 10.8173C14.4912 10.7852 14.6397 10.7058 14.7562 10.5893C14.8728 10.4727 14.9522 10.3242 14.9843 10.1626C15.0165 10.0009 15 9.83338 14.9369 9.68111C14.8738 9.52883 14.767 9.39869 14.63 9.30712C14.4929 9.21555 14.3318 9.16668 14.167 9.16668C13.946 9.16668 13.734 9.25447 13.5777 9.41075C13.4215 9.56703 13.3337 9.779 13.3337 10Z" fill="white"/>
</svg>
