<svg width="15" height="15" viewBox="0 0 15 15" fill="none" xmlns="http://www.w3.org/2000/svg">
<path d="M7.5 15C6.01664 15 4.56659 14.5601 3.33323 13.736C2.09986 12.9119 1.13856 11.7406 0.570907 10.3701C0.0032497 8.99968 -0.145275 7.49168 0.144114 6.03682C0.433503 4.58197 1.14781 3.2456 2.1967 2.1967C3.2456 1.14781 4.58197 0.433503 6.03682 0.144114C7.49168 -0.145275 8.99968 0.0032497 10.3701 0.570907C11.7406 1.13856 12.9119 2.09986 13.736 3.33323C14.5601 4.56659 15 6.01664 15 7.5C15 9.48913 14.2098 11.3968 12.8033 12.8033C11.3968 14.2098 9.48913 15 7.5 15ZM7.5 1C6.21442 1 4.95772 1.38122 3.8888 2.09545C2.81988 2.80968 1.98676 3.82484 1.49479 5.01256C1.00282 6.20028 0.874095 7.50721 1.1249 8.76809C1.3757 10.029 1.99477 11.1872 2.90381 12.0962C3.81285 13.0052 4.97104 13.6243 6.23191 13.8751C7.49279 14.1259 8.79972 13.9972 9.98744 13.5052C11.1752 13.0132 12.1903 12.1801 12.9046 11.1112C13.6188 10.0423 14 8.78558 14 7.5C14 5.77609 13.3152 4.12279 12.0962 2.90381C10.8772 1.68482 9.22391 1 7.5 1Z" fill="#101820"/>
<path d="M6.33507 10.4999C6.26652 10.4997 6.19873 10.4854 6.13594 10.4579C6.07315 10.4303 6.01669 10.3902 5.97007 10.3399L3.63507 7.83994C3.55529 7.74154 3.51583 7.61654 3.52465 7.49017C3.53348 7.3638 3.58995 7.2455 3.68264 7.15916C3.77533 7.07281 3.89733 7.02487 4.02401 7.02502C4.15068 7.02516 4.27258 7.07338 4.36507 7.15993L6.33507 9.26494L10.6351 4.65994C10.6782 4.60669 10.7319 4.56289 10.7927 4.53126C10.8535 4.49963 10.9202 4.48085 10.9886 4.47607C11.057 4.47129 11.1256 4.48063 11.1902 4.50349C11.2548 4.52636 11.3141 4.56227 11.3642 4.60899C11.4144 4.65572 11.4544 4.71225 11.4818 4.77509C11.5092 4.83793 11.5234 4.90573 11.5234 4.97428C11.5235 5.04283 11.5095 5.11066 11.4823 5.17357C11.455 5.23647 11.4151 5.2931 11.3651 5.33994L6.70007 10.3399C6.65345 10.3902 6.59699 10.4303 6.5342 10.4579C6.47141 10.4854 6.40363 10.4997 6.33507 10.4999Z" fill="#101820"/>
</svg>
