<svg width="21" height="22" viewBox="0 0 21 22" fill="none" xmlns="http://www.w3.org/2000/svg">
<g clip-path="url(#clip0)">
<path d="M18.9119 1.47961C18.6705 1.47961 13.284 1.51513 10.0064 4.33588C6.72908 1.51513 1.34235 1.47961 1.10095 1.47961H0.276367V19.0053H1.10095C5.40324 19.0053 8.0981 19.864 9.14355 20.2759H10.8622C11.893 19.8652 14.5684 19.0053 18.9119 19.0053H19.7365V1.47961H18.9119ZM9.18185 18.4317C7.85999 17.9735 5.44307 17.3489 1.92554 17.2629V3.27353C3.5258 3.39815 7.07675 3.89653 9.18185 5.88819V18.4317ZM18.0873 17.2629C14.5699 17.3489 12.1529 17.9735 10.831 18.4317V5.88819C12.9363 3.89637 16.4875 3.39806 18.0873 3.27353V17.2629Z" fill="white"/>
</g>
<defs>
<clipPath id="clip0">
<rect width="20" height="21.2539" fill="white" transform="translate(0.00683594 0.250793)"/>
</clipPath>
</defs>
</svg>
