<svg width="32" height="32" viewBox="0 0 32 32" fill="none" xmlns="http://www.w3.org/2000/svg">
<path d="M20.3775 16.519L26.9445 9.95303C27.9065 8.99003 27.9065 7.41403 26.9445 6.45103L26.0685 5.57603C25.1055 4.61203 23.5295 4.61203 22.5675 5.57603L16.0005 12.142L9.43346 5.57503C8.47146 4.61203 6.89546 4.61203 5.93246 5.57503L5.05646 6.45003C4.09446 7.41303 4.09446 8.98903 5.05646 9.95203L11.6225 16.518L5.05646 23.085C4.09446 24.048 4.09446 25.623 5.05646 26.586L5.93246 27.462C6.89546 28.425 8.47146 28.425 9.43346 27.462L16.0005 20.896L22.5675 27.462C23.5295 28.425 25.1055 28.425 26.0685 27.462L26.9445 26.586C27.9065 25.623 27.9065 24.048 26.9445 23.085L20.3775 16.519Z" fill="white"/>
</svg>
