<svg width="13" height="13" viewBox="0 0 13 13" fill="none" xmlns="http://www.w3.org/2000/svg">
<path d="M11.3789 1.10103V2.39334H10.6289V1.10103H9.87891V2.39334H9.12891V1.10103H8.37891V2.39334H7.62891V1.10103H6.87891V2.39334H6.12891V1.10103H5.37891V2.39334H4.62891V1.10103H3.87891V2.39334H3.12891V1.10103H1.62891V1.65487H0.878906V12.3626H12.1289V11.6241H12.8789V3.31641V1.10103H11.3789ZM11.7539 11.9933H1.25391V4.05488H1.62891V11.6241H11.7539V11.9933ZM12.5039 11.2549H2.00391V3.31641H12.5039V11.2549Z" fill="#043DA0"/>
<path d="M5.19139 0.362549H4.81641V2.20868H5.19139V0.362549Z" fill="#043DA0"/>
<path d="M6.69145 0.362549H6.31641V2.20868H6.69145V0.362549Z" fill="#043DA0"/>
<path d="M8.19145 0.362549H7.81641V2.20868H8.19145V0.362549Z" fill="#043DA0"/>
<path d="M9.69145 0.362549H9.31641V2.20868H9.69145V0.362549Z" fill="#043DA0"/>
<path d="M11.1915 0.362549H10.8164V2.20868H11.1915V0.362549Z" fill="#043DA0"/>
<path d="M3.87894 4.79333H3.12891V5.5318H3.87894V4.79333Z" fill="#043DA0"/>
<path d="M5.37894 4.79333H4.62891V5.5318H5.37894V4.79333Z" fill="#043DA0"/>
<path d="M6.87894 4.79333H6.12891V5.5318H6.87894V4.79333Z" fill="#043DA0"/>
<path d="M8.37894 4.79333H7.62891V5.5318H8.37894V4.79333Z" fill="#043DA0"/>
<path d="M9.87894 4.79333H9.12891V5.5318H9.87894V4.79333Z" fill="#043DA0"/>
<path d="M11.3789 4.79333H10.6289V5.5318H11.3789V4.79333Z" fill="#043DA0"/>
<path d="M3.87894 6.27023H3.12891V7.0087H3.87894V6.27023Z" fill="#043DA0"/>
<path d="M5.37894 6.27023H4.62891V7.0087H5.37894V6.27023Z" fill="#043DA0"/>
<path d="M6.87894 6.27023H6.12891V7.0087H6.87894V6.27023Z" fill="#043DA0"/>
<path d="M8.37894 6.27023H7.62891V7.0087H8.37894V6.27023Z" fill="#043DA0"/>
<path d="M9.87894 6.27023H9.12891V7.0087H9.87894V6.27023Z" fill="#043DA0"/>
<path d="M11.3789 6.27023H10.6289V7.0087H11.3789V6.27023Z" fill="#043DA0"/>
<path d="M3.87894 7.74716H3.12891V8.48563H3.87894V7.74716Z" fill="#043DA0"/>
<path d="M5.37894 7.74716H4.62891V8.48563H5.37894V7.74716Z" fill="#043DA0"/>
<path d="M6.87894 7.74716H6.12891V8.48563H6.87894V7.74716Z" fill="#043DA0"/>
<path d="M8.37894 7.74716H7.62891V8.48563H8.37894V7.74716Z" fill="#043DA0"/>
<path d="M9.87894 7.74716H9.12891V8.48563H9.87894V7.74716Z" fill="#043DA0"/>
<path d="M11.3789 7.74716H10.6289V8.48563H11.3789V7.74716Z" fill="#043DA0"/>
<path d="M3.87894 9.22406H3.12891V9.96253H3.87894V9.22406Z" fill="#043DA0"/>
<path d="M5.37894 9.22406H4.62891V9.96253H5.37894V9.22406Z" fill="#043DA0"/>
<path d="M6.87894 9.22406H6.12891V9.96253H6.87894V9.22406Z" fill="#043DA0"/>
<path d="M8.37894 9.22406H7.62891V9.96253H8.37894V9.22406Z" fill="#043DA0"/>
<path d="M9.87894 9.22406H9.12891V9.96253H9.87894V9.22406Z" fill="#043DA0"/>
<path d="M11.3789 9.22406H10.6289V9.96253H11.3789V9.22406Z" fill="#043DA0"/>
<path d="M5.0039 5.99332C5.46909 5.99332 5.84765 5.62059 5.84765 5.16256C5.84765 4.70454 5.46909 4.3318 5.0039 4.3318C4.53872 4.3318 4.16016 4.70454 4.16016 5.16256C4.16016 5.62059 4.53872 5.99332 5.0039 5.99332ZM5.0039 4.51642C5.36578 4.51642 5.66015 4.80626 5.66015 5.16256C5.66015 5.51887 5.36578 5.80871 5.0039 5.80871C4.64203 5.80871 4.34766 5.51887 4.34766 5.16256C4.34766 4.80626 4.64203 4.51642 5.0039 4.51642Z" fill="#043DA0"/>
<path d="M8.0039 8.94717C8.46909 8.94717 8.84765 8.57443 8.84765 8.11639C8.84765 7.65836 8.46909 7.28561 8.0039 7.28561C7.53872 7.28561 7.16016 7.65836 7.16016 8.11639C7.16016 8.57443 7.53872 8.94717 8.0039 8.94717ZM8.0039 7.47023C8.36578 7.47023 8.66015 7.76008 8.66015 8.11639C8.66015 8.4727 8.36578 8.76255 8.0039 8.76255C7.64203 8.76255 7.34766 8.4727 7.34766 8.11639C7.34766 7.76008 7.64203 7.47023 8.0039 7.47023Z" fill="#043DA0"/>
<path d="M3.69139 0.362549H3.31641V2.20868H3.69139V0.362549Z" fill="#043DA0"/>
</svg>
