<svg width="18" height="18" viewBox="0 0 18 18" fill="none" xmlns="http://www.w3.org/2000/svg">
<path d="M11.8264 9.44513V14.8858H2.60645V3.2139H11.8264V3.95316L13.5139 2.26566V1.5264H0.918945V16.5733H13.5139V15.7295V7.75763L11.8264 9.44513Z" fill="#2F3435"/>
<path d="M9.59522 10.6362L16.128 4.10333L14.4045 2.37997L7.87172 8.91299C7.83656 8.94097 7.80956 8.97922 7.79733 9.02619L7.28953 10.9557C7.28841 10.9592 7.28841 10.9634 7.2877 10.967C7.28602 10.9744 7.28489 10.982 7.28405 10.9897C7.28348 10.9969 7.2832 11.0035 7.2832 11.0103C7.2832 11.0174 7.28348 11.024 7.28405 11.0311C7.28503 11.0388 7.28616 11.0464 7.2877 11.0539C7.28841 11.0577 7.28841 11.0616 7.28953 11.0651C7.29009 11.0679 7.2915 11.07 7.29234 11.0728C7.29459 11.08 7.29727 11.0872 7.3005 11.0942C7.30317 11.1005 7.3057 11.1066 7.30894 11.1124C7.31217 11.1184 7.31611 11.1242 7.32005 11.1299C7.3237 11.1357 7.32792 11.1418 7.33214 11.147C7.3365 11.1524 7.34128 11.1571 7.34634 11.162C7.35141 11.1669 7.35591 11.1716 7.36139 11.1761C7.36659 11.1804 7.37236 11.1846 7.37827 11.1882C7.38403 11.1922 7.38966 11.1962 7.39598 11.1994C7.40175 11.2024 7.40794 11.2052 7.41412 11.2077C7.4213 11.2109 7.42819 11.2138 7.4355 11.216C7.43817 11.2168 7.44042 11.2183 7.44323 11.2188C7.44689 11.2197 7.45083 11.2197 7.45448 11.2208C7.46194 11.2222 7.46953 11.2233 7.47727 11.224C7.48444 11.2249 7.49105 11.2251 7.49794 11.2251C7.50483 11.2251 7.51158 11.2249 7.51861 11.2243C7.52634 11.2232 7.53394 11.222 7.54139 11.2208C7.54491 11.2197 7.54898 11.2197 7.55264 11.2188L9.48216 10.711C9.52884 10.6988 9.56723 10.6716 9.59522 10.6362ZM8.06873 10.4392C8.01909 10.3894 7.95131 10.37 7.88663 10.379L8.1818 9.25724L9.25083 10.3263L8.12906 10.6213C8.1382 10.5568 8.11866 10.489 8.06873 10.4392Z" fill="#2F3435"/>
<path d="M16.4215 3.81039L14.6982 2.08703L15.3582 1.42694C15.3582 1.42694 16.5321 1.84572 17.0817 3.15044L16.4215 3.81039Z" fill="#2F3435"/>
</svg>
