<svg width="20" height="22" viewBox="0 0 20 22" fill="none" xmlns="http://www.w3.org/2000/svg">
<g clip-path="url(#clip0)">
<path d="M7.84306 7.16736C9.45561 7.16736 10.7676 6.04174 10.7676 4.6581C10.7676 3.27456 9.45561 2.14899 7.84306 2.14899C6.23068 2.14899 4.91895 3.27456 4.91895 4.6581C4.91889 6.04169 6.23068 7.16736 7.84306 7.16736Z" fill="white"/>
<path d="M4.71434 13.9954H10.9733V12.3943C10.9733 12.2736 11.0845 12.1757 11.2218 12.1757C11.359 12.1757 11.4704 12.2736 11.4704 12.3943V13.9954H13.0518V11.4108C13.0518 10.3175 12.0355 9.4281 10.7862 9.4281H4.92641C3.66332 9.4281 2.63574 10.3273 2.63574 11.4326V13.9953H4.21726V12.3943C4.21726 12.2735 4.32855 12.1756 4.46582 12.1756C4.6031 12.1756 4.71439 12.2735 4.71439 12.3943V13.9954H4.71434ZM7.84364 10.5912C8.13071 10.5912 8.36331 10.7951 8.36331 11.0462C8.36331 11.2974 8.13071 11.5013 7.84364 11.5013C7.55682 11.5013 7.32428 11.2974 7.32428 11.0462C7.32428 10.7951 7.55682 10.5912 7.84364 10.5912ZM7.84364 11.9274C8.13071 11.9274 8.36331 12.1311 8.36331 12.3822C8.36331 12.6336 8.13071 12.8372 7.84364 12.8372C7.55682 12.8372 7.32428 12.6336 7.32428 12.3822C7.32428 12.1311 7.55682 11.9274 7.84364 11.9274Z" fill="white"/>
<path d="M22.3871 1.72961H13.0333C12.896 1.72961 12.7847 1.8275 12.7847 1.94825C12.7847 2.069 12.896 2.16689 13.0333 2.16689H22.1385V19.4546H13.0333C12.896 19.4546 12.7847 19.5525 12.7847 19.6733C12.7847 19.794 12.896 19.8919 13.0333 19.8919H22.1385V21.2924H10.9738V14.4326H4.71484V21.7296H7.59558V16.4886C7.59558 16.3679 7.70686 16.27 7.84414 16.27C7.98142 16.27 8.09271 16.3679 8.09271 16.4886V21.7296H10.9548H10.9738H22.3871C22.5244 21.7296 22.6357 21.6317 22.6357 21.5109V1.94821C22.6357 1.82746 22.5244 1.72961 22.3871 1.72961Z" fill="white"/>
<path d="M18.248 12.3943C18.248 13.0166 18.8258 13.5228 19.5357 13.5228C20.2459 13.5228 20.8237 13.0166 20.8237 12.3943C20.8237 11.772 20.2459 11.2658 19.5357 11.2658C18.8258 11.2658 18.248 11.772 18.248 12.3943Z" fill="white"/>
<path d="M13.0508 6.47985C13.0508 6.6006 13.1621 6.69849 13.2993 6.69849H18.9331L18.3207 7.23473C18.2234 7.31992 18.223 7.45831 18.3198 7.54388C18.3684 7.58676 18.4322 7.60827 18.496 7.60827C18.5594 7.60827 18.6228 7.58704 18.6713 7.54463L19.7104 6.6348C19.7105 6.63475 19.7106 6.63466 19.7107 6.63457C19.7108 6.63447 19.7109 6.63438 19.7111 6.63424C19.7112 6.63415 19.7112 6.63415 19.7113 6.6341C19.7132 6.63242 19.7144 6.63051 19.7162 6.62878C19.7254 6.62015 19.7342 6.61119 19.7416 6.60135C19.742 6.60097 19.7424 6.60055 19.7427 6.60018C19.7467 6.59482 19.7494 6.58894 19.7528 6.58334C19.7568 6.57685 19.7613 6.57065 19.7646 6.56374C19.7649 6.56323 19.7652 6.56271 19.7655 6.56215C19.7687 6.55525 19.7704 6.54792 19.7727 6.54079C19.7747 6.53481 19.7773 6.52907 19.7788 6.52292C19.7789 6.5225 19.779 6.52208 19.7791 6.52161C19.7807 6.51447 19.7807 6.50719 19.7815 6.49996C19.7822 6.49329 19.7836 6.48671 19.7838 6.48004C19.7838 6.47999 19.7838 6.47994 19.7838 6.47985C19.7838 6.47976 19.7838 6.47971 19.7838 6.47966C19.7836 6.47299 19.7822 6.46641 19.7815 6.45974C19.7807 6.45256 19.7807 6.44523 19.7791 6.43809C19.779 6.43763 19.7789 6.43721 19.7788 6.43679C19.7773 6.43063 19.7747 6.42493 19.7727 6.41896C19.7704 6.41182 19.7687 6.4045 19.7655 6.39759C19.7652 6.39703 19.7649 6.39657 19.7646 6.39601C19.7613 6.38915 19.7569 6.3829 19.7528 6.37641C19.7494 6.37081 19.7467 6.36498 19.7427 6.35957C19.7424 6.35915 19.742 6.35877 19.7416 6.3584C19.7342 6.34856 19.7254 6.3396 19.7162 6.33097C19.7144 6.32924 19.7132 6.32733 19.7113 6.32565C19.7112 6.32565 19.7112 6.3256 19.7111 6.32551C19.7109 6.32537 19.7108 6.32532 19.7107 6.32518C19.7106 6.32509 19.7105 6.32499 19.7104 6.32499L18.6713 5.41517C18.574 5.33002 18.4167 5.3303 18.3198 5.41591C18.223 5.50148 18.2234 5.63992 18.3207 5.72507L18.9331 6.26131H13.2993C13.1621 6.26126 13.0508 6.3591 13.0508 6.47985Z" fill="white"/>
</g>
<defs>
<clipPath id="clip0">
<rect width="20" height="21.25" fill="white"/>
</clipPath>
</defs>
</svg>
