<svg width="28" height="28" viewBox="0 0 28 28" fill="none" xmlns="http://www.w3.org/2000/svg">
<path d="M15.9273 6.75808L15.9958 6.82642V6.52488C15.9958 6.25407 15.7749 6.08372 15.4683 5.9851L15.9273 6.75808ZM15.9273 6.75808C15.8413 6.89907 15.6785 7.00878 15.4775 7.09552L15.4774 7.09557C15.1582 7.2329 14.6785 7.29562 14.0508 7.29562C13.3763 7.29562 12.829 7.22116 12.4159 7.06581C12.0376 6.92356 11.7638 6.7099 11.616 6.41727L9.34034 6.66037C9.59423 7.02189 9.99929 7.31513 10.5689 7.53434C11.2227 7.78599 12.0855 7.9368 13.1626 7.98198L13.2824 7.98701V8.10687V8.78862H14.6905V8.10338V7.98372L14.81 7.9785C16.1041 7.92189 17.0801 7.7366 17.7471 7.43063C18.4211 7.1215 18.7085 6.76073 18.7085 6.36037C18.7085 6.10584 18.5741 5.87045 18.2628 5.65472C17.9444 5.43611 17.5176 5.25918 16.9645 5.13207L16.9637 5.13188C16.4115 5.00098 15.642 4.86334 14.6588 4.7165L14.6583 4.71644C13.7644 4.57951 13.1693 4.46787 12.8842 4.37284C12.5979 4.2774 12.3866 4.11867 12.3866 3.86138C12.3866 3.61101 12.5991 3.43806 12.8887 3.31904C13.1921 3.1901 13.5871 3.13175 14.063 3.13175C14.9878 3.13175 15.6991 3.38423 16.1769 3.91118L18.1803 3.57472C17.6201 2.95364 16.5144 2.58414 14.8084 2.49872L14.6896 2.49277V2.37387V1.87325H13.2806V2.37387V2.49177L13.1629 2.49866C11.9421 2.57012 11.0641 2.76228 10.5197 3.06407C9.96269 3.37556 9.72725 3.70164 9.72725 4.0285C9.72725 4.27706 9.85753 4.50918 10.1551 4.72292C10.4582 4.93709 10.8599 5.10938 11.3621 5.23366C11.8689 5.35904 12.5763 5.48696 13.4854 5.61446L13.4859 5.61454C14.4967 5.76118 15.1619 5.88577 15.468 5.98499L15.9273 6.75808ZM24.375 7C24.375 7.35711 24.2919 7.7086 24.1445 8.05023L24.0828 8.02454V8.21188V8.21363L24.1964 8.2392L24.1598 8.3273C26.4651 9.28568 27.875 10.7087 27.875 12.2517V14.0017C27.875 15.4842 26.565 16.8523 24.4064 17.8101L24.3444 17.8376L24.3337 17.9046C24.2646 18.3366 24.0451 18.7521 23.7556 19.1631L23.8462 19.2394L23.7677 19.2959C24.1562 19.8357 24.375 20.4066 24.375 21V22.75C24.375 24.1261 23.2555 25.4063 21.3686 26.35C19.4892 27.2898 16.8841 27.875 14 27.875C11.1159 27.875 8.51083 27.29 6.63142 26.3503C4.74452 25.4068 3.625 24.1266 3.625 22.75V21C3.625 20.4165 3.83554 19.855 4.21356 19.3223L4.26491 19.25L4.21356 19.1777C3.83554 18.645 3.625 18.0835 3.625 17.5V15.75C3.625 15.3545 3.72691 14.9668 3.90524 14.5898L3.96134 14.4713L3.8402 14.4209C1.5348 13.4634 0.125 12.0421 0.125 10.5V8.75C0.125 7.31566 1.34993 5.98746 3.38308 5.03692C3.37771 5.10754 3.375 5.17858 3.375 5.25H3.5H3.625C3.625 5.11727 3.64281 4.98558 3.66688 4.84805L3.70724 4.61741L3.70416 4.61878C3.98995 3.48562 5.03658 2.44761 6.63142 1.65005C8.51084 0.710181 11.1159 0.125 14 0.125C16.8841 0.125 19.4892 0.709965 21.3686 1.64972C23.2555 2.59323 24.375 3.87342 24.375 5.25V7ZM3.625 5.82225V5.61971L3.44396 5.71052C2.60575 6.13095 1.93541 6.61599 1.47301 7.13109C1.01098 7.64579 0.75 8.19837 0.75 8.75C0.75 9.30785 1.01635 9.86833 1.48854 10.3898C1.96114 10.9117 2.6467 11.4026 3.50507 11.825C5.22221 12.6701 7.64793 13.25 10.5 13.25C12.8795 13.25 14.9336 12.8319 16.5535 12.2092L16.4933 11.9684C15.6929 12.0676 14.8607 12.125 14 12.125C11.1159 12.125 8.51083 11.54 6.63142 10.6003C4.74452 9.65677 3.625 8.37658 3.625 7V5.82225ZM4.69128 19.94L4.62119 19.8981C4.41092 20.2501 4.25 20.6221 4.25 21C4.25 21.5579 4.51648 22.1183 4.9888 22.6398C5.46154 23.1617 6.14726 23.6526 7.00573 24.075C8.72308 24.9201 11.1488 25.5 14 25.5C16.8512 25.5 19.2769 24.9201 20.9943 24.075C21.8527 23.6526 22.5385 23.1617 23.0112 22.6398C23.4835 22.1183 23.75 21.5579 23.75 21C23.75 20.6156 23.5854 20.2356 23.3657 19.8791L23.2651 19.9412L23.1768 19.8505C21.4505 21.4849 18.0119 22.6241 14 22.6241C9.99297 22.6241 6.53699 21.4935 4.80638 19.8617L4.69128 19.94ZM20.1371 19.0908V18.9085L19.9781 18.9699C19.1822 19.0688 18.3551 19.125 17.5 19.125C15.1435 19.125 12.9736 18.7344 11.2336 18.0782C9.49022 17.4208 8.19321 16.5026 7.56105 15.4586L7.53067 15.4085L7.47267 15.3998C6.46441 15.2485 5.52305 15.0218 4.67291 14.7364L4.57221 14.7026L4.5226 14.7965C4.36175 15.101 4.25 15.4227 4.25 15.7491C4.25 16.3068 4.51649 16.8672 4.9888 17.3885C5.46154 17.9104 6.14726 18.4013 7.00572 18.8238C8.72307 19.669 11.1488 20.2491 14 20.2491C16.3711 20.2491 18.418 19.8372 20.0367 19.2153C20.039 19.2148 20.0413 19.2143 20.0436 19.2138C20.0474 19.2129 20.0509 19.2119 20.0538 19.2109C20.0578 19.2096 20.0608 19.2084 20.0626 19.2077C20.0636 19.2073 20.0656 19.2065 20.0645 19.2069L20.0593 19.2089C20.0561 19.2101 20.0494 19.2123 20.0401 19.2139C20.0458 19.2117 20.0515 19.2096 20.0572 19.2074L20.0298 19.1365L20.0271 19.0925H20.1371V19.0908ZM20.0036 18.9667C20.0026 18.9668 20.0016 18.967 20.0006 18.9671C19.989 18.9688 19.9804 18.9716 19.9762 18.9731L19.9731 18.9743C19.9739 18.974 19.9748 18.9737 19.9758 18.9734C19.9784 18.9725 19.9816 18.9716 19.9853 18.9707C19.9909 18.9693 19.9971 18.9683 20.0037 18.9678L20.0036 18.9667ZM26.2981 10.4145C25.726 9.86751 24.9143 9.36114 23.917 8.93924L23.9779 8.86475H23.7142H23.7142H23.7142H23.7142H23.7142H23.7141H23.7141H23.7141H23.7141H23.7141H23.7141H23.714H23.714H23.714H23.714H23.714H23.7139H23.7139H23.7139H23.7139H23.7139H23.7139H23.7138H23.7138H23.7138H23.7138H23.7138H23.7138H23.7137H23.7137H23.7137H23.7137H23.7137H23.7137H23.7136H23.7136H23.7136H23.7136H23.7136H23.7136H23.7135H23.7135H23.7135H23.7135H23.7135H23.7134H23.7134H23.7134H23.7134H23.7134H23.7133H23.7133H23.7133H23.7133H23.7133H23.7133H23.7132H23.7132H23.7132H23.7132H23.7132H23.7132H23.7131H23.7131H23.7131H23.7131H23.7131H23.7131H23.713H23.713H23.713H23.713H23.713H23.713H23.7129H23.7129H23.7129H23.7129H23.7129H23.7129H23.7128H23.7128H23.7128H23.7128H23.7128H23.7128H23.7127H23.7127H23.7127H23.7127H23.7127H23.7127H23.7127H23.7126H23.7126H23.7126H23.7126H23.7126H23.7126H23.7125H23.7125H23.7125H23.7125L23.6917 8.9713L23.6175 8.91062C23.0215 9.63939 22.0857 10.2864 20.9064 10.8101L20.8444 10.8377L20.8337 10.9046C20.6431 12.0936 19.6123 13.1865 17.9851 14.0228C16.363 14.8566 14.1731 15.4213 11.7194 15.5657L11.6844 15.8081C13.2669 16.3783 15.2401 16.7496 17.4964 16.75L17.4965 16.7509C20.3481 16.7509 22.7739 16.171 24.4911 15.3259C25.3495 14.9034 26.0352 14.4126 26.5078 13.8907C26.9801 13.3692 27.2465 12.8087 27.2465 12.2509C27.2465 11.6192 26.8987 10.9887 26.2981 10.4145ZM23.75 5.25C23.75 4.69172 23.4835 4.13102 23.0112 3.60948C22.5385 3.08748 21.8527 2.59667 20.9943 2.17432C19.2769 1.32942 16.8512 0.75 14 0.75C11.1479 0.75 8.72223 1.32942 7.00508 2.17433C6.14671 2.59668 5.46114 3.08749 4.98853 3.60949C4.51633 4.13104 4.25 4.69173 4.25 5.25C4.25 5.80787 4.51648 6.36835 4.9888 6.88979C5.46154 7.4117 6.14726 7.90256 7.00573 8.32502C8.72308 9.17014 11.1488 9.75 14 9.75C16.8512 9.75 19.2769 9.17014 20.9943 8.32502C21.8527 7.90256 22.5385 7.4117 23.0112 6.88979C23.4835 6.36835 23.75 5.80787 23.75 5.25Z" fill="white" stroke="black" stroke-width="0.25"/>
</svg>
