<svg width="28" height="28" viewBox="0 0 28 28" fill="none" xmlns="http://www.w3.org/2000/svg">
<path d="M13.1665 4.94168L13.0697 4.81259L12.9689 4.93859C12.5119 5.50985 11.9422 5.96406 11.4939 6.18821L11.3388 6.26577L11.4611 6.38803C11.4611 6.38802 11.4612 6.3881 11.4612 6.38813C11.4612 6.38816 11.4612 6.38817 11.4613 6.38825C11.4613 6.38826 11.4613 6.38825 11.4613 6.38828L11.4614 6.38832L11.4614 6.38836L11.4635 6.39054C11.4656 6.39281 11.469 6.39651 11.4732 6.40141C11.4817 6.41135 11.493 6.42553 11.5042 6.44226C11.5292 6.47979 11.5415 6.51258 11.5415 6.53334V6.56285L11.5547 6.58924C11.6152 6.71022 11.7046 6.85931 11.7906 7.00264L11.7927 7.00599C11.881 7.1533 11.9657 7.29449 12.0214 7.40591L12.0559 7.47501H12.1332C12.2975 7.47501 12.4921 7.50256 12.6988 7.53209L12.7046 7.53291C12.9045 7.56147 13.1159 7.59168 13.2998 7.59168H13.4165H13.4172H13.4179H13.4186H13.4193H13.42H13.4207H13.4214H13.4221H13.4228H13.4235H13.4242H13.4249H13.4256H13.4263H13.4271H13.4278H13.4285H13.4292H13.43H13.4307H13.4314H13.4322H13.4329H13.4337H13.4344H13.4351H13.4359H13.4367H13.4374H13.4382H13.4389H13.4397H13.4405H13.4412H13.442H13.4428H13.4435H13.4443H13.4451H13.4459H13.4467H13.4474H13.4482H13.449H13.4498H13.4506H13.4514H13.4522H13.453H13.4538H13.4546H13.4554H13.4562H13.457H13.4579H13.4587H13.4595H13.4603H13.4611H13.462H13.4628H13.4636H13.4644H13.4653H13.4661H13.4669H13.4678H13.4686H13.4695H13.4703H13.4711H13.472H13.4728H13.4737H13.4746H13.4754H13.4763H13.4771H13.478H13.4788H13.4797H13.4806H13.4814H13.4823H13.4832H13.4841H13.4849H13.4858H13.4867H13.4876H13.4885H13.4893H13.4902H13.4911H13.492H13.4929H13.4938H13.4947H13.4956H13.4965H13.4974H13.4983H13.4992H13.5001H13.501H13.5019H13.5028H13.5037H13.5046H13.5055H13.5065H13.5074H13.5083H13.5092H13.5101H13.5111H13.512H13.5129H13.5138H13.5148H13.5157H13.5166H13.5175H13.5185H13.5194H13.5204H13.5213H13.5222H13.5232H13.5241H13.5251H13.526H13.5269H13.5279H13.5288H13.5298H13.5307H13.5317H13.5327H13.5336H13.5346H13.5355H13.5365H13.5374H13.5384H13.5394H13.5403H13.5413H13.5422H13.5432H13.5442H13.5452H13.5461H13.5471H13.5481H13.549H13.55H13.551H13.552H13.5529H13.5539H13.5549H13.5559H13.5569H13.5578H13.5588H13.5598H13.5608H13.5618H13.5628H13.5637H13.5647H13.5657H13.5667H13.5677H13.5687H13.5697H13.5707H13.5717H13.5727H13.5737H13.5747H13.5757H13.5767H13.5777H13.5787H13.5797H13.5807H13.5817H13.5827H13.5837H13.5847H13.5857H13.5867H13.5877H13.5887H13.5897H13.5907H13.5917H13.5927H13.5937H13.5947H13.5957H13.5968H13.5978H13.5988H13.5998H13.6008H13.6018H13.6028H13.6039H13.6049H13.6059H13.6069H13.6079H13.6089H13.6099H13.611H13.612H13.613H13.614H13.615H13.6161H13.6171H13.6181H13.6191H13.6201H13.6212H13.6222H13.6232H13.6242H13.6253H13.6263H13.6273H13.6283H13.6293H13.6304H13.6314H13.6324H13.6334H13.6345H13.6355H13.6365H13.6375H13.6386H13.6396H13.6406H13.6416H13.6427H13.6437H13.6447H13.6457H13.6468H13.6478H13.6488H13.6498H13.6509H13.6519H13.6529H13.6539H13.655H13.656H13.657H13.658H13.6591H13.6601H13.6611H13.6621H13.6632H13.6642H13.6652H13.6662H13.6673H13.6683H13.6693H13.6703H13.6714H13.6724H13.6734H13.6744H13.6754H13.6765H13.6775H13.6785H13.6795H13.6806H13.6816H13.6826H13.6836H13.6846H13.6857H13.6867H13.6877H13.6887H13.6897H13.6907H13.6918H13.6928H13.6938H13.6948H13.6958H13.6968H13.6978H13.6989H13.6999H13.7009H13.7019H13.7029H13.7039H13.7049H13.7059H13.707H13.708H13.709H13.71H13.711H13.712H13.713H13.714H13.715H13.716H13.717H13.718H13.719H13.72H13.721H13.722H13.723H13.724H13.725H13.726H13.727H13.728H13.729H13.73H13.731H13.732H13.733H13.734H13.7349H13.7359H13.7369H13.7379H13.7389H13.7399H13.7409H13.7418H13.7428H13.7438H13.7448H13.7458H13.7467H13.7477H13.7487H13.7497H13.7506H13.7516H13.7526H13.7536H13.7545H13.7555H13.7565H13.7574H13.7584H13.7594H13.7603H13.7613H13.7622H13.7632H13.7642H13.7651H13.7661H13.767H13.768H13.7689H13.7699H13.7708H13.7718H13.7727H13.7737H13.7746H13.7756H13.7765H13.7774H13.7784H13.7793H13.7803H13.7812H13.7821H13.7831H13.784H13.7849H13.7858H13.7868H13.7877H13.7886H13.7895H13.7905H13.7914H13.7923H13.7932H13.7941H13.795H13.796H13.7969H13.7978H13.7987H13.7996H13.8005H13.8014H13.8023H13.8032H13.8041H13.805H13.8059H13.8068H13.8077H13.8086H13.8094H13.8103H13.8112H13.8121H13.813H13.8139H13.8147H13.8156H13.8165H13.8174H13.8182H13.8191H13.82H13.8208H13.8217H13.8226H13.8234H13.8243H13.8251H13.826H13.8268H13.8277H13.8285H13.8294H13.8302H13.8311H13.8319H13.8327H13.8336H13.8344H13.8352H13.8361H13.8369H13.8377H13.8385H13.8394H13.8402H13.841H13.8418H13.8426H13.8434H13.8443H13.8451H13.8459H13.8467H13.8475H13.8483H13.8491H13.8499H13.8507H13.8514H13.8522H13.853H13.8538H13.8546H13.8554H13.8561H13.8569H13.8577H13.8585H13.8592H13.86H13.8607H13.8615H13.8623H13.863H13.8638H13.8645H13.8653H13.866H13.8668H13.8675H13.8682H13.869H13.8697H13.8704H13.8712H13.8719H13.8726H13.8733H13.8741H13.8748H13.8755H13.8762H13.8769H13.8776H13.8783H13.879H13.8797H13.8804H13.8811H13.8818H13.8825H13.8832H13.9808L14.0044 7.49699C14.121 7.03063 14.236 6.5712 14.4659 5.99643L14.5086 5.88964L14.4057 5.83821C13.9363 5.60346 13.4963 5.38147 13.1665 4.94168ZM15.9752 8.64293L15.9749 8.64295L15.9761 8.65102C15.9983 8.80671 15.9402 8.95227 15.8057 9.09157C15.6691 9.23307 15.4603 9.35987 15.2059 9.46587C14.6978 9.6776 14.0435 9.79167 13.5332 9.79167H13.5325H13.5318H13.5311H13.5305H13.5298H13.5291H13.5285H13.5278H13.5271H13.5265H13.5258H13.5252H13.5245H13.5239H13.5232H13.5226H13.5219H13.5213H13.5207H13.52H13.5194H13.5188H13.5181H13.5175H13.5169H13.5163H13.5157H13.515H13.5144H13.5138H13.5132H13.5126H13.512H13.5114H13.5108H13.5102H13.5096H13.509H13.5084H13.5079H13.5073H13.5067H13.5061H13.5055H13.505H13.5044H13.5038H13.5032H13.5027H13.5021H13.5015H13.501H13.5004H13.4999H13.4993H13.4988H13.4982H13.4977H13.4971H13.4966H13.496H13.4955H13.495H13.4944H13.4939H13.4934H13.4928H13.4923H13.4918H13.4913H13.4907H13.4902H13.4897H13.4892H13.4887H13.4882H13.4877H13.4871H13.4866H13.4861H13.4856H13.4851H13.4846H13.4841H13.4836H13.4832H13.4827H13.4822H13.4817H13.4812H13.4807H13.4802H13.4797H13.4793H13.4788H13.4783H13.4778H13.4774H13.4769H13.4764H13.476H13.4755H13.475H13.4746H13.4741H13.4736H13.4732H13.4727H13.4723H13.4718H13.4714H13.4709H13.4705H13.47H13.4696H13.4691H13.4687H13.4682H13.4678H13.4674H13.4669H13.4665H13.4661H13.4656H13.4652H13.4648H13.4643H13.4639H13.4635H13.463H13.4626H13.4622H13.4618H13.4614H13.4609H13.4605H13.4601H13.4597H13.4593H13.4589H13.4585H13.458H13.4576H13.4572H13.4568H13.4564H13.456H13.4556H13.4552H13.4548H13.4544H13.454H13.4536H13.4532H13.4528H13.4524H13.452H13.4516H13.4512H13.4509H13.4505H13.4501H13.4497H13.4493H13.4489H13.4485H13.4481H13.4478H13.4474H13.447H13.4466H13.4462H13.4459H13.4455H13.4451H13.4447H13.4444H13.444H13.4436H13.4432H13.4429H13.4425H13.4421H13.4418H13.4414H13.441H13.4407H13.4403H13.4399H13.4396H13.4392H13.4388H13.4385H13.4381H13.4377H13.4374H13.437H13.4367H13.4363H13.4359H13.4356H13.4352H13.4349H13.4345H13.4342H13.4338H13.4335H13.4331H13.4327H13.4324H13.432H13.4317H13.4313H13.431H13.4306H13.4303H13.4299H13.4296H13.4292H13.4289H13.4285H13.4282H13.4278H13.4275H13.4272H13.4268H13.4265H13.4261H13.4258H13.4254H13.4251H13.4247H13.4244H13.424H13.4237H13.4234H13.423H13.4227H13.4223H13.422H13.4216H13.4213H13.421H13.4206H13.4203H13.4199H13.4196H13.4192H13.4189H13.4186H13.4182H13.4179H13.4175H13.4172H13.4168H13.4165H13.4162H13.4158H13.4155H13.4151H13.4148H13.4145H13.4141H13.4138H13.4134H13.4131H13.4127H13.4124H13.4121H13.4117H13.4114H13.411H13.4107H13.4103H13.41H13.4097H13.4093H13.409H13.4086H13.4083H13.4079H13.4076H13.4072H13.4069H13.4065H13.4062H13.4059H13.4055H13.4052H13.4048H13.4045H13.4041H13.4038H13.4034H13.4031H13.4027H13.4024H13.402H13.4017H13.4013H13.401H13.4006H13.4003H13.3999H13.3996H13.3992H13.3988H13.3985H13.3981H13.3978H13.3974H13.3971H13.3967H13.3963H13.396H13.3956H13.3953H13.3949H13.3945H13.3942H13.3938H13.3934H13.3931H13.3927H13.3923H13.392H13.3916H13.3912H13.3909H13.3905H13.3901H13.3898H13.3894H13.389H13.3886H13.3883H13.3879H13.3875H13.3871H13.3868H13.3864H13.386H13.3856H13.3852H13.3849H13.3845H13.3841H13.3837H13.3833H13.3829H13.3825H13.3822H13.3818H13.3814H13.381H13.3806H13.3802H13.3798H13.3794H13.379H13.3786H13.3782H13.3778H13.3774H13.377H13.3766H13.3762H13.3758H13.3754H13.375H13.3746H13.3741H13.3737H13.3733H13.3729H13.3725H13.3721H13.3716H13.3712H13.3708H13.3704H13.37H13.3695H13.3691H13.3687H13.3683H13.3678H13.3674H13.367H13.3665H13.3661H13.3656H13.3652H13.3648H13.3643H13.3639H13.3634H13.363H13.3625H13.3621H13.3616H13.3612H13.3607H13.3603H13.3598H13.3594H13.3589H13.3584H13.358H13.3575H13.3571H13.3566H13.3561H13.3556H13.3552H13.3547H13.3542H13.3537H13.3533H13.3528H13.3523H13.3518H13.3513H13.3508H13.3503H13.3499H13.3494H13.3489H13.3484H13.3479H13.3474H13.3469H13.3464H13.3459H13.3454H13.3448H13.3443H13.3438H13.3433H13.3428H13.3423H13.3417H13.3412H13.3407H13.3402H13.3396H13.3391H13.3386H13.338H13.3375H13.337H13.3364H13.3359H13.3353H13.3348H13.3342H13.3337H13.3331H13.3326H13.332H13.3315H13.3309H13.3303H13.3298H13.3292H13.3286H13.3281H13.3275H13.3269H13.3263H13.3257H13.3252H13.3246H13.324H13.3234H13.3228H13.3222H13.3216H13.321H13.3204H13.3198H13.3192H13.3186H13.318H13.3174H13.3167H13.3161H13.3155H13.3149H13.3142H13.3136H13.313H13.3124H13.3117H13.3111H13.3104H13.3098H13.3092H13.3085H13.3079H13.3072H13.3065H13.3059H13.3052H13.3046H13.3039H13.3032H13.3025H13.3019H13.3012H13.3005H13.2998C12.7869 9.79167 12.1857 9.70592 11.6708 9.5629C11.4135 9.49144 11.1809 9.40652 10.9932 9.31268C10.8063 9.21919 10.6747 9.12217 10.6035 9.02983C10.5115 8.87649 10.3415 8.59049 10.1361 8.24493C9.55068 7.26006 8.67761 5.79132 8.50384 5.53067C8.28388 5.20073 8.24624 4.89714 8.33906 4.68828C8.42872 4.48655 8.66283 4.32501 9.09984 4.32501L9.11386 4.32501C9.62743 4.32502 10.0794 4.32503 10.4606 4.2183C10.856 4.1076 11.1742 3.88318 11.4238 3.44755C11.7062 2.99627 11.9818 2.75296 12.2474 2.62015C12.5139 2.48692 12.783 2.45834 13.0665 2.45834C13.2878 2.45834 13.5294 2.48578 13.7981 2.62015C14.0664 2.75432 14.371 2.99976 14.7101 3.44978C14.8525 3.72422 15.1295 3.85834 15.3998 3.85834C15.7747 3.85834 16.144 3.73433 16.3891 3.61181C16.5924 3.51017 16.7967 3.50834 17.0332 3.50834C17.2419 3.50834 17.3965 3.56658 17.509 3.65358C17.6224 3.74126 17.7006 3.8641 17.7453 4.00458C17.8356 4.28826 17.7824 4.62035 17.6379 4.81861C17.5019 4.95876 17.0662 5.51653 16.6758 6.2251C16.2798 6.94378 15.9139 7.8462 15.9752 8.64293Z" fill="white" stroke="black" stroke-width="0.25"/>
<path d="M15.9753 8.64291L15.975 8.64293L15.9762 8.651C15.9984 8.80669 15.9403 8.95226 15.8058 9.09155C15.6692 9.23305 15.4604 9.35986 15.206 9.46586C14.6978 9.67759 14.0436 9.79166 13.5332 9.79166C13.0157 9.79166 12.3543 9.734 11.7815 9.60512C11.495 9.54066 11.2349 9.45931 11.0275 9.36078C10.8173 9.26094 10.6759 9.15034 10.6071 9.03568C10.5618 8.96018 10.4967 8.85109 10.4173 8.71792C10.1909 8.33831 9.8478 7.763 9.51297 7.21215C9.28678 6.84003 9.06381 6.47816 8.88259 6.19443C8.79203 6.05264 8.7114 5.92959 8.64573 5.83421C8.60667 5.7775 8.57054 5.72702 8.53951 5.6876C8.59014 5.53347 8.64724 5.44132 8.70074 5.3866C8.75808 5.32796 8.81663 5.30667 8.87695 5.30165C8.94235 5.2962 9.01255 5.30961 9.09146 5.32933C9.10303 5.33223 9.11536 5.33541 9.128 5.33866C9.1548 5.34557 9.18299 5.35283 9.20835 5.35852C9.22795 5.36292 9.24898 5.36714 9.27065 5.37022C9.28456 5.38697 9.29864 5.40393 9.31287 5.42108C9.58758 5.75222 9.92099 6.15411 10.306 6.45662C10.7289 6.78893 11.2336 7.01684 11.8104 6.88868L11.8104 6.88873L11.8136 6.88793C11.9635 6.85043 12.0785 6.75814 12.1723 6.65632C12.2456 6.57679 12.3134 6.48274 12.3764 6.3953C12.3924 6.37304 12.4082 6.35122 12.4236 6.33016C12.586 6.10879 12.7272 5.95833 12.9499 5.95833C13.0483 5.95833 13.1346 6.00559 13.2283 6.1025C13.3085 6.18546 13.3818 6.29142 13.4651 6.4118C13.4824 6.43672 13.5001 6.46226 13.5183 6.48834C13.7202 6.77668 13.9872 7.12499 14.4666 7.12499C15.1046 7.12499 15.5738 6.74142 15.9037 6.35157C16.0695 6.15555 16.2043 5.95307 16.3107 5.78802C16.3276 5.76185 16.3436 5.73687 16.3588 5.71309C16.3923 5.66077 16.4221 5.61421 16.4494 5.57335C16.468 5.54557 16.4841 5.52259 16.4979 5.50395C16.7393 5.54236 16.9513 5.47448 17.1475 5.37638C17.1778 5.36122 17.2081 5.34517 17.2382 5.32852C17.0665 5.57117 16.8658 5.88027 16.6758 6.22508C16.2798 6.94376 15.914 7.84618 15.9753 8.64291Z" fill="white" stroke="black" stroke-width="0.25"/>
<mask id="path-3-inside-1" fill="white">
<path d="M14.9264 10.2667C14.1097 10.6167 13.1764 10.85 12.5931 10.85H12.3597C12.1264 10.85 11.0764 10.85 10.1431 10.5C5.1264 12.0167 1.39307 17.15 1.39307 20.7667C1.39307 25.0833 6.64307 25.6667 13.0597 25.6667C19.4764 25.6667 24.7264 25.0833 24.7264 20.7667C24.7264 16.9167 20.5264 11.4333 14.9264 10.2667ZM12.5931 16.9167C12.7097 17.0333 12.9431 17.2667 13.2931 17.5C13.9931 17.7333 14.5764 18.0833 14.9264 18.4333C15.2764 18.7833 15.5097 19.3667 15.5097 20.0667C15.5097 20.65 15.2764 21.2333 14.9264 21.5833C14.5764 21.9333 14.1097 22.1667 13.5264 22.2833V23.3333H12.7097V22.2833C12.1264 22.1667 11.5431 21.9333 11.1931 21.5833C10.8431 21.2333 10.6097 20.5333 10.6097 19.8333H12.1264C12.1264 20.3 12.2431 20.65 12.3597 20.8833C12.4764 21.1167 12.8264 21.2333 13.0597 21.2333C13.2931 21.2333 13.5264 21.1167 13.6431 21C13.7597 20.7667 13.8764 20.5333 13.8764 20.3C13.8764 19.95 13.7597 19.7167 13.6431 19.6C13.5264 19.3667 13.2931 19.25 12.9431 19.0167C12.2431 18.7833 11.6597 18.4333 11.3097 18.0833C10.9597 17.7333 10.7264 17.15 10.7264 16.5667C10.7264 15.9833 10.9597 15.4 11.3097 15.05C11.6597 14.7 12.1264 14.4667 12.7097 14.35V13.1833H13.5264V14.35C14.1097 14.4667 14.5764 14.7 14.9264 15.1667C15.2764 15.6333 15.3931 16.1 15.3931 16.8H13.8764C13.8764 16.45 13.7597 16.1 13.6431 15.8667C13.5264 15.6333 13.2931 15.5167 13.0597 15.5167C12.8264 15.5167 12.5931 15.6333 12.4764 15.75C12.3597 15.9833 12.3597 16.2167 12.3597 16.45C12.4764 16.5667 12.4764 16.8 12.5931 16.9167Z"/>
</mask>
<path d="M14.9264 10.2667C14.1097 10.6167 13.1764 10.85 12.5931 10.85H12.3597C12.1264 10.85 11.0764 10.85 10.1431 10.5C5.1264 12.0167 1.39307 17.15 1.39307 20.7667C1.39307 25.0833 6.64307 25.6667 13.0597 25.6667C19.4764 25.6667 24.7264 25.0833 24.7264 20.7667C24.7264 16.9167 20.5264 11.4333 14.9264 10.2667ZM12.5931 16.9167C12.7097 17.0333 12.9431 17.2667 13.2931 17.5C13.9931 17.7333 14.5764 18.0833 14.9264 18.4333C15.2764 18.7833 15.5097 19.3667 15.5097 20.0667C15.5097 20.65 15.2764 21.2333 14.9264 21.5833C14.5764 21.9333 14.1097 22.1667 13.5264 22.2833V23.3333H12.7097V22.2833C12.1264 22.1667 11.5431 21.9333 11.1931 21.5833C10.8431 21.2333 10.6097 20.5333 10.6097 19.8333H12.1264C12.1264 20.3 12.2431 20.65 12.3597 20.8833C12.4764 21.1167 12.8264 21.2333 13.0597 21.2333C13.2931 21.2333 13.5264 21.1167 13.6431 21C13.7597 20.7667 13.8764 20.5333 13.8764 20.3C13.8764 19.95 13.7597 19.7167 13.6431 19.6C13.5264 19.3667 13.2931 19.25 12.9431 19.0167C12.2431 18.7833 11.6597 18.4333 11.3097 18.0833C10.9597 17.7333 10.7264 17.15 10.7264 16.5667C10.7264 15.9833 10.9597 15.4 11.3097 15.05C11.6597 14.7 12.1264 14.4667 12.7097 14.35V13.1833H13.5264V14.35C14.1097 14.4667 14.5764 14.7 14.9264 15.1667C15.2764 15.6333 15.3931 16.1 15.3931 16.8H13.8764C13.8764 16.45 13.7597 16.1 13.6431 15.8667C13.5264 15.6333 13.2931 15.5167 13.0597 15.5167C12.8264 15.5167 12.5931 15.6333 12.4764 15.75C12.3597 15.9833 12.3597 16.2167 12.3597 16.45C12.4764 16.5667 12.4764 16.8 12.5931 16.9167Z" fill="white"/>
<path d="M14.9264 10.2667L14.9774 10.0219L14.9003 10.0059L14.8279 10.0369L14.9264 10.2667ZM10.1431 10.5L10.2308 10.2659L10.1517 10.2362L10.0707 10.2607L10.1431 10.5ZM13.2931 17.5L13.1544 17.708L13.1822 17.7266L13.214 17.7372L13.2931 17.5ZM13.5264 22.2833L13.4774 22.0382L13.2764 22.0784V22.2833H13.5264ZM13.5264 23.3333V23.5833H13.7764V23.3333H13.5264ZM12.7097 23.3333H12.4597V23.5833H12.7097V23.3333ZM12.7097 22.2833H12.9597V22.0784L12.7588 22.0382L12.7097 22.2833ZM10.6097 19.8333V19.5833H10.3597V19.8333H10.6097ZM12.1264 19.8333H12.3764V19.5833H12.1264V19.8333ZM13.6431 21L13.8198 21.1768L13.8485 21.1481L13.8667 21.1118L13.6431 21ZM13.6431 19.6L13.4195 19.7118L13.4376 19.7481L13.4663 19.7768L13.6431 19.6ZM12.9431 19.0167L13.0817 18.8087L13.0539 18.7901L13.0221 18.7795L12.9431 19.0167ZM12.7097 14.35L12.7588 14.5951L12.9597 14.5549V14.35H12.7097ZM12.7097 13.1833V12.9333H12.4597V13.1833H12.7097ZM13.5264 13.1833H13.7764V12.9333H13.5264V13.1833ZM13.5264 14.35H13.2764V14.5549L13.4774 14.5951L13.5264 14.35ZM15.3931 16.8V17.05H15.6431V16.8H15.3931ZM13.8764 16.8H13.6264V17.05H13.8764V16.8ZM12.4764 15.75L12.2996 15.5732L12.2709 15.6019L12.2528 15.6382L12.4764 15.75ZM12.3597 16.45H12.1097V16.5536L12.183 16.6268L12.3597 16.45ZM14.8279 10.0369C14.0277 10.3798 13.1296 10.6 12.5931 10.6V11.1C13.2232 11.1 14.1918 10.8535 15.0249 10.4964L14.8279 10.0369ZM12.5931 10.6H12.3597V11.1H12.5931V10.6ZM12.3597 10.6C12.1269 10.6 11.1177 10.5985 10.2308 10.2659L10.0553 10.7341C11.0351 11.1015 12.1259 11.1 12.3597 11.1V10.6ZM10.0707 10.2607C7.50592 11.0361 5.27838 12.7321 3.69261 14.6884C2.1104 16.6403 1.14307 18.8818 1.14307 20.7667H1.64307C1.64307 19.0349 2.5424 16.9014 4.08102 15.0033C5.61608 13.1095 7.76355 11.4806 10.2154 10.7393L10.0707 10.2607ZM1.14307 20.7667C1.14307 21.9015 1.49011 22.8084 2.12738 23.5201C2.75964 24.2263 3.66146 24.7226 4.74306 25.0732C6.89991 25.7723 9.85375 25.9167 13.0597 25.9167V25.4167C9.84905 25.4167 6.96956 25.2693 4.89724 24.5976C3.86425 24.2628 3.05253 23.8039 2.4999 23.1866C1.95227 22.575 1.64307 21.7902 1.64307 20.7667H1.14307ZM13.0597 25.9167C16.2657 25.9167 19.2196 25.7723 21.3764 25.0732C22.458 24.7226 23.3598 24.2263 23.9921 23.5201C24.6294 22.8084 24.9764 21.9015 24.9764 20.7667H24.4764C24.4764 21.7902 24.1672 22.575 23.6196 23.1866C23.0669 23.8039 22.2552 24.2628 21.2222 24.5976C19.1499 25.2693 16.2704 25.4167 13.0597 25.4167V25.9167ZM24.9764 20.7667C24.9764 18.7609 23.8887 16.3713 22.1145 14.3457C20.336 12.3153 17.8405 10.6184 14.9774 10.0219L14.8754 10.5114C17.6123 11.0816 20.0168 12.7097 21.7383 14.6751C23.4641 16.6453 24.4764 18.9224 24.4764 20.7667H24.9764ZM12.4163 17.0934C12.5358 17.2129 12.7832 17.4605 13.1544 17.708L13.4317 17.292C13.1029 17.0728 12.8837 16.8538 12.7698 16.7399L12.4163 17.0934ZM13.214 17.7372C13.8871 17.9615 14.4336 18.2941 14.7496 18.6101L15.1032 18.2566C14.7192 17.8726 14.099 17.5051 13.3721 17.2628L13.214 17.7372ZM14.7496 18.6101C15.0431 18.9036 15.2597 19.418 15.2597 20.0667H15.7597C15.7597 19.3154 15.5097 18.6631 15.1032 18.2566L14.7496 18.6101ZM15.2597 20.0667C15.2597 20.5918 15.0473 21.1089 14.7496 21.4066L15.1032 21.7601C15.5055 21.3578 15.7597 20.7082 15.7597 20.0667H15.2597ZM14.7496 21.4066C14.441 21.7151 14.0222 21.9292 13.4774 22.0382L13.5754 22.5285C14.1973 22.4041 14.7118 22.1515 15.1032 21.7601L14.7496 21.4066ZM13.2764 22.2833V23.3333H13.7764V22.2833H13.2764ZM13.5264 23.0833H12.7097V23.5833H13.5264V23.0833ZM12.9597 23.3333V22.2833H12.4597V23.3333H12.9597ZM12.7588 22.0382C12.1958 21.9256 11.6691 21.7058 11.3698 21.4066L11.0163 21.7601C11.417 22.1608 12.057 22.4077 12.6607 22.5285L12.7588 22.0382ZM11.3698 21.4066C11.0833 21.12 10.8597 20.4948 10.8597 19.8333H10.3597C10.3597 20.5719 10.6029 21.3467 11.0163 21.7601L11.3698 21.4066ZM10.6097 20.0833H12.1264V19.5833H10.6097V20.0833ZM11.8764 19.8333C11.8764 20.3432 12.0042 20.7312 12.1361 20.9951L12.5833 20.7715C12.482 20.5688 12.3764 20.2568 12.3764 19.8333H11.8764ZM12.1361 20.9951C12.2306 21.184 12.4056 21.3037 12.5644 21.3743C12.7265 21.4463 12.9068 21.4833 13.0597 21.4833V20.9833C12.9793 20.9833 12.868 20.962 12.7675 20.9174C12.6639 20.8713 12.6056 20.816 12.5833 20.7715L12.1361 20.9951ZM13.0597 21.4833C13.3637 21.4833 13.6594 21.3372 13.8198 21.1768L13.4663 20.8232C13.3934 20.8962 13.2224 20.9833 13.0597 20.9833V21.4833ZM13.8667 21.1118C13.9761 20.893 14.1264 20.6038 14.1264 20.3H13.6264C13.6264 20.4628 13.5434 20.6403 13.4195 20.8882L13.8667 21.1118ZM14.1264 20.3C14.1264 19.8964 13.9917 19.5951 13.8198 19.4232L13.4663 19.7768C13.5278 19.8383 13.6264 20.0036 13.6264 20.3H14.1264ZM13.8667 19.4882C13.7841 19.3231 13.6632 19.2078 13.5306 19.1083C13.4071 19.0158 13.2419 18.9154 13.0817 18.8087L12.8044 19.2247C12.9942 19.3512 13.1207 19.4259 13.2306 19.5083C13.3313 19.5839 13.3853 19.6435 13.4195 19.7118L13.8667 19.4882ZM13.0221 18.7795C12.349 18.5551 11.8025 18.2226 11.4865 17.9066L11.133 18.2601C11.5169 18.6441 12.1371 19.0115 12.864 19.2538L13.0221 18.7795ZM11.4865 17.9066C11.1888 17.6089 10.9764 17.0918 10.9764 16.5667H10.4764C10.4764 17.2082 10.7307 17.8578 11.133 18.2601L11.4865 17.9066ZM10.9764 16.5667C10.9764 16.0416 11.1888 15.5245 11.4865 15.2268L11.133 14.8732C10.7307 15.2755 10.4764 15.9251 10.4764 16.5667H10.9764ZM11.4865 15.2268C11.7951 14.9182 12.2139 14.7041 12.7588 14.5951L12.6607 14.1049C12.0389 14.2292 11.5244 14.4818 11.133 14.8732L11.4865 15.2268ZM12.9597 14.35V13.1833H12.4597V14.35H12.9597ZM12.7097 13.4333H13.5264V12.9333H12.7097V13.4333ZM13.2764 13.1833V14.35H13.7764V13.1833H13.2764ZM13.4774 14.5951C14.019 14.7035 14.4233 14.9125 14.7264 15.3167L15.1264 15.0167C14.7295 14.4875 14.2005 14.2299 13.5754 14.1049L13.4774 14.5951ZM14.7264 15.3167C15.0341 15.7269 15.1431 16.1349 15.1431 16.8H15.6431C15.6431 16.0651 15.5187 15.5398 15.1264 15.0167L14.7264 15.3167ZM15.3931 16.55H13.8764V17.05H15.3931V16.55ZM14.1264 16.8C14.1264 16.4003 13.995 16.0116 13.8667 15.7549L13.4195 15.9785C13.5244 16.1884 13.6264 16.4997 13.6264 16.8H14.1264ZM13.8667 15.7549C13.7018 15.4251 13.3739 15.2667 13.0597 15.2667V15.7667C13.2122 15.7667 13.351 15.8416 13.4195 15.9785L13.8667 15.7549ZM13.0597 15.2667C12.7558 15.2667 12.46 15.4128 12.2996 15.5732L12.6532 15.9268C12.7261 15.8538 12.897 15.7667 13.0597 15.7667V15.2667ZM12.2528 15.6382C12.1061 15.9316 12.1097 16.223 12.1097 16.45H12.6097C12.6097 16.2104 12.6134 16.035 12.7 15.8618L12.2528 15.6382ZM12.183 16.6268C12.1828 16.6266 12.1846 16.6284 12.188 16.6337C12.1915 16.6391 12.196 16.6472 12.2014 16.6592C12.2132 16.6852 12.2238 16.7161 12.2392 16.7624C12.2633 16.8345 12.3081 16.9853 12.4163 17.0934L12.7698 16.7399C12.77 16.74 12.7682 16.7383 12.7648 16.733C12.7613 16.7276 12.7568 16.7195 12.7514 16.7075C12.7396 16.6814 12.729 16.6505 12.7136 16.6043C12.6895 16.5322 12.6447 16.3814 12.5365 16.2732L12.183 16.6268Z" fill="black" mask="url(#path-3-inside-1)"/>
</svg>
