<svg width="28" height="27" viewBox="0 0 28 27" fill="none" xmlns="http://www.w3.org/2000/svg">
<path d="M19.4471 5.66998V7.55998H18.3671V5.66998H17.2871V7.55998H16.2071V5.66998H15.1271V7.55998H14.0471V5.66998H12.9671V7.55998H11.8871V5.66998H10.8071V7.55998H9.72715V5.66998H8.64715V7.55998H7.56715V5.66998H5.40715V6.47998H4.32715V22.14H20.5271V21.06H21.6071V8.90998V5.66998H19.4471ZM19.9871 21.6H4.86715V9.98998H5.40715V21.06H19.9871V21.6ZM21.0671 20.52H5.94715V8.90998H21.0671V20.52Z" fill="white" fill-opacity="0.88"/>
<path d="M10.5371 4.59H9.99707V7.28999H10.5371V4.59Z" fill="white" fill-opacity="0.88"/>
<path d="M12.6972 4.59H12.1572V7.28999H12.6972V4.59Z" fill="white" fill-opacity="0.88"/>
<path d="M14.8574 4.59H14.3174V7.28999H14.8574V4.59Z" fill="white" fill-opacity="0.88"/>
<path d="M17.0175 4.59H16.4775V7.28999H17.0175V4.59Z" fill="white" fill-opacity="0.88"/>
<path d="M19.1767 4.59H18.6367V7.28999H19.1767V4.59Z" fill="white" fill-opacity="0.88"/>
<path d="M8.64738 11.07H7.56738V12.15H8.64738V11.07Z" fill="white" fill-opacity="0.88"/>
<path d="M10.8075 11.07H9.72754V12.15H10.8075V11.07Z" fill="white" fill-opacity="0.88"/>
<path d="M12.9667 11.07H11.8867V12.15H12.9667V11.07Z" fill="white" fill-opacity="0.88"/>
<path d="M15.1269 11.07H14.0469V12.15H15.1269V11.07Z" fill="white" fill-opacity="0.88"/>
<path d="M17.287 11.07H16.207V12.15H17.287V11.07Z" fill="white" fill-opacity="0.88"/>
<path d="M19.4472 11.07H18.3672V12.15H19.4472V11.07Z" fill="white" fill-opacity="0.88"/>
<path d="M8.64738 13.23H7.56738V14.31H8.64738V13.23Z" fill="white" fill-opacity="0.88"/>
<path d="M10.8075 13.23H9.72754V14.31H10.8075V13.23Z" fill="white" fill-opacity="0.88"/>
<path d="M12.9667 13.23H11.8867V14.31H12.9667V13.23Z" fill="white" fill-opacity="0.88"/>
<path d="M15.1269 13.23H14.0469V14.31H15.1269V13.23Z" fill="white" fill-opacity="0.88"/>
<path d="M17.287 13.23H16.207V14.31H17.287V13.23Z" fill="white" fill-opacity="0.88"/>
<path d="M19.4472 13.23H18.3672V14.31H19.4472V13.23Z" fill="white" fill-opacity="0.88"/>
<path d="M8.64738 15.39H7.56738V16.47H8.64738V15.39Z" fill="white" fill-opacity="0.88"/>
<path d="M10.8075 15.39H9.72754V16.47H10.8075V15.39Z" fill="white" fill-opacity="0.88"/>
<path d="M12.9667 15.39H11.8867V16.47H12.9667V15.39Z" fill="white" fill-opacity="0.88"/>
<path d="M15.1269 15.39H14.0469V16.47H15.1269V15.39Z" fill="white" fill-opacity="0.88"/>
<path d="M17.287 15.39H16.207V16.47H17.287V15.39Z" fill="white" fill-opacity="0.88"/>
<path d="M19.4472 15.39H18.3672V16.47H19.4472V15.39Z" fill="white" fill-opacity="0.88"/>
<path d="M8.64738 17.55H7.56738V18.63H8.64738V17.55Z" fill="white" fill-opacity="0.88"/>
<path d="M10.8075 17.55H9.72754V18.63H10.8075V17.55Z" fill="white" fill-opacity="0.88"/>
<path d="M12.9667 17.55H11.8867V18.63H12.9667V17.55Z" fill="white" fill-opacity="0.88"/>
<path d="M15.1269 17.55H14.0469V18.63H15.1269V17.55Z" fill="white" fill-opacity="0.88"/>
<path d="M17.287 17.55H16.207V18.63H17.287V17.55Z" fill="white" fill-opacity="0.88"/>
<path d="M19.4472 17.55H18.3672V18.63H19.4472V17.55Z" fill="white" fill-opacity="0.88"/>
<path d="M10.2668 12.825C10.9366 12.825 11.4818 12.2799 11.4818 11.61C11.4818 10.9401 10.9366 10.395 10.2668 10.395C9.59689 10.395 9.05176 10.9401 9.05176 11.61C9.05176 12.2799 9.59689 12.825 10.2668 12.825ZM10.2668 10.665C10.7879 10.665 11.2118 11.0889 11.2118 11.61C11.2118 12.1311 10.7879 12.555 10.2668 12.555C9.74566 12.555 9.32176 12.1311 9.32176 11.61C9.32176 11.0889 9.74566 10.665 10.2668 10.665Z" fill="white" fill-opacity="0.88"/>
<path d="M14.5861 17.145C15.256 17.145 15.8011 16.5999 15.8011 15.93C15.8011 15.2601 15.256 14.715 14.5861 14.715C13.9162 14.715 13.3711 15.2601 13.3711 15.93C13.3711 16.5999 13.9162 17.145 14.5861 17.145ZM14.5861 14.985C15.1072 14.985 15.5311 15.4089 15.5311 15.93C15.5311 16.4511 15.1072 16.875 14.5861 16.875C14.065 16.875 13.6411 16.4511 13.6411 15.93C13.6411 15.4089 14.065 14.985 14.5861 14.985Z" fill="white" fill-opacity="0.88"/>
<path d="M8.37691 4.59H7.83691V7.28999H8.37691V4.59Z" fill="white" fill-opacity="0.88"/>
</svg>
