<svg width="15" height="15" viewBox="0 0 15 15" fill="none" xmlns="http://www.w3.org/2000/svg">
<path d="M12.2285 6.5625H8.4375V2.77148C8.4375 2.27637 8.01855 1.875 7.5 1.875C6.98145 1.875 6.5625 2.27637 6.5625 2.77148V6.5625H2.77148C2.27637 6.5625 1.875 6.98145 1.875 7.5C1.875 8.01855 2.27637 8.4375 2.77148 8.4375H6.5625V12.2285C6.5625 12.7236 6.98145 13.125 7.5 13.125C8.01855 13.125 8.4375 12.7236 8.4375 12.2285V8.4375H12.2285C12.7236 8.4375 13.125 8.01855 13.125 7.5C13.125 6.98145 12.7236 6.5625 12.2285 6.5625Z" fill="black"/>
</svg>
