<svg width="20" height="20" viewBox="0 0 20 20" fill="none" xmlns="http://www.w3.org/2000/svg">
<path d="M9.94767 9.9104C4.961 9.9104 1.63184 11.6196 1.63184 11.6196C1.63184 16.2404 5.37892 19.9871 9.99975 19.9871C14.6214 19.9871 18.3681 16.2404 18.3681 11.6196C18.3681 11.6196 14.9339 9.9104 9.94767 9.9104ZM9.9735 12.4692C6.15475 12.4562 2.86059 11.7108 2.86059 11.7108C2.86059 11.7108 5.711 10.7692 9.94725 10.7692C14.1835 10.7692 17.086 11.7108 17.086 11.7108C17.086 11.7108 13.7923 12.4821 9.9735 12.4692Z" fill="white"/>
<path d="M7.96974 1.69083L8.28849 2.49333L8.42349 2.83374L10.0218 6.86666L10.151 7.19374L10.4189 7.86874C10.5143 8.61916 10.0522 9.04874 10.0522 9.04874L11.6081 8.43249L11.6097 8.41624C11.9864 8.22833 12.1697 7.79499 12.0256 7.39458L12.0306 7.39291L11.7077 6.57666L11.5777 6.24999L9.97932 2.21708L9.84349 1.87708L9.75182 1.64583C9.34265 0.612909 10.0052 0.0129089 10.0052 0.0129089L8.44932 0.629159C8.02849 0.796659 7.82265 1.26583 7.97474 1.68916L7.96974 1.69083Z" fill="white"/>
<path d="M12.3675 4.10624L12.5817 4.64541L12.6721 4.87416L13.7454 7.58249L13.8325 7.80207L14.0125 8.25541C14.0767 8.75957 13.7658 9.04791 13.7658 9.04791L14.8117 8.63374L14.8125 8.62332C15.0654 8.49749 15.1883 8.20666 15.0917 7.93707L15.095 7.93624L14.8779 7.38791L14.7908 7.16874L13.7175 4.45999L13.6271 4.23207L13.5654 4.07666C13.2904 3.38207 13.7354 2.97916 13.7354 2.97916L12.6904 3.39374C12.4071 3.50582 12.2696 3.82207 12.3713 4.10541L12.3675 4.10624Z" fill="white"/>
<path d="M5.9878 4.10624L6.20197 4.64541L6.29197 4.87416L7.36572 7.58249L7.45238 7.80207L7.63322 8.25541C7.69697 8.75957 7.38655 9.04791 7.38655 9.04791L8.43155 8.63374L8.43238 8.62332C8.68572 8.49749 8.80822 8.20666 8.71197 7.93707L8.7153 7.93624L8.4978 7.38791L8.41113 7.16874L7.33738 4.45999L7.24655 4.23207L7.1853 4.07666C6.90988 3.38207 7.3553 2.97916 7.3553 2.97916L6.3103 3.39374C6.02738 3.50582 5.88947 3.82207 5.99155 4.10541L5.9878 4.10624Z" fill="white"/>
</svg>
