<svg width="56" height="56" viewBox="0 0 56 56" fill="none" xmlns="http://www.w3.org/2000/svg">
<path d="M27.5068 55.49C42.6947 55.49 55.0068 43.1778 55.0068 27.99C55.0068 12.8022 42.6947 0.490005 27.5068 0.490005C12.319 0.490005 0.00683594 12.8022 0.00683594 27.99C0.00683594 43.1778 12.319 55.49 27.5068 55.49Z" fill="#4B5F83"/>
<path d="M27.5068 43.0291H42.5459C42.5459 36.1541 38.0771 30.5681 31.9756 28.6775C34.4248 27.1306 36.1006 24.4236 36.1006 21.3299C36.1006 16.6033 32.2334 12.7361 27.5068 12.7361" fill="#E6E6E6"/>
<path d="M27.5068 12.7361C22.7803 12.7361 18.9131 16.6033 18.9131 21.3299C18.9131 24.4236 20.5889 27.1736 23.0381 28.6775C16.9365 30.5681 12.4678 36.1541 12.4678 43.0291H27.5068" fill="white"/>
</svg>
