<svg id="Слой_1" data-name="Слой 1" xmlns="http://www.w3.org/2000/svg" viewBox="0 0 959.06 473.05"><defs><style>.cls-1{fill:#2f4885;}.cls-2{fill:#578fcb;}</style></defs><title>Лого_02V</title><rect class="cls-1" x="1.11" y="0.11" width="64.57" height="58.34"/><rect class="cls-2" x="95.42" y="0.12" width="64.57" height="58.34"/><rect class="cls-1" x="95.63" y="87.78" width="64.57" height="58.34"/><rect class="cls-2" x="189.57" y="88.16" width="64.57" height="58.34"/><path class="cls-1" d="M183.52,214.78v58.34q0,20.34,6.72,27t27,6.71h43.26v58.34H201.88q-46.88,0-66.21-23.6-17-21-17-68.51L119,214.78h64.57Z" transform="translate(-23.35 -35.09)"/><path class="cls-1" d="M94.48,248.74c-4.35-13.62-4.95-25.18-5.85-45.21-0.43-9.6-.44-17.52-0.38-22.83V122.36H23.68L23.35,180.7q0,47.54,17,68.51c12.35,15.07,36.3,23.29,65.49,23.93A107.08,107.08,0,0,1,94.48,248.74Z" transform="translate(-23.35 -35.09)"/><path class="cls-1" d="M546.13,63.93q30.61,28.83,30.61,72.62,0,40.68-31.06,72.18t-69.49,31.51H352.83v-34a45.78,45.78,0,0,1,45.58-45.58H466.8q10.27,0,16.08-6.71a24.32,24.32,0,0,0,5.81-16.53q0-10.28-5.81-16.53t-16.08-6.26h-114V35.09h122.9Q515.5,35.09,546.13,63.93Z" transform="translate(-23.35 -35.09)"/><rect class="cls-1" x="329.48" y="251.17" width="221.68" height="79.56"/><rect class="cls-2" x="605.47" y="250.13" width="87.15" height="79.56"/><path class="cls-1" d="M949.11,62.46q-33.3-27-86.5-27-53.64,0-85.64,26-35,28.11-35,79.15V259.47q0,50.19,34.6,78.29,32.87,26.38,86.08,26.39,52.76,0,85.21-26.39,34.6-28.11,34.6-78.29V140.52Q982.41,89.49,949.11,62.46ZM897.2,252.55q0,14.7-9.94,24.65t-24.66,10a34.9,34.9,0,0,1-25.09-10,32.76,32.76,0,0,1-10.38-24.65V146.15a33.09,33.09,0,0,1,9.73-23.58q9.74-10.15,25.74-10.16t25.3,10.16a34.4,34.4,0,0,1,9.29,24v106Z" transform="translate(-23.35 -35.09)"/><path class="cls-1" d="M31.51,491.29H24V434.15h7.54v57.14Z" transform="translate(-23.35 -35.09)"/><path class="cls-1" d="M55.67,456.3c3.45-5.06,7.78-7.54,14.12-7.54,10.11,0,13.8,5.54,13.8,15v27.53H76.78V466.9c0-6.58-.32-12.2-8.91-12.2-8.91,0-11.8,6.74-11.8,14.93v21.67H49.25V449.88h6.42v6.42Z" transform="translate(-23.35 -35.09)"/><path class="cls-1" d="M118.59,439.93a23.6,23.6,0,0,0-3.77-.32c-4.33,0-5.22,1-5.22,5.54v4.73h7.95v5.62h-7.95v35.79h-6.9V455.5h-7v-5.62h7v-5.54c0-7.71,4.17-10.67,11.48-10.67a30,30,0,0,1,4.41.32v5.94Z" transform="translate(-23.35 -35.09)"/><path class="cls-1" d="M167.63,470.34c0,14-7.3,22.23-19.9,22.23s-20.22-8.19-20.22-21.83,7.78-22.07,20.3-22.07S167.63,456.62,167.63,470.34Zm-33.06.24c0,10.19,4.9,16.21,13.24,16.21,8,0,12.84-6.1,12.84-16.29,0-9.87-5-16.13-13-16.13S134.57,460.72,134.57,470.59Z" transform="translate(-23.35 -35.09)"/><path class="cls-1" d="M203.35,456a13,13,0,0,0-1.77-.08c-11.23,0-13.24,8.59-13.24,17.9v17.49h-6.82V449.88H188v8.91c2.89-7,7.94-9.87,15.33-9.87V456Z" transform="translate(-23.35 -35.09)"/><path class="cls-1" d="M220.93,455.9c3.53-4.73,7.38-7.06,13.48-7.06,5.54,0,9.39,2.17,11.48,7.14,3.53-4.73,7.54-7.22,13.72-7.22,8.75,0,13.08,5.14,13.08,13.56v29h-6.82V465.21c0-5.86-.88-10.35-8.27-10.35-7.78,0-10.59,5.3-10.59,12.92v23.51h-6.82V464.73c0-5.46-1-9.79-7.62-9.79-9.15,0-11.23,6.66-11.23,14.45v21.91h-6.82V449.88h6.42v6Z" transform="translate(-23.35 -35.09)"/><path class="cls-1" d="M325.66,491.13a13.19,13.19,0,0,1-4.65.8c-3.85,0-5.94-2.17-6-6.1-4.09,4.58-8.59,6.58-15,6.58-8.19,0-13.24-4.49-13.24-11.72,0-7.38,4.9-11.72,14.69-12.92s13.24-1,13.24-6.58c0-4.41-3.29-6.82-9.39-6.82-6.34,0-9.63,2.33-10.27,8.43h-6.66c0.24-8.83,6.66-14,17.33-14,5.54,0,10.27,1.45,13,4,2.89,2.81,2.81,7.06,2.81,10.75,0,6.18-.32,12.28-0.32,18.46,0,3,.72,4.09,2.81,4.09a6.55,6.55,0,0,0,1.69-.24v5.3Zm-20.14-18.86c-5,.64-11.72,1.2-11.72,7.86,0,4.25,3.13,6.9,8.27,6.9,6.42,0,12.6-4.41,12.6-9.71v-7.54C312.1,471.71,308.57,471.87,305.52,472.27Z" transform="translate(-23.35 -35.09)"/><path class="cls-1" d="M355.84,455.5h-8.26v24.15c0,3.77-.24,6.1,4.57,6.1a29.79,29.79,0,0,0,3.69-.24v5.86a37.84,37.84,0,0,1-5.22.32c-10.35,0-9.87-5.14-9.87-14.21v-22h-7v-5.62h7V437.6h6.82v12.28h8.26v5.62Z" transform="translate(-23.35 -35.09)"/><path class="cls-1" d="M376.63,442.5h-6.9v-8.34h6.9v8.34Zm0,48.79h-6.9V449.88h6.9v41.41Z" transform="translate(-23.35 -35.09)"/><path class="cls-1" d="M431.2,470.34c0,14-7.3,22.23-19.9,22.23s-20.22-8.19-20.22-21.83,7.78-22.07,20.3-22.07S431.2,456.62,431.2,470.34Zm-33.06.24c0,10.19,4.9,16.21,13.24,16.21,8,0,12.84-6.1,12.84-16.29,0-9.87-5-16.13-13-16.13S398.14,460.72,398.14,470.59Z" transform="translate(-23.35 -35.09)"/><path class="cls-1" d="M451.75,456.3c3.45-5.06,7.78-7.54,14.12-7.54,10.11,0,13.8,5.54,13.8,15v27.53h-6.82V466.9c0-6.58-.32-12.2-8.91-12.2-8.91,0-11.8,6.74-11.8,14.93v21.67h-6.82V449.88h6.42v6.42Z" transform="translate(-23.35 -35.09)"/><path class="cls-1" d="M565.15,440.73H546v50.56h-7.54V440.73H519.25v-6.58h45.9v6.58Z" transform="translate(-23.35 -35.09)"/><path class="cls-1" d="M584.82,492.66c-12.2,0-19.5-8-19.5-21.51s7.79-22.47,19.26-22.47c13.64,0,18.78,10.83,18.78,22.79v1H572.22l-0.08.48c0,8.83,4.9,14.12,12.92,14.12,5.94,0,9.23-2.57,11.15-8.83h6.66C600.79,487.76,594.61,492.66,584.82,492.66Zm-0.4-38.36c-6.66,0-11.32,4.81-12.2,12.6H596.3C595.66,459,591.24,454.3,584.42,454.3Z" transform="translate(-23.35 -35.09)"/><path class="cls-1" d="M634.18,492.49c-12.84,0-19.66-8.75-19.66-21.35,0-13.8,7.71-22.47,19.9-22.47,10.11,0,16.45,5.3,17.58,14.69h-7.06c-1.2-5.86-4.81-9-10.43-9-7.87,0-12.84,6.26-12.84,16.21,0,10.11,4.66,16.21,12.36,16.21,6.18,0,10.27-3.77,11.32-10.59h6.9C651,486.07,644.46,492.49,634.18,492.49Z" transform="translate(-23.35 -35.09)"/><path class="cls-1" d="M672.55,455.74c3-4.58,7.62-6.9,13.56-6.9,9.87,0,14,5.46,14,14.13v28.33h-6.82V464.57c0-5.7-1.68-9.79-9.07-9.79-8.75,0-11.64,6.1-11.64,15.49v21h-6.82V434.15h6.82v21.59Z" transform="translate(-23.35 -35.09)"/><path class="cls-1" d="M722.79,456.3c3.45-5.06,7.78-7.54,14.12-7.54,10.11,0,13.8,5.54,13.8,15v27.53H743.9V466.9c0-6.58-.32-12.2-8.91-12.2-8.91,0-11.8,6.74-11.8,14.93v21.67h-6.82V449.88h6.42v6.42Z" transform="translate(-23.35 -35.09)"/><path class="cls-1" d="M805,470.34c0,14-7.3,22.23-19.9,22.23s-20.22-8.19-20.22-21.83,7.79-22.07,20.3-22.07S805,456.62,805,470.34Zm-33.06.24c0,10.19,4.89,16.21,13.24,16.21,8,0,12.84-6.1,12.84-16.29,0-9.87-5-16.13-13-16.13S771.91,460.72,771.91,470.59Z" transform="translate(-23.35 -35.09)"/><path class="cls-1" d="M826.33,491.29h-6.9V434.15h6.9v57.14Z" transform="translate(-23.35 -35.09)"/><path class="cls-1" d="M880.9,470.34c0,14-7.3,22.23-19.9,22.23s-20.22-8.19-20.22-21.83,7.79-22.07,20.3-22.07S880.9,456.62,880.9,470.34Zm-33.06.24c0,10.19,4.89,16.21,13.24,16.21,8,0,12.84-6.1,12.84-16.29,0-9.87-5-16.13-13-16.13S847.83,460.72,847.83,470.59Z" transform="translate(-23.35 -35.09)"/><path class="cls-1" d="M930.9,486.8c0,7.14-.64,10.43-2.65,13.8-3,4.89-8.75,7.54-16.37,7.54-8.35,0-16.21-2.89-17.41-12.2h7c0.8,4.74,4.25,6.9,10.67,6.9,8.51,0,12-4,12.2-13.56l0.08-5.06c-2.73,5.22-6.9,7.54-13.16,7.54-11.07,0-18.22-8.19-18.22-21,0-11.23,6.18-22,18.54-22,5.7,0,10.51,2.57,13.08,7.14v-6h6.26V486.8Zm-30.9-16c0,9.15,4.81,15.09,12,15.09,7.54,0,12.2-6.18,12.2-16.21,0-9.39-4.58-15-12.36-15C904.5,454.7,900,460.8,900,470.83Z" transform="translate(-23.35 -35.09)"/><path class="cls-1" d="M963.65,496.59c-2.25,5.86-4.58,11.4-12,11.4a21.33,21.33,0,0,1-5.06-.72v-6.1A14.9,14.9,0,0,0,951,502a5.31,5.31,0,0,0,4.81-3.45l3.21-7.54-16.45-41.17h7.71l12.28,33,11.64-33h7.14Z" transform="translate(-23.35 -35.09)"/></svg>