<svg width="46" height="46" viewBox="0 0 46 46" fill="none" xmlns="http://www.w3.org/2000/svg">
<path fill-rule="evenodd" clip-rule="evenodd" d="M36.2691 31.625C33.8844 31.625 31.8253 28.75 29.3887 28.75C26.9521 28.75 25.0267 31.625 22.5084 31.625C19.9901 31.625 18.2586 28.75 15.6281 28.75C12.9976 28.75 11.6254 31.625 9.23912 31.625C6.85289 31.625 3.83317 28.75 3.83317 28.75L8.74767 44.0833H37.252L42.1665 28.75C42.1665 28.75 38.6538 31.625 36.2691 31.625ZM29.4178 30.6666C26.9702 30.6666 25.0359 33.5416 22.5062 33.5416C19.9764 33.5416 18.2369 30.6666 15.5945 30.6666C12.9521 30.6666 11.5737 33.5416 9.17665 33.5416C6.77957 33.5416 6.70817 32.5833 6.70817 32.5833L9.67032 42.1666H36.3293L39.2915 32.5833C39.2915 32.5833 38.7249 33.5416 36.3293 33.5416C33.9338 33.5416 31.8655 30.6666 29.4178 30.6666ZM22.9998 5.74996C6.09517 5.74996 1.9165 19.0749 1.9165 21.8063C1.9165 24.5376 3.83317 26.7898 3.83317 26.7898H5.74984C5.74984 26.7898 3.83317 24.0889 3.83317 21.8063C3.83317 19.5236 6.66637 7.73038 22.9998 7.73038C39.3333 7.73038 42.1665 19.4153 42.1665 21.8063C42.1665 24.1973 41.2082 26.8333 41.2082 26.8333H43.1248C43.1248 26.8333 44.0832 24.3149 44.0832 21.8063C44.0832 19.2976 39.9045 5.74996 22.9998 5.74996ZM25.8748 3.83329C25.8748 3.83329 25.8749 1.91663 23.0517 1.91663C20.2284 1.91663 20.1248 3.83329 20.1248 3.83329H25.8748Z" fill="#043DA0"/>
</svg>
