<svg width="46" height="46" viewBox="0 0 46 46" fill="none" xmlns="http://www.w3.org/2000/svg">
<path d="M34.1766 37.9285L34.1766 37.9282L34.1767 37.928L34.1767 37.9279L34.2649 37.5764L33.9574 37.3834L27.6658 33.4335L31.8005 28.6721L31.4924 29.0659L37.1812 33.5178L37.3966 33.6863L37.6542 33.596L37.6543 33.596L37.6544 33.596L37.6547 33.5959L37.6559 33.5955L37.6651 33.5924C37.6737 33.5895 37.6874 33.5849 37.7058 33.5789C37.7427 33.567 37.7986 33.5495 37.8712 33.5282C38.0164 33.4857 38.2277 33.4285 38.4865 33.3718C39.0066 33.2577 39.7063 33.148 40.4418 33.1567C41.9192 33.1742 43.408 33.6541 44.0404 35.388C44.3732 36.3011 44.3236 36.9266 44.1377 37.3608C43.9488 37.8022 43.584 38.1276 43.1333 38.3676C42.6818 38.608 42.1776 38.7441 41.7746 38.819C41.5755 38.856 41.4065 38.8771 41.2886 38.8889C41.2298 38.8948 41.1841 38.8983 41.154 38.9003L41.1212 38.9023L41.1143 38.9026L41.1141 38.9026L41.1138 38.9026L41.1135 38.9026L41.1134 38.9027L40.3931 38.9305L40.6725 39.5958C41.2968 41.0829 40.7848 42.4212 39.776 43.227C38.7547 44.0427 37.2403 44.2959 35.8886 43.5552L35.8883 43.555C34.5607 42.8289 34.1093 41.4894 34.0116 40.2289C33.9632 39.6046 34.0048 39.0252 34.0594 38.6C34.0866 38.3883 34.1168 38.2169 34.1398 38.1C34.1512 38.0415 34.1609 37.9968 34.1675 37.9676L34.1748 37.9358L34.1765 37.929L34.1766 37.9285Z" fill="white" stroke="black"/>
<path d="M35.3402 44.5565L35.3402 44.5565C36.0459 44.9429 36.8204 45.132 37.5887 45.132C38.7153 45.132 39.8266 44.7272 40.694 43.944L40.6943 43.9437C41.7407 43.0008 42.2126 41.7126 42.0546 40.3902L42.0026 39.9546L42.4277 39.8463C43.3084 39.6221 44.3335 39.1688 44.9338 38.2755C45.3205 37.6991 45.7145 36.6498 45.1123 34.9972C44.5055 33.3326 43.3011 32.5248 41.9406 32.1952C40.5559 31.8598 39.0179 32.0268 37.8528 32.341L37.6113 32.4062L37.4144 32.252L32.1971 28.1673C32.1969 28.1672 32.1968 28.1671 32.1967 28.167C31.9162 27.9488 31.5135 27.9981 31.2952 28.2767L35.3402 44.5565ZM35.3402 44.5565C34.0208 43.8341 33.371 42.7071 33.0712 41.5482C32.7683 40.3776 32.8296 39.1938 32.9299 38.4301L32.9716 38.1121L32.7 37.9415L26.993 34.3586M35.3402 44.5565L26.993 34.3586M26.993 34.3586C26.6929 34.1702 26.6025 33.7737 26.7905 33.4745C26.9789 33.1747 27.3751 33.0844 27.6742 33.2724L27.6744 33.2725L34.0316 37.2631M26.993 34.3586L34.0316 37.2631M34.0316 37.2631C34.0316 37.2631 34.0317 37.2632 34.0317 37.2632C34.2674 37.4115 34.3806 37.6934 34.3132 37.9633L34.3124 37.9666C34.3034 38.0036 34.0739 38.977 34.146 40.1179C34.2171 41.243 34.5953 42.6865 35.9568 43.4318M34.0316 37.2631L35.9568 43.4318M35.9568 43.4318C37.4163 44.2314 38.9561 43.7845 39.8355 42.9918L35.9568 43.4318ZM40.5421 39.6506L40.5422 39.6508C40.9029 40.5091 40.853 41.2493 40.6346 41.8321C40.4218 42.3999 40.061 42.7887 39.8357 42.9916L40.5421 39.6506ZM40.5421 39.6506C40.4606 39.457 40.4791 39.2359 40.5926 39.0583L40.5934 39.057M40.5421 39.6506L40.5934 39.057M40.5934 39.057C40.705 38.8812 40.8977 38.7703 41.1083 38.762L41.1083 38.762M40.5934 39.057L41.1083 38.762M41.1083 38.762L41.1126 38.7618M41.1083 38.762L41.1126 38.7618M41.1126 38.7618C41.3795 38.7491 41.8923 38.6805 42.4113 38.5149C42.9096 38.3559 43.5289 38.0721 43.8726 37.5558L43.8728 37.5555M41.1126 38.7618L43.8728 37.5555M43.8728 37.5555C44.2602 36.9729 44.19 36.2121 43.9075 35.4369L43.9075 35.4367M43.8728 37.5555L43.9075 35.4367M43.9075 35.4367C43.2644 33.6732 41.6287 33.2785 40.3172 33.2851C38.9972 33.2917 37.8085 33.6927 37.6999 33.7303C37.4936 33.8018 37.2641 33.7635 37.0936 33.6301L31.4053 29.1767L31.4053 29.1767M43.9075 35.4367L31.4053 29.1767M31.4053 29.1767C31.1266 28.9585 31.0775 28.5549 31.2951 28.2768L31.4053 29.1767Z" fill="#434B56" stroke="black"/>
<path d="M31.5295 29.2479C32.172 28.0807 32.4778 26.585 31.2975 25.1301C29.25 22.6102 28.8148 19.7281 28.3636 16.7396C27.744 12.6362 27.0941 8.33198 22.1986 4.48878L31.5295 29.2479ZM31.5295 29.2479C30.8233 30.5344 29.7082 31.422 29.7082 31.422L31.5295 29.2479ZM21.8899 4.88216C17.2893 1.27272 13.3715 1.41364 10.6139 2.4045C9.22002 2.90534 8.10585 3.63025 7.33925 4.2319C6.95664 4.53218 6.66267 4.80013 6.46592 4.99127C6.3676 5.08678 6.29373 5.16294 6.24538 5.21415C6.22122 5.23974 6.20344 5.25909 6.1922 5.27148L6.18025 5.28475L6.17821 5.28704L6.17799 5.2873L6.17792 5.28737L6.17779 5.28753L6.17195 5.29421L6.17188 5.29414L6.17101 5.29511L6.16581 5.3009L6.14291 5.32675C6.12224 5.35025 6.09097 5.38622 6.05031 5.43412C5.96898 5.52994 5.85016 5.67345 5.70356 5.86052C5.4102 6.23484 5.0064 6.78255 4.56928 7.47073C3.69313 8.85011 2.69317 10.7781 2.17174 12.9944C1.65134 15.2063 1.60977 17.6935 2.63122 20.2166C3.65048 22.7343 5.74822 25.3373 9.59195 27.7528L9.59689 27.7552L9.6789 27.7955C9.75095 27.8309 9.85708 27.883 9.99319 27.9497C10.2654 28.083 10.6576 28.2744 11.1369 28.5068C12.0956 28.9717 13.4026 29.6004 14.7962 30.2559C17.6008 31.575 20.7036 32.977 22.0552 33.3954C23.4232 33.8172 24.7413 34.0503 25.9506 33.795C27.1319 33.5457 28.2768 32.8153 29.2809 31.1624L29.3271 31.0863L21.8899 4.88216ZM21.8899 4.88216C25.9814 8.09421 27.0061 11.6176 27.6059 15.1417C27.6986 15.6861 27.781 16.2349 27.8637 16.7854C28.3125 19.7743 28.7685 22.8105 30.9094 25.4454C31.427 26.0836 31.6047 26.7078 31.5971 27.2903C31.5893 27.8846 31.3875 28.469 31.0915 29.0068L31.0912 29.0073C30.7662 29.5993 30.3421 30.1075 29.9932 30.4713C29.8198 30.652 29.6678 30.7943 29.5602 30.8905C29.5065 30.9385 29.4641 30.9749 29.4358 30.9986C29.4217 31.0105 29.4111 31.0192 29.4045 31.0246L29.3976 31.0302L29.3968 31.0308L29.3967 31.0309L29.3965 31.031L29.3964 31.0312L21.8899 4.88216Z" fill="#043DA0" stroke="black"/>
<path d="M0.787806 17.7021L0.787808 17.7021C1.36827 21.9278 4.08616 25.6431 8.99612 28.7262L9.07618 28.7706C9.3375 28.8999 11.7741 30.0993 14.5058 31.3809C17.2941 32.689 20.3394 34.0584 21.719 34.4852L0.787806 17.7021ZM0.787806 17.7021C0.308575 14.2143 1.37276 10.9899 2.60887 8.58361C3.84337 6.18044 5.22779 4.63568 5.32673 4.52679L5.32679 4.52685M0.787806 17.7021L5.32679 4.52685M5.32679 4.52685L5.33302 4.51972M5.32679 4.52685L5.33302 4.51972M5.33302 4.51972C5.44434 4.39245 8.77583 0.659241 14.0298 0.659241M5.33302 4.51972L14.0298 0.659241M32.0921 29.5582L32.0923 29.558C33.0525 27.812 32.927 26.1212 31.795 24.7266L32.0921 29.5582ZM32.0921 29.5582C31.4889 30.6563 30.6113 31.488 30.2549 31.8001L30.2004 31.8477M32.0921 29.5582L30.2004 31.8477M30.2004 31.8477L30.1617 31.9089M30.2004 31.8477L30.1617 31.9089M30.1617 31.9089C28.8273 34.0174 27.0606 35.0428 24.8858 35.0428C23.97 35.0428 22.9691 34.8705 21.7195 34.4854L30.1617 31.9089ZM14.0298 0.659241C16.879 0.659241 19.7593 1.75959 22.5946 3.98439M14.0298 0.659241L22.5946 3.98439M22.5946 3.98439C27.6835 7.97975 28.3731 12.5074 28.9979 16.6453M22.5946 3.98439L28.9979 16.6453M28.9979 16.6453L29.0062 16.6998C29.4318 19.5201 29.8576 22.3414 31.7949 24.7265L28.9979 16.6453ZM9.63943 27.6151L9.66163 27.6291L9.68517 27.6407C10.073 27.8316 12.5199 29.0324 15.1917 30.2852C17.8464 31.53 20.7745 32.8508 22.0979 33.26C23.1809 33.5951 24.0725 33.76 24.8863 33.76C25.439 33.76 26.1555 33.6916 26.9193 33.3088C27.685 32.925 28.4581 32.2457 29.1609 31.0887L29.1615 31.0878L29.2203 30.9905L29.3096 30.9194L29.3094 30.9192C29.3862 30.8578 29.6252 30.6524 29.9104 30.353C30.2368 30.0105 30.649 29.5193 30.9678 28.9393C31.4081 28.1391 31.5193 27.4477 31.4233 26.8526C31.3285 26.2649 31.041 25.8328 30.7992 25.5346L30.7989 25.5342C28.6536 22.8938 28.1903 19.8874 27.7302 16.8353L27.7302 16.8351L27.7269 16.8134C27.1081 12.7156 26.4984 8.67832 21.8026 4.99274L21.8025 4.99265C19.2494 2.98989 16.6321 1.94054 14.0298 1.94054C9.39796 1.94054 6.35738 5.298 6.28608 5.37765C6.19302 5.48103 4.9489 6.8976 3.81875 9.06521C2.66981 11.2689 1.61071 14.3024 2.0603 17.5426C2.60054 21.4372 5.20063 24.8186 9.63943 27.6151Z" fill="#434B56" stroke="black"/>
<path d="M9.72618 8.29167L9.72594 8.29145C9.46853 8.04853 9.45662 7.64243 9.7 7.38515L9.70045 7.38468C10.8829 6.13144 14.3064 4.28121 18.5883 6.71337C18.8964 6.88861 19.004 7.28071 18.8296 7.58746L18.8294 7.58781C18.6544 7.896 18.2627 8.00349 17.9555 7.82871L17.9551 7.8285C15.7747 6.5908 13.9576 6.659 12.6675 7.07524C11.3982 7.4848 10.6799 8.21682 10.6365 8.26189L10.6365 8.26188L10.6341 8.26443C10.5067 8.3987 10.336 8.46647 10.1663 8.46647C10.0075 8.46647 9.84984 8.40853 9.72618 8.29167Z" fill="white" stroke="black"/>
<path d="M20.826 10.2746C20.338 10.2746 19.9395 9.87683 19.9395 9.38703C19.9395 8.89801 20.3382 8.49945 20.826 8.49945C21.3145 8.49945 21.7131 8.89812 21.7131 9.38703C21.7131 9.87672 21.3147 10.2746 20.826 10.2746Z" fill="white" stroke="black"/>
</svg>
