<svg width="46" height="46" viewBox="0 0 46 46" fill="none" xmlns="http://www.w3.org/2000/svg">
<g clip-path="url(#clip0)">
<path d="M45.9863 24.6655C45.9222 24.351 45.6456 24.1253 45.3247 24.1253H41.625C41.3307 22.2665 39.8408 20.8078 37.9428 20.5701C37.0183 19.2008 35.4634 18.364 33.8023 18.364C33.376 18.364 32.956 18.4179 32.5471 18.5245C31.8236 17.1131 30.375 16.2036 28.7612 16.2036C28.3648 16.2036 27.9746 16.2584 27.5953 16.367C26.5197 14.9022 24.8395 14.0431 22.9999 14.0431C21.4212 14.0431 19.9428 14.6835 18.8658 15.8172C18.3435 15.5954 17.7983 15.4834 17.2387 15.4834C16.5557 15.4834 15.8961 15.6441 15.3002 15.9518C11.6589 11.4614 6.1629 5.39351 5.56094 4.79146C5.02532 4.25584 4.31327 3.96094 3.55585 3.96094C2.79842 3.96094 2.08637 4.25584 1.55076 4.79146C1.01514 5.32698 0.720238 6.03912 0.720238 6.79655C0.720238 7.55397 1.01514 8.26602 1.55076 8.80164C1.99779 9.24868 7.26068 14.0355 11.6583 17.6786C10.0419 17.885 8.67048 19.006 8.14809 20.5479C6.22411 20.7495 4.67686 22.2324 4.37529 24.1253H0.675228C0.354399 24.1253 0.07777 24.3511 0.0136762 24.6655C-0.0504176 24.9799 0.115578 25.296 0.410842 25.4216C1.73548 25.9853 2.95173 28.3966 4.23936 30.9495C5.4585 33.3666 6.84038 36.1061 8.73043 38.2508C10.9769 40.7999 13.5244 42.0391 16.5186 42.0391H29.4814C32.4756 42.0391 35.0232 40.7999 37.2696 38.2508C39.1597 36.1061 40.5415 33.3666 41.7607 30.9495C43.0483 28.3966 44.2645 25.9853 45.5892 25.4216C45.8844 25.296 46.0505 24.9799 45.9863 24.6655ZM17.2388 16.8337C17.284 16.8337 17.3289 16.8361 17.3739 16.8383C17.2021 16.9575 17.038 17.0926 16.8849 17.2456C16.7791 17.3515 16.6814 17.4636 16.5909 17.5805C16.4556 17.4047 16.3146 17.2238 16.1693 17.0389C16.5063 16.9044 16.8672 16.8337 17.2388 16.8337ZM2.07053 6.79655C2.07053 6.39983 2.225 6.02679 2.50559 5.74629C2.78618 5.46579 3.15913 5.31123 3.55585 5.31123C3.95256 5.31123 4.3256 5.4657 4.6061 5.74629C5.30636 6.44664 12.71 14.6344 15.9397 18.9561C15.9133 19.0696 15.8915 19.1841 15.8762 19.2998C11.5854 16.1245 3.05453 8.39583 2.5055 7.8468C2.225 7.56621 2.07053 7.19326 2.07053 6.79655ZM8.56281 21.875C8.58631 21.8779 8.61844 21.8812 8.65544 21.8819C8.98266 21.8892 9.26631 21.6602 9.33068 21.3399C9.6038 19.9807 10.8096 18.9942 12.1977 18.9942C12.6196 18.9942 13.3244 19.1476 13.8909 19.4831C14.683 20.1035 15.3988 20.6377 15.9897 21.0385C16.1058 21.1173 16.2376 21.155 16.3681 21.155C16.4084 21.155 16.4485 21.1502 16.488 21.1431C16.5276 21.1504 16.568 21.1549 16.609 21.1549C16.6646 21.1549 16.7212 21.148 16.7775 21.1335C17.1387 21.0407 17.3563 20.6727 17.2635 20.3116C17.07 19.5584 17.2908 18.7495 17.8398 18.2006C18.6997 17.3407 20.0989 17.3407 20.9587 18.2006C21.2224 18.4643 21.6499 18.4642 21.9135 18.2006C22.1772 17.9369 22.1772 17.5094 21.9135 17.2458C21.4537 16.786 20.898 16.4797 20.3102 16.3248C21.0705 15.7255 22.0091 15.3936 22.9999 15.3936C24.5473 15.3936 25.9477 16.191 26.746 17.5268C26.9203 17.8182 27.284 17.9351 27.5953 17.7993C27.9686 17.6365 28.3609 17.554 28.7612 17.554C30.0179 17.554 31.129 18.3652 31.5257 19.5725C31.5841 19.7506 31.714 19.8963 31.8841 19.9748C32.0543 20.0533 32.2493 20.0576 32.4228 19.9866C32.8637 19.8061 33.3279 19.7145 33.8022 19.7145C35.1022 19.7145 36.3136 20.4181 36.9637 21.5506C37.0792 21.7518 37.29 21.8797 37.5218 21.8891C38.8623 21.9439 39.955 22.88 40.2496 24.1254H28.391C28.9931 22.8123 28.7545 21.2054 27.6747 20.1257C27.0031 19.4541 26.1103 19.0843 25.1605 19.0843C25.1604 19.0843 25.1602 19.0843 25.16 19.0843C24.7872 19.0843 24.4849 19.3867 24.485 19.7595C24.4851 20.1324 24.7874 20.4347 25.1602 20.4346C25.1602 20.4346 25.1604 20.4346 25.1605 20.4346C25.7495 20.4346 26.3034 20.6639 26.7199 21.0806C27.556 21.9167 27.5766 23.261 26.787 24.1254H5.7507C6.05388 22.8472 7.19695 21.8905 8.56281 21.875ZM40.7084 30.0375C40.5891 29.9409 40.4374 29.8865 40.2836 29.8865C40.1062 29.8865 39.9316 29.9585 39.8065 30.0846C39.6804 30.2097 39.6084 30.3843 39.6084 30.5617C39.6084 30.739 39.6804 30.9136 39.8065 31.0388C39.891 31.1238 39.9982 31.1836 40.1135 31.2139C39.038 33.3264 37.815 35.5898 36.2565 37.3581C34.2814 39.5993 32.0652 40.6888 29.4814 40.6888H22.9079H16.5186C13.9347 40.6888 11.7186 39.5993 9.74351 37.3581C8.18509 35.5898 6.96209 33.3264 5.88654 31.2139C6.00176 31.1835 6.10916 31.1238 6.19422 31.0388C6.31935 30.9136 6.39137 30.739 6.39137 30.5617C6.39137 30.3843 6.31935 30.2097 6.19422 30.0846C6.0682 29.9585 5.89446 29.8865 5.71622 29.8865C5.56247 29.8865 5.41079 29.9408 5.2916 30.0373C4.3779 28.228 3.53334 26.5944 2.57914 25.4756H43.4209C42.4666 26.5944 41.6221 28.2281 40.7084 30.0375Z" fill="#043DA0"/>
<path d="M23.0002 33.4873C21.8338 33.4873 20.8848 34.4363 20.8848 35.6028C20.8848 36.7692 21.8338 37.7182 23.0002 37.7182C24.1667 37.7182 25.1157 36.7692 25.1157 35.6028C25.1157 34.4363 24.1667 33.4873 23.0002 33.4873ZM23.0002 36.3679C22.5783 36.3679 22.2351 36.0247 22.2351 35.6028C22.2351 35.1808 22.5783 34.8376 23.0002 34.8376C23.4221 34.8376 23.7654 35.1808 23.7654 35.6028C23.7654 36.0247 23.4221 36.3679 23.0002 36.3679Z" fill="#043DA0"/>
<path d="M31.6418 33.4873C30.4754 33.4873 29.5264 34.4363 29.5264 35.6028C29.5264 36.7692 30.4754 37.7182 31.6418 37.7182C32.8083 37.7182 33.7573 36.7692 33.7573 35.6028C33.7573 34.4363 32.8083 33.4873 31.6418 33.4873ZM31.6418 36.3679C31.2199 36.3679 30.8767 36.0247 30.8767 35.6028C30.8767 35.1808 31.2199 34.8376 31.6418 34.8376C32.0637 34.8376 32.407 35.1808 32.407 35.6028C32.407 36.0247 32.0637 36.3679 31.6418 36.3679Z" fill="#043DA0"/>
<path d="M14.3581 33.4873C13.1917 33.4873 12.2427 34.4363 12.2427 35.6028C12.2427 36.7692 13.1917 37.7182 14.3581 37.7182C15.5246 37.7182 16.4736 36.7692 16.4736 35.6028C16.4736 34.4363 15.5246 33.4873 14.3581 33.4873ZM14.3581 36.3679C13.9362 36.3679 13.593 36.0247 13.593 35.6028C13.593 35.1808 13.9362 34.8376 14.3581 34.8376C14.7801 34.8376 15.1233 35.1808 15.1233 35.6028C15.1233 36.0247 14.7801 36.3679 14.3581 36.3679Z" fill="#043DA0"/>
<path d="M18.6791 34.9276C18.5017 34.9276 18.3271 34.9996 18.202 35.1257C18.0759 35.2508 18.0039 35.4245 18.0039 35.6028C18.0039 35.781 18.0759 35.9547 18.202 36.0799C18.3271 36.2059 18.5017 36.2779 18.6791 36.2779C18.8573 36.2779 19.031 36.2059 19.1562 36.0799C19.2822 35.9547 19.3542 35.7801 19.3542 35.6028C19.3542 35.4245 19.2822 35.2508 19.1562 35.1257C19.031 34.9996 18.8573 34.9276 18.6791 34.9276Z" fill="#043DA0"/>
<path d="M10.037 34.9276C9.85962 34.9276 9.68499 34.9996 9.55986 35.1257C9.43383 35.2508 9.36182 35.4254 9.36182 35.6028C9.36182 35.7801 9.43383 35.9547 9.55986 36.0799C9.68499 36.2059 9.85962 36.2779 10.037 36.2779C10.2152 36.2779 10.3889 36.2059 10.5141 36.0799C10.6401 35.9547 10.7121 35.7801 10.7121 35.6028C10.7121 35.4254 10.6401 35.2508 10.5141 35.1257C10.3889 34.9996 10.2152 34.9276 10.037 34.9276Z" fill="#043DA0"/>
<path d="M27.3207 34.9276C27.1433 34.9276 26.9687 34.9996 26.8436 35.1257C26.7175 35.2508 26.6455 35.4254 26.6455 35.6028C26.6455 35.7801 26.7175 35.9547 26.8436 36.0799C26.9687 36.2059 27.1433 36.2779 27.3207 36.2779C27.4989 36.2779 27.6726 36.2059 27.7978 36.0799C27.9238 35.9547 27.9958 35.7801 27.9958 35.6028C27.9958 35.4254 27.9238 35.2508 27.7978 35.1257C27.6726 34.9996 27.4989 34.9276 27.3207 34.9276Z" fill="#043DA0"/>
<path d="M35.9627 34.9276C35.7854 34.9276 35.6108 34.9996 35.4856 35.1257C35.3596 35.2508 35.2876 35.4245 35.2876 35.6028C35.2876 35.781 35.3596 35.9547 35.4856 36.0799C35.6108 36.2059 35.7854 36.2779 35.9627 36.2779C36.141 36.2779 36.3147 36.2059 36.4398 36.0799C36.5659 35.9547 36.6379 35.7801 36.6379 35.6028C36.6379 35.4254 36.5659 35.2508 36.4398 35.1257C36.3147 34.9996 36.141 34.9276 35.9627 34.9276Z" fill="#043DA0"/>
<path d="M18.6789 28.4462C17.5125 28.4462 16.5635 29.3952 16.5635 30.5617C16.5635 31.7282 17.5125 32.6771 18.6789 32.6771C19.8454 32.6771 20.7944 31.7282 20.7944 30.5617C20.7944 29.3952 19.8454 28.4462 18.6789 28.4462ZM18.6789 31.3268C18.257 31.3268 17.9138 30.9836 17.9138 30.5617C17.9138 30.1398 18.257 29.7965 18.6789 29.7965C19.1009 29.7965 19.4441 30.1398 19.4441 30.5617C19.4441 30.9836 19.1009 31.3268 18.6789 31.3268Z" fill="#043DA0"/>
<path d="M35.9626 28.4462C34.7962 28.4462 33.8472 29.3952 33.8472 30.5617C33.8472 31.7282 34.7962 32.6771 35.9626 32.6771C37.1291 32.6771 38.0781 31.7282 38.0781 30.5617C38.0781 29.3952 37.1291 28.4462 35.9626 28.4462ZM35.9626 31.3268C35.5407 31.3268 35.1975 30.9836 35.1975 30.5617C35.1975 30.1398 35.5407 29.7965 35.9626 29.7965C36.3845 29.7965 36.7278 30.1398 36.7278 30.5617C36.7278 30.9836 36.3845 31.3268 35.9626 31.3268Z" fill="#043DA0"/>
<path d="M27.321 28.4462C26.1546 28.4462 25.2056 29.3952 25.2056 30.5617C25.2056 31.7282 26.1546 32.6771 27.321 32.6771C28.4875 32.6771 29.4365 31.7282 29.4365 30.5617C29.4365 29.3952 28.4875 28.4462 27.321 28.4462ZM27.321 31.3268C26.8991 31.3268 26.5559 30.9836 26.5559 30.5617C26.5559 30.1398 26.8991 29.7965 27.321 29.7965C27.7429 29.7965 28.0862 30.1398 28.0862 30.5617C28.0862 30.9836 27.7429 31.3268 27.321 31.3268Z" fill="#043DA0"/>
<path d="M10.0373 28.4462C8.87086 28.4462 7.92188 29.3952 7.92188 30.5617C7.92188 31.7282 8.87086 32.6771 10.0373 32.6771C11.2038 32.6771 12.1528 31.7282 12.1528 30.5617C12.1528 29.3952 11.2038 28.4462 10.0373 28.4462ZM10.0373 31.3268C9.61541 31.3268 9.27216 30.9836 9.27216 30.5617C9.27216 30.1398 9.61541 29.7965 10.0373 29.7965C10.4592 29.7965 10.8025 30.1398 10.8025 30.5617C10.8025 30.9836 10.4592 31.3268 10.0373 31.3268Z" fill="#043DA0"/>
<path d="M14.3578 31.2368C14.5351 31.2368 14.7097 31.1648 14.8349 31.0388C14.9609 30.9137 15.0329 30.739 15.0329 30.5617C15.0329 30.3843 14.9609 30.2097 14.8349 30.0846C14.7097 29.9585 14.536 29.8865 14.3578 29.8865C14.1804 29.8865 14.0058 29.9585 13.8807 30.0846C13.7546 30.2097 13.6826 30.3843 13.6826 30.5617C13.6826 30.739 13.7546 30.9137 13.8807 31.0388C14.0067 31.1647 14.1804 31.2368 14.3578 31.2368Z" fill="#043DA0"/>
<path d="M22.9999 31.2368C23.1772 31.2368 23.3518 31.1648 23.477 31.0388C23.603 30.9137 23.675 30.739 23.675 30.5617C23.675 30.3843 23.603 30.2097 23.477 30.0846C23.3518 29.9585 23.1781 29.8865 22.9999 29.8865C22.8225 29.8865 22.6479 29.9585 22.5228 30.0846C22.3967 30.2097 22.3247 30.3843 22.3247 30.5617C22.3247 30.739 22.3967 30.9137 22.5228 31.0388C22.6479 31.1647 22.8225 31.2368 22.9999 31.2368Z" fill="#043DA0"/>
<path d="M31.6415 31.2368C31.8188 31.2368 31.9934 31.1648 32.1186 31.0388C32.2446 30.9137 32.3166 30.739 32.3166 30.5617C32.3166 30.3843 32.2446 30.2097 32.1186 30.0846C31.9934 29.9585 31.8197 29.8865 31.6415 29.8865C31.4641 29.8865 31.2895 29.9585 31.1644 30.0846C31.0383 30.2097 30.9663 30.3834 30.9663 30.5617C30.9663 30.739 31.0383 30.9137 31.1644 31.0388C31.2895 31.1647 31.4641 31.2368 31.6415 31.2368Z" fill="#043DA0"/>
</g>
<defs>
<clipPath id="clip0">
<rect width="46" height="46" fill="white"/>
</clipPath>
</defs>
</svg>
