<svg width="46" height="46" viewBox="0 0 46 46" fill="none" xmlns="http://www.w3.org/2000/svg">
<g clip-path="url(#clip0)">
<path d="M0 27.4089C0 37.6596 10.3149 45.9999 23 45.9999C26.021 46.0016 29.0127 45.5219 31.8042 44.5882C34.5956 43.6545 37.1319 42.2851 39.2681 40.5585C41.4042 38.8318 43.0983 36.7817 44.2534 34.5254C45.4086 32.2691 46.0021 29.8508 46 27.4089C45.9997 27.2047 45.8992 27.0089 45.7205 26.8645C45.5419 26.7201 45.2997 26.6389 45.047 26.6386H0.953008C0.700345 26.6389 0.458117 26.7201 0.279457 26.8645C0.100798 27.0089 0.000296726 27.2047 0 27.4089H0ZM44.0727 28.1793C44.0086 29.3353 43.7994 30.4831 43.4482 31.6049H2.55406C2.20087 30.4833 1.99085 29.3355 1.92732 28.1793H44.0727ZM2.76821 32.2393H43.2329C41.9433 35.7681 39.2759 38.8651 35.6292 41.0676C31.9825 43.27 27.5522 44.4598 23 44.4593C13.443 44.4593 5.35142 39.2954 2.76821 32.2393Z" fill="#173156"/>
<path d="M29.6303 41.0427C31.781 40.2931 33.6929 39.1582 35.2217 37.724C35.2896 37.6601 35.3862 37.6208 35.49 37.6145C35.5939 37.6082 35.6966 37.6355 35.7755 37.6904C35.8545 37.7454 35.9032 37.8234 35.911 37.9073C35.9188 37.9913 35.885 38.0743 35.817 38.1381C34.2081 39.6455 32.1971 40.8382 29.9353 41.6263C29.8863 41.643 29.8337 41.6517 29.7806 41.6517C29.69 41.6519 29.6022 41.6267 29.532 41.5806C29.4618 41.5344 29.4134 41.47 29.3952 41.3983C29.377 41.3266 29.39 41.2521 29.4321 41.1873C29.4741 41.1224 29.5425 41.0714 29.6258 41.0427H29.6303Z" fill="#173156"/>
<path d="M42.4281 9.98335C44.2725 8.40917 43.8005 6.08642 43.7792 5.9958C43.7504 5.86167 43.6782 5.73609 43.5699 5.63185C43.4616 5.52761 43.321 5.44844 43.1625 5.40239C43.004 5.35634 42.8333 5.34506 42.6677 5.36971C42.502 5.39435 42.3474 5.45403 42.2196 5.54267L38.0353 8.44361L39.3034 3.3613C39.3372 3.22572 39.3253 3.08529 39.2688 2.95473C39.2123 2.82418 39.1134 2.70832 38.9824 2.61933C38.8515 2.53033 38.6933 2.47148 38.5244 2.44895C38.3556 2.42642 38.1824 2.44104 38.023 2.49129C37.8974 2.53026 34.9252 3.48817 34.0989 5.78011C33.7199 6.82593 33.8499 7.9497 34.4823 9.13327C33.6658 9.02987 32.8308 9.07916 32.0415 9.27737C30.6658 9.63987 29.6119 10.4773 28.91 11.7632C28.6966 12.1659 28.515 12.5791 28.3662 13.0003C28.3662 13.0094 28.3595 13.0193 28.3561 13.0284C27.3078 15.923 26.7046 20.7769 26.819 23.3289C26.8356 23.7486 26.999 24.1558 27.2903 24.5034C27.5816 24.851 27.9889 25.1247 28.4649 25.2928C28.8179 25.4195 29.1998 25.4853 29.5861 25.4858C30.2393 25.4853 30.8709 25.2967 31.3676 24.9539C32.8151 23.9624 34.8018 22.2958 36.5542 20.6038C37.912 19.2916 39.0276 18.0663 39.7799 17.0603C40.0599 16.6929 40.3108 16.3115 40.5311 15.9185C41.2341 14.6334 41.289 13.4407 40.6948 12.3741C40.4435 11.9309 40.0974 11.5272 39.6723 11.1814C40.8035 10.982 41.7252 10.5833 42.4281 9.98335ZM36.08 11.1615L36.1091 11.1733L36.1428 11.1869L36.173 11.1986H36.182L36.2033 11.205L36.2414 11.2168L36.2616 11.2231C36.2997 11.2331 38.2798 11.7723 38.9626 13.013C39.3258 13.6718 39.2698 14.4186 38.7899 15.2958C38.6508 15.544 38.4955 15.786 38.3246 16.0209L36.7381 15.3366C36.6926 15.3155 36.6423 15.3021 36.5901 15.297C36.538 15.2919 36.4852 15.2953 36.4347 15.307C36.3843 15.3187 36.3373 15.3385 36.2964 15.3652C36.2556 15.3919 36.2218 15.4249 36.1971 15.4623C36.1723 15.4997 36.1571 15.5407 36.1523 15.583C36.1475 15.6252 36.1533 15.6678 36.1692 15.7083C36.1852 15.7487 36.211 15.7861 36.2452 15.8183C36.2793 15.8505 36.3211 15.8769 36.3681 15.8958L37.9165 16.5637C37.0823 17.5932 36.171 18.5805 35.1875 19.5199L32.1368 18.3844C32.0422 18.3492 31.9342 18.3458 31.8366 18.3749C31.7389 18.4041 31.6595 18.4634 31.616 18.5398C31.5724 18.6162 31.5682 18.7035 31.6043 18.7825C31.6403 18.8614 31.7137 18.9256 31.8083 18.9608L34.6628 20.0283C33.0931 21.5119 31.3912 22.9229 30.1377 23.7812C30.0147 23.8658 29.8647 23.9206 29.7049 23.9394C29.5452 23.9583 29.382 23.9403 29.2343 23.8876C29.0866 23.8349 28.9602 23.7496 28.8697 23.6415C28.7793 23.5334 28.7283 23.4068 28.7228 23.2764C28.6185 20.9573 29.1342 16.6489 30.0469 13.8658L33.0909 14.9705C33.1412 14.989 33.1959 14.9986 33.2512 14.9986C33.341 14.9986 33.428 14.9737 33.4978 14.9282C33.5676 14.8826 33.616 14.8191 33.6349 14.7481C33.6537 14.6772 33.642 14.6033 33.6016 14.5385C33.5611 14.4737 33.4945 14.4221 33.4127 14.3923L30.2644 13.2495C30.3736 12.9582 30.5028 12.672 30.6512 12.3922C31.1311 11.5149 31.7724 10.9784 32.6222 10.7519C34.2255 10.3196 36.0609 11.147 36.08 11.157V11.1615ZM36.9859 4.86207L36.1226 8.31855C35.7661 7.55547 35.6977 6.85584 35.9219 6.22599C36.122 5.70231 36.4889 5.23037 36.9859 4.85753V4.86207ZM41.7554 7.89623C41.6205 8.28249 41.3738 8.63724 41.0356 8.93118C40.5872 9.31362 39.9619 9.56768 39.1599 9.69334L41.7554 7.89623Z" fill="#173156"/>
<path d="M17.2571 13.7398C15.8489 10.9303 12.6535 9.08067 9.39648 9.08067H9.30567C9.29558 9.05892 9.28436 9.03626 9.27315 9.01451C8.63296 7.74847 6.70003 7.18296 4.95659 7.7539C4.15404 8.00968 3.49139 8.48937 3.08869 9.10604C2.88736 9.40764 2.77026 9.74124 2.74566 10.0834C2.72106 10.4255 2.78955 10.7678 2.9463 11.0862C3.07682 11.3479 3.26698 11.5873 3.5069 11.7922C2.10653 13.6509 1.90584 16.1577 3.02703 18.4016C4.43636 21.211 7.58801 23.057 10.8619 23.0616C11.3709 23.7385 12.3273 24.1309 13.361 24.1309C13.7993 24.1304 14.2334 24.0611 14.6391 23.927C16.2402 23.4032 17.0665 22.0239 16.4813 20.8603C16.4644 20.8285 16.4476 20.7968 16.4297 20.7651C18.1473 18.8737 18.4837 16.1858 17.2571 13.7398ZM14.5382 20.2032C14.3745 20.3486 14.2859 20.5392 14.2907 20.7357C14.2955 20.9323 14.3933 21.1199 14.564 21.2599C14.6277 21.3118 14.6781 21.3734 14.712 21.4412C14.8993 21.8136 14.5371 22.2994 13.9272 22.5015C13.3173 22.7036 12.6322 22.5586 12.445 22.1852C12.4324 22.1571 12.4223 22.1283 12.4147 22.0991C12.3638 21.9153 12.2312 21.753 12.0421 21.643C11.8531 21.5329 11.6206 21.4827 11.3888 21.5019C8.69799 21.7221 5.99256 20.2096 4.79738 17.8252C3.78831 15.8169 4.09328 13.573 5.56988 12.1094C5.66163 12.0185 5.72648 11.9119 5.75949 11.7976C5.7925 11.6834 5.7928 11.5646 5.76035 11.4502C5.7279 11.3359 5.66358 11.229 5.57228 11.1378C5.48097 11.0466 5.36511 10.9735 5.23352 10.924C5.00252 10.8438 4.81807 10.6953 4.71778 10.5089C4.66764 10.3957 4.64801 10.2751 4.66019 10.1552C4.67237 10.0353 4.71609 9.91895 4.78841 9.81383C4.98129 9.52284 5.29729 9.29766 5.67863 9.17945C6.43431 8.93114 7.27296 9.11964 7.50953 9.58999C7.55445 9.68285 7.57543 9.78215 7.57119 9.8818C7.56749 9.99429 7.59435 10.1061 7.64988 10.2092C7.70542 10.3124 7.78828 10.4045 7.89262 10.479C7.99695 10.5535 8.12023 10.6085 8.25377 10.6403C8.3873 10.6721 8.52784 10.6799 8.66547 10.663C8.91334 10.6326 9.16371 10.6174 9.41442 10.6177C11.9057 10.6177 14.3802 12.0895 15.4969 14.3152C16.5508 16.4323 16.1763 18.7423 14.5382 20.2032Z" fill="#173156"/>
<path d="M13.3421 19.1973C13.2885 19.219 13.2294 19.2302 13.1694 19.23C13.081 19.2296 12.9953 19.2052 12.9262 19.1605C12.8571 19.1159 12.8087 19.0537 12.7888 18.984C12.769 18.9143 12.7788 18.8413 12.8168 18.7767C12.8547 18.7121 12.9185 18.6598 12.9979 18.6282C13.5285 18.4165 13.9335 18.0433 14.1241 17.5906C14.3148 17.1378 14.2754 16.6424 14.0148 16.213C13.971 16.1376 13.9656 16.0513 13.9999 15.9727C14.0341 15.8942 14.1053 15.8297 14.1979 15.7931C14.2905 15.7566 14.3972 15.751 14.4949 15.7775C14.5926 15.804 14.6734 15.8605 14.72 15.9348C14.8941 16.2226 14.9963 16.5353 15.0208 16.8551C15.0453 17.1748 14.9916 17.4953 14.8628 17.7983C14.734 18.1013 14.5326 18.3808 14.2702 18.6208C14.0077 18.8609 13.6893 19.0568 13.3331 19.1973H13.3421Z" fill="#173156"/>
<path d="M22.1021 23.9915C22.1018 24.281 22.2079 24.5641 22.4067 24.8049C22.6056 25.0458 22.8884 25.2335 23.2193 25.3444C23.5502 25.4553 23.9144 25.4843 24.2657 25.4279C24.6171 25.3714 24.9398 25.232 25.1931 25.0273C25.4464 24.8225 25.6189 24.5617 25.6887 24.2777C25.7586 23.9937 25.7226 23.6993 25.5854 23.4318C25.4482 23.1644 25.216 22.9358 24.918 22.775C24.6201 22.6143 24.2699 22.5286 23.9116 22.5287C23.432 22.5295 22.9722 22.6838 22.6331 22.958C22.2939 23.2321 22.1029 23.6037 22.1021 23.9915ZM22.8869 23.9915C22.8869 23.8274 22.9471 23.6671 23.0598 23.5307C23.1726 23.3943 23.3329 23.288 23.5204 23.2253C23.708 23.1625 23.9143 23.1462 24.1133 23.1782C24.3123 23.2103 24.4951 23.2894 24.6386 23.4054C24.782 23.5215 24.8796 23.6693 24.9191 23.8302C24.9585 23.9911 24.9381 24.1579 24.8602 24.3094C24.7824 24.4609 24.6508 24.5904 24.4819 24.6814C24.313 24.7724 24.1146 24.8209 23.9116 24.8207C23.6398 24.8204 23.3791 24.733 23.187 24.5775C22.9948 24.422 22.8869 24.2112 22.8869 23.9915Z" fill="#043DA0"/>
<path d="M14.7863 5.3469C14.7863 5.00893 14.6623 4.67855 14.43 4.39751C14.1978 4.11647 13.8677 3.89739 13.4814 3.76798C13.0952 3.63856 12.6701 3.6046 12.26 3.67041C11.8499 3.73621 11.4731 3.89882 11.1773 4.13767C10.8814 4.37653 10.6799 4.68091 10.598 5.01234C10.5162 5.34378 10.5577 5.68739 10.7174 5.99973C10.8772 6.31208 11.1478 6.57915 11.4953 6.76718C11.8427 6.95521 12.2513 7.05575 12.6694 7.05611C13.2305 7.05611 13.7685 6.87609 14.1655 6.55561C14.5624 6.23512 14.7857 5.80038 14.7863 5.3469ZM14.0014 5.3469C14.0016 5.55945 13.9239 5.76727 13.778 5.9441C13.6321 6.12094 13.4247 6.25884 13.1819 6.34038C12.939 6.42193 12.6717 6.44345 12.4138 6.40222C12.1558 6.361 11.9188 6.25889 11.7326 6.10879C11.5465 5.95869 11.4195 5.76734 11.3679 5.55894C11.3162 5.35054 11.3422 5.13444 11.4424 4.93796C11.5427 4.74147 11.7128 4.57343 11.9312 4.45507C12.1496 4.33671 12.4065 4.27334 12.6694 4.27298C13.0222 4.27274 13.3607 4.38572 13.6104 4.5871C13.8602 4.78847 14.0008 5.06176 14.0014 5.3469Z" fill="#173156"/>
<path d="M45.331 19.4901C45.3312 19.1253 45.1976 18.7687 44.947 18.4654C44.6964 18.1621 44.3401 17.9257 43.9232 17.7861C43.5063 17.6466 43.0476 17.6101 42.6051 17.6813C42.1625 17.7526 41.7561 17.9283 41.4372 18.1864C41.1183 18.4444 40.9012 18.7731 40.8135 19.1309C40.7258 19.4886 40.7714 19.8594 40.9445 20.1962C41.1176 20.5331 41.4104 20.8208 41.7859 21.0231C42.1614 21.2253 42.6026 21.333 43.0539 21.3325C43.6577 21.3313 44.2364 21.1367 44.6632 20.7914C45.09 20.4461 45.3301 19.9782 45.331 19.4901ZM44.5462 19.4901C44.5462 19.7293 44.4584 19.9631 44.2939 20.162C44.1294 20.3609 43.8956 20.5158 43.6221 20.6072C43.3486 20.6987 43.0477 20.7224 42.7575 20.6756C42.4673 20.6287 42.2008 20.5133 41.9917 20.3439C41.7827 20.1746 41.6405 19.9589 41.5832 19.7242C41.5258 19.4895 41.5559 19.2464 41.6697 19.0255C41.7834 18.8047 41.9756 18.616 42.222 18.4835C42.4684 18.351 42.7579 18.2806 43.0539 18.2811C43.4499 18.2821 43.8293 18.4098 44.109 18.6364C44.3887 18.863 44.5459 19.17 44.5462 19.4901Z" fill="#173156"/>
<path d="M2.85449 23.3616C2.85427 23.5647 2.92858 23.7633 3.06803 23.9323C3.20748 24.1013 3.4058 24.233 3.63789 24.3109C3.86999 24.3887 4.12544 24.4092 4.37193 24.3697C4.61842 24.3302 4.84487 24.2324 5.02264 24.0889C5.20041 23.9453 5.3215 23.7624 5.37061 23.5631C5.41971 23.3639 5.39462 23.1574 5.29851 22.9698C5.2024 22.7821 5.03958 22.6217 4.83065 22.5088C4.62173 22.3959 4.37609 22.3357 4.1248 22.3357C3.78818 22.3359 3.46541 22.4441 3.22728 22.6364C2.98915 22.8287 2.85509 23.0895 2.85449 23.3616ZM3.63932 23.3616C3.63932 23.284 3.66779 23.2081 3.72114 23.1436C3.77448 23.079 3.8503 23.0287 3.93901 22.999C4.02772 22.9693 4.12533 22.9616 4.21951 22.9767C4.31368 22.9919 4.40018 23.0292 4.46808 23.0841C4.53597 23.139 4.58221 23.2089 4.60094 23.285C4.61967 23.3612 4.61006 23.4401 4.57331 23.5118C4.53657 23.5835 4.47435 23.6447 4.39451 23.6879C4.31467 23.731 4.22081 23.754 4.1248 23.754C3.99604 23.754 3.87256 23.7127 3.78151 23.6391C3.69047 23.5655 3.63932 23.4657 3.63932 23.3616Z" fill="#173156"/>
<path d="M31.7721 2.97247C31.7721 2.76935 31.6975 2.5708 31.5579 2.40192C31.4183 2.23305 31.2198 2.10144 30.9876 2.02375C30.7554 1.94606 30.5 1.92578 30.2535 1.96548C30.0071 2.00517 29.7807 2.10305 29.6031 2.24674C29.4255 2.39043 29.3046 2.57347 29.2557 2.77271C29.2068 2.97195 29.2321 3.17843 29.3285 3.36604C29.4248 3.55365 29.5878 3.71395 29.7968 3.82666C30.0059 3.93938 30.2516 3.99945 30.5029 3.99927C30.8395 3.99879 31.1621 3.89043 31.4001 3.69794C31.638 3.50546 31.7718 3.24457 31.7721 2.97247ZM30.9872 2.97247C30.9872 3.05012 30.9587 3.12603 30.9053 3.19058C30.8519 3.25513 30.776 3.30543 30.6873 3.3351C30.5985 3.36477 30.5008 3.37249 30.4066 3.35728C30.3124 3.34206 30.2259 3.3046 30.1581 3.24963C30.0902 3.19466 30.0441 3.12465 30.0255 3.04847C30.0069 2.97229 30.0166 2.89336 30.0536 2.82168C30.0905 2.74999 30.1529 2.68876 30.2329 2.64575C30.3128 2.60274 30.4068 2.57988 30.5029 2.58006C30.6314 2.5803 30.7546 2.62175 30.8454 2.69532C30.9362 2.76888 30.9872 2.86856 30.9872 2.97247Z" fill="#173156"/>
<path d="M24.175 14.1567C25.8994 12.3134 27.7819 9.48129 26.9085 6.46344C26.1842 3.94041 23.6716 1.79348 19.4436 0.0815518C19.3298 0.0356867 19.2058 0.00868043 19.0788 0.00212083C18.9519 -0.00443877 18.8246 0.00958072 18.7045 0.043355C18.5844 0.0771293 18.4738 0.129977 18.3793 0.19879C18.2848 0.267603 18.2083 0.350993 18.1543 0.444056C16.921 2.56471 15.8334 4.66089 16.1361 6.98545C16.4792 9.64804 18.6341 12.0949 22.7242 14.4666C22.802 14.5116 22.8878 14.5468 22.9787 14.5709C22.8419 16.2547 22.4305 17.6956 21.7735 18.7741C21.7506 18.8115 21.7371 18.8521 21.7337 18.8937C21.7303 18.9353 21.7371 18.977 21.7536 19.0165C21.7702 19.056 21.7962 19.0924 21.8302 19.1237C21.8642 19.1551 21.9055 19.1807 21.9517 19.1991C22.0059 19.2204 22.0653 19.2315 22.1255 19.2318C22.1987 19.2317 22.2705 19.2151 22.3326 19.1839C22.3948 19.1527 22.445 19.108 22.4776 19.055C23.194 17.8769 23.6369 16.3154 23.7725 14.4993C23.8729 14.4507 23.9611 14.3873 24.0326 14.3126C24.0797 14.2636 24.1291 14.212 24.1784 14.1585L24.175 14.1567ZM23.7557 11.8983C23.5797 9.69698 23.0012 7.52196 22.1423 5.94053C22.1223 5.90164 22.0928 5.86638 22.0557 5.83679C22.0186 5.80721 21.9745 5.7839 21.9262 5.76822C21.8778 5.75255 21.826 5.74482 21.7739 5.74549C21.7218 5.74616 21.6703 5.75522 21.6226 5.77214C21.5749 5.78906 21.5318 5.81349 21.4958 5.84402C21.4599 5.87454 21.4319 5.91055 21.4134 5.94993C21.3948 5.98932 21.3862 6.03129 21.388 6.0734C21.3897 6.11551 21.4019 6.15691 21.4236 6.19519C22.3497 7.90259 22.9361 10.3332 23.018 12.7203C19.9246 10.7845 18.2899 8.85235 18.0287 6.82414C17.8123 5.1403 18.5321 3.49453 19.4605 1.82973C22.63 3.24984 24.5114 4.92371 25.0552 6.81417C25.5821 8.63938 24.8029 10.4437 23.7557 11.8983Z" fill="#173156"/>
</g>
<defs>
<clipPath id="clip0">
<rect width="46" height="46" fill="white"/>
</clipPath>
</defs>
</svg>
