<svg width="46" height="46" viewBox="0 0 46 46" fill="none" xmlns="http://www.w3.org/2000/svg">
<g clip-path="url(#clip0)">
<path d="M35.8417 21.0834L45.2333 12.075L42.9333 9.58335L30.0917 21.0834H35.8417ZM37.95 4.02502L34.8833 2.30002L22.2333 21.0834H26.8333L37.95 4.02502ZM0 24.9167L0.191667 26.0667C0.958333 34.3084 6.13333 41.975 13.6083 45.2334L13.8 46H32.2L32.5833 44.85C40.0583 41.4 45.2333 34.6917 46 26.6417V24.9167H0ZM31.2417 42.1667H14.7583C9.39167 40.25 5.55833 34.5 4.40833 28.75H41.975C40.6333 34.5 36.6083 40.25 31.2417 42.1667Z" fill="#043DA0"/>
</g>
<defs>
<clipPath id="clip0">
<rect width="46" height="46" fill="white"/>
</clipPath>
</defs>
</svg>
